<svg xmlns="http://www.w3.org/2000/svg" width="512" height="512" viewBox="0 0 512 512" fill="none"><metadata><rdf:RDF xmlns:rdf="http://www.w3.org/1999/02/22-rdf-syntax-ns#" xmlns:dc="http://purl.org/dc/elements/1.1/"><rdf:Description><dc:creator>RealFaviconGenerator</dc:creator><dc:source>https://realfavicongenerator.net</dc:source></rdf:Description></rdf:RDF></metadata><rect width="512" height="512" rx="25" fill="url(#paint0_linear_1_5735)"></rect><rect x="233.205" y="319.134" width="10" height="61" transform="rotate(135 233.205 319.134)" fill="#D9D9D9"></rect><path d="M256 97C343.813 97 415 168.187 415 256C415 343.813 343.813 415 256 415C168.187 415 97 343.813 97 256C97 168.187 168.187 97 256 97Z" stroke="white" stroke-width="50"></path><path d="M255.5 307C271.24 307 284 319.76 284 335.5C284 351.24 271.24 364 255.5 364C239.76 364 227 351.24 227 335.5C227 319.76 239.76 307 255.5 307ZM256 144C276.435 144 293 160.565 293 181C293 188.864 290.544 196.152 286.361 202.146L332.882 246.05C334.624 245.372 336.518 245 338.5 245C347.06 245 354 251.94 354 260.5C354 269.06 347.06 276 338.5 276C329.94 276 323 269.06 323 260.5C323 257.592 323.801 254.871 325.194 252.546L279.589 209.505C273.185 214.81 264.965 218 256 218C247.811 218 240.245 215.338 234.116 210.835L199.67 243.903C203.024 248.578 205 254.308 205 260.5C205 276.24 192.24 289 176.5 289C160.76 289 148 276.24 148 260.5C148 244.76 160.76 232 176.5 232C182.434 232 187.944 233.814 192.507 236.917L226.921 203.881C221.96 197.585 219 189.638 219 181C219 160.565 235.565 144 256 144Z" fill="white"></path><defs>
<linearGradient id="paint0_linear_1_5735" x1="-7.56414e-06" y1="512" x2="605.223" y2="344.567" gradientUnits="userSpaceOnUse">
<stop stop-color="#26668C"></stop>
<stop offset="1" stop-color="#55ACBF"></stop>
</linearGradient>
</defs></svg>