<svg preserveAspectRatio="none" width="100%" height="100%" overflow="visible" style="display: block;" viewBox="0 0 21.0364 24.375" fill="none" xmlns="http://www.w3.org/2000/svg">
<g id="Group">
<path id="Vector" d="M0.5 3.8393V20.5278" stroke="var(--stroke-0, white)" stroke-linecap="round"/>
<path id="Vector_2" d="M20.5359 8.8482V20.5357" stroke="var(--stroke-0, white)" stroke-linecap="round" stroke-linejoin="round"/>
<path id="Vector_3" d="M3.83956 0.5H12.1878" stroke="var(--stroke-0, white)" stroke-linecap="round" stroke-linejoin="round"/>
<path id="Vector_4" d="M3.83956 23.875H17.1967" stroke="var(--stroke-0, white)" stroke-linecap="round"/>
<path id="Vector_5" d="M20.5363 20.5357C20.5455 22.2034 18.8667 23.875 17.1971 23.875" stroke="var(--stroke-0, white)" stroke-linecap="round" stroke-linejoin="round"/>
<path id="Vector_6" d="M0.500278 20.5357C0.500278 22.2053 2.16992 23.875 3.83956 23.875" stroke="var(--stroke-0, white)" stroke-linecap="round" stroke-linejoin="round"/>
<path id="Vector_7" d="M0.500278 3.83687C0.500278 2.16965 2.16992 0.537188 3.83956 0.500005" stroke="var(--stroke-0, white)" stroke-linecap="round" stroke-linejoin="round"/>
<path id="Vector_8" d="M20.5266 8.8557L12.1875 0.5" stroke="var(--stroke-0, white)" stroke-linecap="round" stroke-linejoin="round"/>
<path id="Vector_9" d="M12.1878 5.50896C12.1929 7.16951 13.8642 8.84824 15.5271 8.84824" stroke="var(--stroke-0, white)" stroke-linecap="round" stroke-linejoin="round"/>
<path id="Vector_10" d="M12.1875 5.50893V0.5" stroke="var(--stroke-0, white)" stroke-linecap="round" stroke-linejoin="round"/>
<path id="Vector_11" d="M15.5271 8.8482H20.536" stroke="var(--stroke-0, white)" stroke-linecap="round" stroke-linejoin="round"/>
<path id="Vector_12" d="M3.83956 20.5357H8.84849" stroke="var(--stroke-0, white)" stroke-linecap="round" stroke-linejoin="round"/>
<path id="Vector_13" d="M3.83956 17.1965H12.1878" stroke="var(--stroke-0, white)" stroke-linecap="round" stroke-linejoin="round"/>
<path id="Vector_14" d="M3.83956 13.8572H8.84849" stroke="var(--stroke-0, white)" stroke-linecap="round" stroke-linejoin="round"/>
</g>
</svg>
