<svg preserveAspectRatio="none" width="100%" height="100%" overflow="visible" style="display: block;" viewBox="0 0 24.8501 27.5" fill="none" xmlns="http://www.w3.org/2000/svg">
<g id="Group">
<path id="Vector" d="M15.0747 27H3.68894C3.14016 26.9997 2.60074 26.8579 2.12279 26.5882C1.64483 26.3186 1.24452 25.9302 0.96051 25.4606C0.676504 24.9911 0.518413 24.4562 0.501513 23.9077C0.484614 23.3591 0.609478 22.8155 0.864039 22.3294L7.78716 9.1125V0.5H14.4122V9.1125L17.0622 14.1714M5.79966 0.5H16.3997M5.79966 13.0875H16.3997" stroke="var(--stroke-0, white)" stroke-linecap="round" stroke-linejoin="round"/>
<path id="Vector_2" d="M19.7126 17.725L19.3708 18.6485C18.9229 19.8596 18.699 20.4651 18.2578 20.9063C17.8152 21.3489 17.2097 21.5728 15.9986 22.0206L15.0751 22.3625L15.9986 22.7043C17.2097 23.1522 17.8139 23.3761 18.2564 23.8173C18.699 24.2599 18.9229 24.8654 19.3708 26.0765L19.7126 27L20.0545 26.0765C20.5023 24.8654 20.7262 24.2599 21.1675 23.8187C21.61 23.3761 22.2142 23.1522 23.4266 22.7043L24.3501 22.3625L23.4266 22.0206C22.2155 21.5728 21.61 21.3489 21.1688 20.9076C20.7262 20.4651 20.5023 19.8596 20.0545 18.6485L19.7126 17.725Z" stroke="var(--stroke-0, white)" stroke-linejoin="round"/>
</g>
</svg>
