<svg width="332" height="610" viewBox="0 0 332 610" fill="none" xmlns="http://www.w3.org/2000/svg">
<g clip-path="url(#clip0_1_5274)">
<path d="M76.4558 487.863C78.3455 490.331 81.7926 490.858 84.2624 488.959C86.7323 487.059 87.2681 483.604 85.3783 481.135C85.2672 480.99 85.1494 480.852 85.028 480.72L92.7715 472.154C95.3244 474.539 99.4099 474.933 102.599 472.962C105.822 470.551 106.603 465.832 104.209 462.607L117.514 453.208C119.063 455.416 122.111 455.719 124.006 453.994C124.083 453.942 124.157 453.886 124.23 453.83L137.472 468.297C136.196 469.958 136.203 472.364 137.455 474.217C137.576 474.395 137.706 474.561 137.845 474.715L130.499 482.254C128.284 480.922 125.33 481.024 123.327 482.717C120.301 484.774 119.721 489.142 121.966 491.811C124.012 494.836 128.371 495.405 131.041 493.148C133.235 491.294 134.256 488.15 133.306 485.607L161.468 474.376C161.767 475.366 162.243 476.332 162.901 477.232C165.814 481.213 171.086 481.825 175.069 478.897C175.792 478.366 176.402 477.756 176.903 477.091L180.164 479.751C179.448 481.426 179.712 483.372 180.983 485.033C182.873 487.502 185.965 487.829 188.235 486.286C188.812 485.842 189.27 485.332 189.613 484.781L211.87 491.171C211.474 493.148 211.856 495.266 213.122 496.968C214.227 498.451 215.821 499.413 217.535 499.787L215.701 508.173C214.417 508.002 213.065 508.266 211.982 509.002L212.338 509.202C211.053 510.076 210.324 511.563 210.212 513.101L196.433 513.445C196.388 512.015 195.907 510.575 194.965 509.31C192.564 506.085 188.205 505.516 184.978 507.929C181.779 510.323 181.183 514.638 183.514 517.854L174.395 524.559C172.665 523.046 169.856 522.846 167.911 524.168L167.71 524.525C165.441 526.067 164.905 529.523 166.64 531.435C168.53 533.904 171.621 534.231 173.891 532.688C176.16 531.145 176.695 527.691 175.161 525.421C175.099 525.329 175.032 525.239 174.963 525.152L183.914 518.36C186.37 521.207 190.481 521.622 193.56 519.318C195.327 517.996 196.297 516.087 196.422 514.102L210.214 513.949C210.282 514.844 210.562 515.721 211.068 516.469C212.085 517.974 213.943 518.711 215.638 518.53L218.658 536.277C218.41 536.413 218.167 536.571 217.933 536.751C215.664 538.293 215.128 541.749 216.862 543.661C218.396 545.93 221.845 546.457 224.114 544.914C226.584 543.015 226.918 539.917 225.385 537.648C224.097 535.743 221.461 535.066 219.187 536.022L216.156 518.444C216.824 518.293 217.449 517.99 217.962 517.523C218.421 517.211 218.807 516.82 219.121 516.379L232.859 524.357C232.262 526.555 232.619 529.075 234.107 531.276C235.419 533.039 237.423 534.067 239.531 534.185L241.046 548.256C239.983 548.429 238.936 548.808 237.97 549.405L238.526 549.247C236.851 550.501 235.782 552.475 235.477 554.534L207.008 548.826C208.13 546.779 208.029 544.314 206.519 542.082C204.474 539.056 200.47 538.687 197.8 540.943C194.974 542.644 194.594 546.655 196.639 549.68C198.885 552.349 202.333 552.875 205.359 550.818C205.926 550.339 206.394 549.806 206.764 549.235L235.403 555.234C235.297 556.917 235.707 558.608 236.72 559.969C238.379 562.197 241.142 563.252 243.756 562.896L252.147 594.319C251.852 594.496 251.561 594.688 251.276 594.895C246.537 598.338 245.667 604.89 249.291 609.271C252.715 614.009 258.899 614.664 263.638 611.221C266.607 609.203 268.005 605.702 267.66 602.195L286.753 598.513C286.921 598.928 287.142 599.324 287.422 599.69C288.526 601.132 290.282 601.978 292.084 601.984L293.757 611.231C293.445 611.332 293.145 611.475 292.867 611.664C292.867 611.664 291.064 614.878 292.287 616.034C293.31 617.546 295.49 617.83 297.003 616.802C298.515 615.773 298.806 613.589 297.583 612.433C296.922 611.456 295.779 610.993 294.644 611.064L293.016 601.911C293.988 601.754 294.944 601.34 295.786 600.628C296.829 599.826 297.56 598.682 297.917 597.443L308.464 596.93C308.463 597.403 308.578 597.83 308.889 598.124C309.912 599.637 312.091 599.921 313.604 598.893C315.117 597.864 315.408 595.681 314.385 594.168C313.363 592.655 311.183 592.371 310.026 593.599L309.469 593.755C309.469 593.755 308.72 595.092 308.515 596.351L298.066 596.814C298.341 595.296 298.059 593.699 297.101 592.448C295.211 589.979 291.408 589.253 288.938 591.153L288.738 591.509C286.795 593.004 285.925 595.681 286.562 597.957L267.582 601.59C267.325 599.939 266.679 598.305 265.624 596.845C262.572 592.621 257.328 591.646 252.868 593.921L244.369 562.785C245.322 562.571 246.242 562.164 247.064 561.549C249.28 559.891 250.341 557.141 250.01 554.537L262.941 550.576C263.085 551.102 263.309 551.606 263.617 552.063C265.151 554.332 268.599 554.859 270.868 553.317C273.138 551.774 273.673 548.319 271.783 545.85C270.249 543.581 266.802 543.054 264.888 544.797C263.237 545.919 262.504 548.053 262.817 550.006L249.911 553.954C249.705 552.974 249.297 552.027 248.669 551.184C247.07 549.037 244.446 547.981 241.813 548.167L240.33 534.186C241.824 534.106 243.332 533.565 244.65 532.5C247.877 530.086 248.657 525.36 245.9 521.935C243.499 518.71 238.783 517.941 235.557 520.355C234.439 521.192 233.615 522.306 233.121 523.563L219.539 515.675C220.365 513.991 220.302 511.835 219.234 510.255C218.551 509.245 217.488 508.582 216.32 508.291L218.155 499.894C219.986 500.137 221.9 499.718 223.464 498.547C226.691 496.133 227.472 491.407 225.071 488.182C222.67 484.957 217.954 484.188 214.727 486.602C213.427 487.575 212.524 488.924 212.066 490.398L189.985 484.058C190.678 482.393 190.41 480.467 189.149 478.82C188.611 478.116 187.975 477.588 187.284 477.234L190.844 468.304C192.051 468.705 193.402 468.556 194.447 467.711C196.161 466.326 196.651 463.785 195.273 462.072C193.895 460.36 191.359 459.875 189.646 461.261C189.631 461.288 187.447 465.193 188.82 466.9C189.189 467.358 189.641 467.727 190.138 467.997L186.684 476.976C185.082 476.41 183.266 476.718 181.699 477.923L181.898 477.567C181.261 478.057 180.766 478.626 180.415 479.244L177.25 476.592C179.151 473.647 179.019 469.787 176.764 466.706C174.208 462.924 168.58 462.112 164.597 465.04C161.752 467.132 160.621 470.424 161.268 473.585L133.003 484.943C132.836 484.633 132.637 484.335 132.401 484.055C132.063 483.555 131.661 483.123 131.215 482.759L138.382 475.221C140.037 476.542 142.474 476.545 144.351 475.27C146.62 473.727 146.955 470.63 145.421 468.361C143.887 466.092 140.795 465.765 138.525 467.307C138.255 467.491 138.013 467.697 137.797 467.921L124.543 453.566C125.502 452.681 125.983 451.475 125.973 450.275L139.561 449.428C139.727 450.515 140.106 451.588 140.712 452.574C143.113 455.799 147.828 456.568 151.611 453.997C154.837 451.583 155.617 446.857 153.216 443.631C150.815 440.406 146.1 439.638 142.517 441.852C140.332 443.487 139.27 446.183 139.496 448.866L125.933 449.711C125.818 448.889 125.469 448.096 124.875 447.442C123.673 445.664 121.514 445.078 119.715 445.747L115.676 435.32C116.442 435.053 117.18 434.655 117.852 434.112C121.279 431.341 122.058 426.615 119.301 423.19C117.417 420.85 114.619 419.75 112.006 420.059L110.482 405.679C111.133 405.491 111.767 405.181 112.347 404.735C113.864 403.567 114.574 401.947 114.458 400.299L121.135 400.061C121.083 400.514 121.111 400.952 121.29 401.305C122.157 402.261 123.781 402.703 125.094 402.031C126.05 401.16 126.496 399.533 125.829 398.22C125.162 396.907 123.338 396.822 122.025 397.493C122.017 397.508 121.485 398.461 121.236 399.495L114.388 399.739C114.232 398.891 113.858 398.048 113.261 397.268C112.422 396.171 111.345 395.498 110.191 395.254L110.28 388.631C111.025 388.85 111.86 388.823 112.598 388.446C113.91 387.774 114 385.947 113.333 384.634C112.466 383.678 110.842 383.236 109.529 383.908C109.52 383.925 108.13 386.411 108.794 387.719C109.049 388 109.37 388.237 109.729 388.414L109.639 395.171C108.355 395.053 107.009 395.449 105.809 396.372C103.34 398.272 103.005 401.37 104.895 403.839C105.96 405.415 107.949 406.149 109.892 405.814L111.282 420.181C110.331 420.393 109.419 420.8 108.603 421.41L108.402 421.767C105.919 423.775 104.827 426.81 105.462 429.633L80.6888 436.03C80.5015 435.444 80.2126 434.878 79.8135 434.357C78.6194 432.797 76.803 432.012 75.0047 432.125L73.2062 420.885C73.5207 420.756 73.8223 420.581 74.1017 420.355C75.815 418.969 76.3057 416.428 74.9273 414.716C73.5489 413.004 71.0136 412.52 69.3002 413.905C67.5868 415.29 67.0961 417.831 68.4746 419.544C69.4441 420.748 70.9856 421.344 72.4113 421.11L74.3931 432.2C73.5555 432.349 72.7374 432.698 72.0055 433.261C69.5357 435.16 69.0006 438.615 70.8902 441.084C72.78 443.553 76.2283 444.08 78.6982 442.18C80.466 440.82 81.2412 438.664 80.8468 436.642L105.689 430.423C105.965 431.215 106.382 431.98 106.953 432.689C108.728 435.074 111.963 436.222 114.914 435.54L119.135 446.014C118.853 446.171 118.585 446.362 118.336 446.588C116.539 448.224 115.997 450.564 117.207 452.722L103.781 462.082C101.28 459.297 96.8883 458.727 93.5056 460.817C90.2792 463.231 89.4988 467.957 91.8998 471.182C92.0194 471.343 92.1457 471.497 92.2763 471.645L84.661 480.357C82.7012 478.578 79.7547 478.36 77.571 480.039C75.1012 481.939 74.5659 485.394 76.4558 487.863ZM198.381 648.294C200.426 651.32 204.785 651.889 207.811 649.832C210.837 647.775 211.417 643.407 209.372 640.381C209.106 639.988 208.8 639.637 208.464 639.327L226.959 620.75C227.752 621.163 228.634 621.387 229.541 621.414L231.956 639.805C230.472 640.086 229.038 640.731 227.768 641.786C223.229 644.872 222.359 651.424 225.783 656.162C228.851 660.7 235.39 661.554 240.129 658.112C244.869 654.669 245.739 648.116 242.115 643.735C239.725 640.846 236.153 639.337 232.741 639.689L230.176 621.401C231.2 621.329 232.238 621.009 233.204 620.428C235.674 618.528 236.208 615.073 234.519 612.247C232.629 609.779 229.182 609.252 226.712 611.151L226.597 611.184L213.704 593.081C213.832 592.99 213.959 592.897 214.085 592.799C218.268 589.514 219.293 583.517 216.025 579.336C212.757 575.155 206.774 574.144 202.59 577.429C201.631 578.182 200.84 579.078 200.227 580.062L187.435 572.42C190.191 569.943 190.58 565.887 188.316 562.846C185.915 559.62 181.554 559.051 178.328 561.465C175.101 563.879 174.522 568.248 176.923 571.473C179.285 574.646 183.54 575.246 186.749 572.967L199.817 580.781C198.172 583.974 198.31 587.898 200.649 590.891C203.65 594.73 208.938 595.893 213.021 593.516L226.034 611.407C223.67 613.326 223.183 616.705 225.041 619.132C225.469 619.691 225.976 620.149 226.538 620.506L207.833 638.819C205.575 637.234 202.34 637.213 199.942 638.844C196.915 640.901 196.335 645.269 198.381 648.294Z" fill="#53AABF" fill-opacity="0.5"/>
</g>
<defs>
<clipPath id="clip0_1_5274">
<rect width="332" height="610" fill="white"/>
</clipPath>
</defs>
</svg>
