<svg width="873" height="473" viewBox="0 0 873 473" fill="none" xmlns="http://www.w3.org/2000/svg">
<g clip-path="url(#clip0_1_1159)">
<path d="M190.609 -23.266C185.96 -17.3721 186.784 -8.99143 192.701 -4.34596C198.619 0.299392 207.022 -0.50897 211.67 -6.40257C211.944 -6.74937 212.198 -7.10576 212.434 -7.4685L237.089 5.53472C233.031 12.93 234.551 22.7255 241.064 29.0104C248.629 35.1136 260.136 34.128 266.254 26.6052L296.173 52.122C291.933 57.0634 293.043 64.3772 298.208 67.7804C298.378 67.9307 298.551 68.0743 298.727 68.2119L272.776 107.819C268.131 105.824 262.506 107.273 258.918 111.31C258.573 111.698 258.261 112.101 257.983 112.517L235.965 99.8307C237.762 93.8546 235.761 87.0026 230.604 83.3247C223.987 77.4719 213.42 78.7197 208.516 85.5651C202.657 92.1547 203.927 102.694 210.799 107.596C216.445 111.623 224.413 112.139 229.796 108.399L272.866 167.585C270.728 168.875 268.752 170.567 267.04 172.643C259.462 181.832 261.177 194.53 270.403 202.102C272.077 203.476 273.868 204.543 275.721 205.318L271.446 214.53C267.101 213.852 262.704 215.632 259.575 219.599C254.926 225.493 256.005 232.921 260.968 237.311C262.351 238.397 263.818 239.17 265.313 239.643L263.637 295.523C258.776 295.776 254.047 297.931 250.822 301.909C248.01 305.378 246.707 309.683 246.855 313.915L226.142 314.627C225.777 311.521 224.353 308.516 221.984 306.421L221.73 307.373C218.919 304.887 215.005 304.068 211.341 304.723L202.319 272.695C205.637 271.737 208.719 269.749 211.116 266.792C217.23 259.25 215.961 248.711 208.389 242.602C200.881 236.545 190.43 237.722 184.294 245.093L163.175 227.763C165.683 222.814 164.472 216.119 160.217 212.356L159.262 212.1C154.299 207.71 145.896 208.518 142.457 213.717C137.808 219.61 138.888 227.039 143.851 231.429C148.814 235.818 157.216 235.01 161.61 230.068C161.79 229.866 161.959 229.657 162.122 229.444L183.347 246.332C178.151 253.775 179.637 263.642 186.863 269.473C191.01 272.818 196.054 273.955 200.774 273.063L209.357 305.234C207.304 305.927 205.419 307.105 203.97 308.734C201.056 312.011 200.439 316.8 201.874 320.657L162.159 338.309C161.689 337.808 161.174 337.334 160.613 336.894C155.65 332.504 147.249 333.313 143.809 338.511C139.416 343.454 140.239 351.834 145.202 356.223C151.12 360.869 158.568 359.804 162.962 354.862C166.649 350.714 166.661 344.144 163.071 339.393L202.383 321.821C203.134 323.293 204.218 324.571 205.618 325.494C206.621 326.381 207.764 327.055 208.985 327.526L198.514 364.42C193.014 364.334 187.33 366.674 183.068 371.468C179.726 375.59 178.514 380.893 179.494 385.893L147.486 397.829C146.446 395.447 144.932 393.223 142.96 391.32L143.66 392.527C139.728 389.355 134.473 388.029 129.475 388.543L125.847 318.54C131.304 319.945 137.013 318.232 141.336 313.369C147.194 306.78 145.67 297.192 138.798 292.291C133.135 286.694 123.523 288.198 117.665 294.787C112.761 301.633 113.585 310.014 120.202 315.866C121.661 316.906 123.188 317.688 124.745 318.213L127.79 388.787C123.791 389.543 120.078 391.514 117.498 394.697C113.274 399.908 112.453 407.004 114.847 412.908L46.3359 451.276C45.745 450.692 45.1223 450.127 44.4678 449.584C33.587 440.549 17.7369 442.421 9.64873 453.513C0.605954 464.349 2.76417 479.207 13.6448 488.242C20.1365 493.984 29.1615 495.167 37.1594 492.269L57.1598 534.741C56.2907 535.38 55.4983 536.136 54.8094 537.009C52.0944 540.451 51.1592 545.066 52.2196 549.286L31.5853 558.713C31.1636 558.045 30.6469 557.428 30.0395 556.891C29.9809 556.875 21.4416 554.601 19.4734 558.139C16.5442 561.434 17.178 566.704 20.4864 569.63C23.7951 572.557 29.0793 571.932 31.0539 568.382C32.9457 566.254 33.3491 563.302 32.5075 560.69L52.9479 551.425C53.8955 553.605 55.4342 555.591 57.6011 557.137C60.1007 559.099 63.2144 560.133 66.3273 560.23L73.8166 584.592C72.708 584.872 71.7769 585.396 71.2745 586.3C68.3455 589.595 68.9803 594.864 72.2889 597.791C75.5976 600.717 80.8809 600.093 83.8101 596.798C86.7394 593.503 86.1046 588.233 82.5409 586.258L81.842 585.051C81.842 585.051 78.2686 584.095 75.2012 584.367L67.8853 560.199C71.6008 559.938 75.1683 558.324 77.5252 555.336C82.1741 549.442 81.6053 540.11 75.6878 535.464L74.7327 535.208C70.0783 531.554 63.2961 531.117 58.3506 533.964L38.5294 491.729C42.239 490.141 45.6754 487.654 48.4638 484.313C56.5241 474.654 55.6857 461.8 47.7029 452.722L115.47 414.273C116.539 416.374 118.041 418.281 119.97 419.837C125.172 424.033 132.237 424.879 138.133 422.552L155.115 450.44C153.968 451.091 152.921 451.914 152.038 452.908C147.644 457.85 148.467 466.231 153.43 470.621C158.393 475.01 166.797 474.202 171.446 468.308C175.839 463.365 175.014 454.985 169.796 451.547C166.186 448.354 160.757 447.914 156.373 449.812L139.439 421.973C141.61 420.906 143.578 419.384 145.177 417.412C149.247 412.392 150.158 405.622 148.153 399.573L179.972 387.767C181.051 391.213 183.217 394.418 186.495 396.864C194.067 402.973 205.589 401.981 211.957 393.488C218.071 385.946 217.057 374.455 209.486 368.347C206.861 366.23 203.762 364.965 200.528 364.56L210.883 328.081C215.315 329.008 220.318 327.575 223.378 324.133C225.334 321.933 226.253 319.052 226.236 316.144L246.97 315.431C247.493 319.86 249.622 324.088 253.294 327.05C260.866 333.159 272.387 332.166 278.501 324.625C284.615 317.083 283.602 305.592 276.03 299.484C272.977 297.021 269.283 295.713 265.561 295.522L267.225 240.083C271.533 240.712 275.88 238.931 278.982 234.998C280.306 233.32 281.164 231.517 281.58 229.689L304.595 232.691C304.378 235.756 305.531 238.828 308.132 240.769C312.395 243.951 318.634 243.582 321.818 239.336C325.002 235.09 324.622 228.868 320.359 225.686C320.285 225.666 309.846 222.887 306.673 227.119C305.821 228.255 305.227 229.532 304.891 230.855L281.827 228.132C282.195 224.047 280.389 219.978 276.634 217.03L277.589 217.286C276.063 216.088 274.434 215.27 272.779 214.817L277.093 205.834C285.119 208.526 294.072 205.91 299.938 198.797C307.261 190.56 305.803 176.91 296.577 169.338C289.986 163.93 281.608 163.246 274.597 166.645L231.171 107.296C231.795 106.72 232.372 106.074 232.887 105.355C233.855 104.267 234.626 103.069 235.211 101.808L257.116 114.078C255.015 118.738 256.464 124.442 260.566 128.07C265.529 132.459 272.976 131.395 277.37 126.453C281.764 121.51 280.685 114.082 275.722 109.692C275.131 109.17 274.505 108.725 273.853 108.354L299.531 68.7856C302.172 70.5002 305.283 70.9054 308.083 70.1674L318.168 101.451C315.723 102.486 313.441 104.014 311.496 106.019C305.382 113.56 306.396 125.051 314.668 132.367C322.24 138.476 333.761 137.483 339.875 129.942C345.988 122.4 344.974 110.909 337.657 103.849C332.528 99.7111 325.587 98.8323 319.445 100.96L309.378 69.7372C311.234 68.9795 312.881 67.6863 314.058 65.9076C317.5 62.0358 317.584 56.6373 314.95 52.8277L336.93 37.1591C338.012 38.7922 339.384 40.2755 341.056 41.5238C349.583 47.8881 361.104 46.8954 367.472 38.4025C371.825 32.5985 372.729 25.3944 370.448 19.4647L403.179 7.32677C404.005 8.73592 405.113 10.0327 406.502 11.1231C410.139 13.9775 414.352 14.6747 418.14 13.4216L422.677 28.8942C421.587 29.0418 420.578 29.3719 419.859 30.0018C418.14 32.6008 418.075 36.6631 420.429 39.3336C423.038 41.0526 427.112 41.1241 429.786 38.7809C432.46 36.4376 431.57 32.1196 429.216 29.449C429.199 29.4445 426.642 28.7618 424.062 28.7962L419.407 12.9219C421.298 12.0517 423.048 10.6722 424.517 8.80968C426.581 6.19207 427.515 3.27172 427.398 0.426945L442.948 -3.31635C442.879 -1.4441 443.438 0.494932 444.76 1.99499C447.114 4.66533 451.442 3.78496 454.117 1.44179C455.836 -1.15725 455.902 -5.21909 453.548 -7.88961C453.548 -7.88961 446.865 -9.68 444.191 -7.33689C443.685 -6.57167 443.322 -5.67955 443.122 -4.7335L427.265 -0.916362C426.775 -3.9903 425.042 -6.90258 422.169 -9.15837C416.251 -13.8038 408.804 -12.7394 404.155 -6.84581C401.103 -3.41302 400.569 1.67829 402.51 6.02481L369.73 17.847C368.668 15.7472 367.171 13.8558 365.255 12.3098L364.301 12.0543C358.121 7.44138 350.367 6.6935 344.143 9.86476L314.404 -44.2745C315.662 -45.0622 316.812 -46.0791 317.794 -47.324C320.732 -51.0483 321.483 -55.7648 320.146 -59.905L345.371 -70.816C345.861 -70.1573 346.451 -69.5566 347.146 -69.0377C351.409 -65.8555 357.647 -66.2235 360.831 -70.4699C364.016 -74.7163 363.636 -80.9373 359.373 -84.1196C355.11 -87.3018 348.872 -86.9337 345.688 -82.6874C343.448 -79.7003 342.973 -75.737 344.372 -72.5407L319.611 -61.2921C318.761 -63.1626 317.455 -64.8667 315.701 -66.2432C309.783 -70.8886 301.382 -70.08 296.733 -64.1861C292.084 -58.2924 292.908 -49.9129 298.825 -45.2674C303.062 -41.9418 308.571 -41.4119 313.065 -43.5411L342.428 10.8648C340.741 11.9812 339.202 13.4174 337.884 15.175C333.362 20.7525 332.602 29.0102 335.961 35.5079L313.977 51.6278C313.441 51.0601 312.833 50.5457 312.155 50.0987C307.255 46.8707 301.457 46.9978 297.13 51.1163L267.224 25.2892C272.25 17.777 270.963 7.16003 264.053 0.492884C256.481 -5.61561 244.96 -4.62284 238.846 2.91841C238.541 3.29453 238.254 3.68037 237.984 4.07511L213.065 -8.54192C216.059 -14.1886 214.81 -21.2152 209.578 -25.3226C203.66 -29.9681 195.257 -29.1599 190.609 -23.266ZM-112.016 357.677C-117.874 364.267 -116.605 374.807 -109.988 380.66C-103.371 386.513 -92.8036 385.264 -86.9451 378.674C-86.1836 377.817 -85.5439 376.894 -85.0194 375.923L-30.5249 408.113C-31.019 410.216 -31.0163 412.412 -30.5385 414.551L-72.1201 431.168C-73.6642 427.862 -76.0334 424.892 -79.2598 422.55C-89.186 413.771 -105.036 415.644 -114.079 426.48C-122.867 436.364 -120.963 452.174 -110.083 461.209C-99.202 470.244 -83.352 468.371 -75.2637 457.279C-69.9294 449.964 -68.5266 440.708 -71.3839 432.934L-30.1321 416.025C-29.3525 418.378 -27.9828 420.617 -26.0472 422.53C-20.1295 427.175 -11.7274 426.367 -6.12391 420.729C-1.47516 414.835 -2.29952 406.455 -8.2172 401.809L-8.36073 401.562L26.3023 360.6C26.5904 360.845 26.8861 361.086 27.1901 361.32C37.3712 369.147 52.0111 367.97 59.8442 357.83C67.6774 347.689 66.4741 333.088 56.293 325.26C53.9593 323.466 51.3908 322.146 48.7242 321.297L58.9723 286.819C66.4113 291.789 76.1333 290.274 81.8975 283.164C88.011 275.622 86.7419 265.083 79.1698 258.974C71.5978 252.866 61.0313 254.114 54.9178 261.656C48.9035 269.075 50.0342 279.395 57.2825 285.544L46.7984 320.77C38.3457 318.824 29.2468 321.489 23.6381 328.75C16.4463 338.06 16.8734 351.13 24.8712 359.266L-9.2186 400.372C-15.1171 395.986 -23.3146 396.864 -27.8852 402.659C-28.9374 403.993 -29.7087 405.454 -30.2076 406.982L-84.2056 374.144C-81.8433 367.916 -83.7274 360.332 -88.9731 355.692C-95.5904 349.84 -106.157 351.088 -112.016 357.677Z" fill="#53AABF" fill-opacity="0.2"/>
</g>
<defs>
<clipPath id="clip0_1_1159">
<rect width="873" height="473" rx="10" fill="white"/>
</clipPath>
</defs>
</svg>
