<svg preserveAspectRatio="none" width="100%" height="100%" overflow="visible" style="display: block;" viewBox="0 0 235.59 286" fill="none" xmlns="http://www.w3.org/2000/svg">
<path id="Union" d="M227.28 0C229.749 0 231.628 2.21489 231.226 4.65104L201.869 182.618C201.467 185.054 203.347 187.269 205.816 187.269H231.59C234.056 187.269 235.935 189.479 235.537 191.913L228.934 232.371C228.618 234.306 226.947 235.727 224.986 235.727H196.503C194.545 235.727 192.875 237.144 192.556 239.076L185.368 282.651C185.05 284.583 183.379 286 181.422 286H132.091C129.62 286 127.739 283.781 128.146 281.342L134.972 240.384C135.379 237.946 133.498 235.727 131.027 235.727H4.00096C1.5347 235.727 -0.344017 233.516 0.0531664 231.082L6.89775 189.137C7.00797 188.461 7.28966 187.825 7.71587 187.29L155.586 1.50898C156.344 0.555513 157.497 0 158.715 0H227.28ZM163.162 65.9141C162.729 65.9141 162.319 66.1122 162.05 66.452L68.397 184.684C68.2155 184.913 68.1005 185.188 68.0645 185.478C67.9464 186.429 68.6884 187.269 69.6469 187.269H141.508C143.467 187.269 145.138 185.85 145.455 183.917L164.563 67.5631C164.705 66.6991 164.038 65.9141 163.162 65.9141Z" fill="url(#paint0_linear_0_40)"/>
<defs>
<linearGradient id="paint0_linear_0_40" x1="235.591" y1="209" x2="0.000220408" y2="207.024" gradientUnits="userSpaceOnUse">
<stop stop-color="#26668C"/>
<stop offset="1" stop-color="#55ACBF"/>
</linearGradient>
</defs>
</svg>
