<svg width="446" height="2833" viewBox="0 0 446 2833" fill="none" xmlns="http://www.w3.org/2000/svg">
<path d="M113.65 211.857C116.064 217.913 122.726 220.933 128.79 218.499C134.855 216.065 137.895 209.393 135.481 203.337C135.339 202.981 135.18 202.636 135.009 202.301L155.498 189.403C159.299 195.667 167.327 198.778 174.884 196.608C182.76 193.568 187.016 184.484 184.014 176.616L216.202 165.191C218.077 170.527 224.058 172.869 228.862 170.462C229.049 170.399 229.232 170.331 229.412 170.258L247.936 206.98C244.417 209.607 243.063 214.467 244.54 218.919C244.682 219.347 244.854 219.754 245.046 220.144L225.939 231.198C222.224 227.251 216.201 225.781 211.196 228.063C203.919 230.499 200.27 238.988 203.289 245.65C205.702 252.918 214.18 256.541 220.852 253.5C226.333 251.002 230.18 245.233 229.704 239.56L292.928 232.866C292.97 235.035 293.385 237.255 294.203 239.445C297.823 249.135 308.119 253.361 317.822 249.709C319.583 249.047 321.163 248.162 322.55 247.105L327.625 254.324C325.229 257.298 324.656 261.376 326.281 265.452C328.695 271.509 334.752 273.923 340.209 272.096C341.626 271.528 342.842 270.758 343.847 269.839L385.154 295.369C383.233 299.135 382.8 303.628 384.391 307.781C385.779 311.403 388.452 314.253 391.7 315.979L383.24 331.868C380.745 330.794 377.867 330.559 375.262 331.431L375.867 332.037C372.777 333.071 370.461 335.66 369.363 338.7L341.353 331.577C342.074 328.665 341.917 325.483 340.734 322.396C337.716 314.523 329.237 310.9 321.354 313.943C313.538 316.96 309.883 325.332 312.763 333.149L290.554 341.508C287.921 337.473 282.361 335.475 277.683 337.041L277.077 337.649C271.62 339.476 268.578 346.147 270.994 350.991C273.409 357.047 279.466 359.462 284.923 357.635C290.38 355.808 293.421 349.136 291.612 343.685C291.538 343.463 291.454 343.245 291.364 343.031L313.285 334.399C316.628 341.539 324.694 344.707 332.218 341.803C336.535 340.136 339.581 336.836 340.96 332.899L368.886 340.415C368.515 342.26 368.582 344.189 369.179 345.986C370.378 349.601 373.712 352.144 377.237 352.74L373.267 390.281C372.686 390.416 372.106 390.597 371.531 390.827C366.074 392.654 363.033 399.326 365.45 404.17C367.259 409.621 373.921 412.641 379.378 410.814C385.442 408.38 387.876 402.316 386.067 396.864C384.548 392.289 379.611 389.428 374.478 390.065L378.333 352.859C379.767 352.934 381.199 352.677 382.501 352.025C383.603 351.656 384.605 351.087 385.49 350.373L408.695 374.273C406.242 378.372 405.535 383.664 407.29 388.952C408.939 393.256 412.401 396.47 416.588 397.904L411.666 427.164C409.422 426.912 407.091 427.084 404.803 427.741L406.016 427.739C401.922 429.319 398.643 432.696 396.858 436.679L342.626 409.005C346.052 405.511 347.245 400.475 345.464 395.111C343.052 387.843 335.178 384.826 328.508 387.866C321.838 389.695 318.795 397.579 321.207 404.847C324.227 411.508 330.889 414.528 338.166 412.093C339.581 411.447 340.83 410.636 341.901 409.693L396.311 438.053C395.142 441.389 395.013 445.037 396.286 448.36C398.371 453.8 403.352 457.5 408.833 458.263L407.94 526.458C407.244 526.649 406.549 526.873 405.856 527.129C394.335 531.39 388.86 544.126 393.691 555.026C397.914 566.534 410.027 571.362 421.548 567.102C428.687 564.712 433.496 558.438 434.79 551.163L475.421 554.563C475.525 555.495 475.749 556.419 476.107 557.317C477.517 560.854 480.582 563.56 484.216 564.595L482.347 584.211C481.661 584.238 480.973 584.359 480.305 584.582C480.256 584.632 474.851 590.058 476.656 593.072C477.862 596.706 482.101 598.517 485.739 597.299C489.377 596.081 491.202 591.837 489.389 588.81C488.61 586.462 486.565 584.876 484.234 584.375L486.142 564.978C488.193 565.211 490.356 564.917 492.459 563.958C495.02 562.93 497.147 561.035 498.571 558.736L520.154 563.684C519.883 564.639 519.872 565.567 520.333 566.337C521.539 569.971 525.779 571.782 529.417 570.564C533.055 569.346 534.88 565.101 533.674 561.467C532.468 557.833 528.229 556.022 525.196 557.845L523.983 557.847C523.977 557.853 521.711 560.122 520.585 562.544L499.227 557.551C500.644 554.643 500.98 551.259 499.756 548.189C497.342 542.133 490.076 538.508 484.012 540.942L483.405 541.549C478.635 543.463 475.36 548.374 475.354 553.331L434.978 549.898C435.395 546.418 435.016 542.753 433.714 539.204C429.949 528.947 419.916 523.996 409.621 526.059L410.13 458.387C412.174 458.496 414.261 458.194 416.27 457.418C421.685 455.328 425.389 450.381 426.199 444.936L454.551 444.274C454.542 445.419 454.708 446.564 455.072 447.66C456.881 453.112 463.543 456.131 469 454.304C474.457 452.477 477.497 445.807 475.083 439.75C473.274 434.299 466.612 431.279 461.76 433.711C457.79 435.04 455.102 438.933 454.626 443.054L426.331 443.702C426.471 441.606 426.182 439.464 425.393 437.405C423.384 432.164 418.687 428.539 413.267 427.42L418.204 398.36C421.265 399.045 424.617 398.807 427.881 397.404C435.764 394.361 440.021 385.264 436.398 376.785C433.381 368.912 424.297 364.684 416.414 367.726C413.682 368.781 411.385 370.562 409.676 372.819L386.733 349.189C389.356 346.257 390.45 341.871 389.19 338.075C388.384 335.648 386.617 333.706 384.422 332.456L392.89 316.55C396.449 318.08 400.554 318.314 404.376 316.839C412.259 313.796 416.516 304.698 413.498 296.825C410.481 288.952 401.397 284.724 393.514 287.767C390.336 288.993 387.748 291.204 385.988 293.921L345.008 268.592C347.352 265.625 347.903 261.583 346.293 257.542C345.605 255.817 344.621 254.388 343.426 253.282L355.679 237.273C357.89 238.767 360.701 239.235 363.291 238.121C367.536 236.296 369.968 231.445 368.157 227.205C366.346 222.966 361.502 220.55 357.257 222.375C357.257 222.375 350.579 229.052 352.39 233.291C352.875 234.425 353.578 235.427 354.427 236.254L342.361 252.422C339.448 250.371 335.605 249.96 331.757 251.505L332.364 250.897C330.8 251.525 329.479 252.396 328.419 253.445L323.534 246.297C329.044 241.43 330.964 233.559 328.161 226.057C325.146 216.972 314.246 212.142 304.543 215.793C297.613 218.401 293.461 224.406 292.973 231.156L229.472 238.046C229.31 237.327 229.075 236.612 228.758 235.913C228.359 234.712 227.794 233.611 227.1 232.623L245.843 221.474C248.435 225.079 253.353 226.468 257.864 224.958C263.321 223.132 265.755 217.067 263.945 211.615C262.136 206.164 256.08 203.75 250.623 205.577C249.973 205.794 249.367 206.073 248.805 206.402L230.191 169.902C232.628 168.66 234.286 166.498 234.946 164.071L262.857 170.07C262.574 172.358 262.732 174.738 263.395 177.072C266.412 184.946 275.496 189.174 284.591 186.129C292.474 183.086 296.731 173.989 293.714 166.116C290.696 158.242 281.613 154.014 273.124 156.452C267.784 158.513 264.108 163.353 263.041 168.897L235.185 162.909C235.421 161.185 235.163 159.384 234.337 157.726C232.919 153.456 228.895 151.049 224.885 151.377L222.645 128.038C224.343 127.934 226.054 127.546 227.72 126.83C236.21 123.18 240.467 114.083 236.844 105.605C234.368 99.8102 229.342 96.002 223.891 95.1423L228.976 65.2474C230.394 65.2379 231.851 64.9708 233.274 64.3996C237.001 62.904 239.352 60.0363 240.054 56.6432L253.666 59.9502C253.304 60.8344 253.114 61.7365 253.275 62.5506C254.484 64.9728 257.512 66.7859 260.543 66.175C262.969 64.959 264.791 61.9258 264.19 58.8968C263.589 55.8677 259.955 54.6611 256.924 55.2719C256.924 55.2719 255.292 56.9043 254.194 58.8663L240.23 55.4736C240.397 53.673 240.12 51.7583 239.357 49.8444C238.285 47.1549 236.494 45.1852 234.303 44.0378L238.241 30.7149C239.619 31.5798 241.32 32.0012 243.023 31.6582C246.054 31.0473 247.273 27.4094 246.672 24.3802C245.464 21.9581 242.436 20.145 239.404 20.7558C239.367 20.7929 235.159 25.0183 235.757 28.0341C236.113 28.7469 236.626 29.4061 237.251 29.9671L233.234 43.5569C230.709 42.5904 227.767 42.6262 224.823 43.808C218.759 46.2419 216.324 52.306 218.739 58.3623C219.995 62.1486 223.594 64.7591 227.706 65.1866L222.363 94.9794C220.322 94.8671 218.25 95.1706 216.255 95.9406L215.648 96.548C209.494 99.1935 205.565 104.701 205.247 110.76L151.608 109.617C151.562 108.328 151.298 107.022 150.788 105.742C149.262 101.915 146.041 99.3031 142.346 98.5109L145.093 74.797C145.802 74.7145 146.51 74.5322 147.202 74.2346C151.447 72.4098 153.879 67.5579 152.068 63.3188C150.257 59.0795 145.412 56.6635 141.167 58.4884C136.922 60.3133 134.49 65.165 136.301 69.4042C137.575 72.386 140.35 74.4625 143.361 74.799L141.069 98.3132C139.294 98.1397 137.445 98.3787 135.648 99.0997C129.584 101.534 126.543 108.205 128.958 114.261C131.372 120.317 138.033 123.336 144.097 120.903C148.438 119.161 151.229 115.248 151.579 110.943L205.255 112.483C205.362 114.237 205.774 116.018 206.524 117.773C208.755 123.596 214.636 127.755 220.982 128.051L223.56 151.588C222.901 151.744 222.25 151.977 221.619 152.293C217.064 154.576 214.64 158.993 215.858 164.035L183.445 175.313C179.977 168.271 171.432 164.629 163.417 166.931C155.534 169.974 151.277 179.071 154.295 186.945C154.445 187.337 154.61 187.721 154.789 188.095L134.475 201.361C131.528 196.657 125.702 194.543 120.34 196.695C114.277 199.129 111.236 205.801 113.65 211.857ZM268.77 604.92C271.182 612.189 279.661 615.812 286.937 613.376C294.213 610.94 297.862 602.45 295.45 595.182C295.137 594.237 294.72 593.354 294.217 592.538L342.095 565.529C343.462 566.814 345.116 567.764 346.932 568.334L341.373 606.827C338.216 606.553 334.953 607.045 331.79 608.455C320.876 612.108 315.401 624.845 319.625 636.352C323.244 647.255 335.962 652.688 347.483 648.428C359.004 644.167 364.479 631.432 359.649 620.531C356.463 613.342 350.11 608.267 343.021 607.04L348.217 568.669C350.326 569.104 352.604 569.046 354.884 568.421C360.948 565.987 363.989 559.316 362.182 552.652C359.767 546.596 353.105 543.577 347.041 546.01L346.793 546.01L331.034 502.149C331.344 502.039 331.654 501.921 331.962 501.794C342.271 497.536 347.743 486.012 343.518 475.717C339.292 465.421 327.786 459.984 317.477 464.243C315.114 465.219 313.004 466.578 311.208 468.215L289.725 445.534C296.694 442.097 299.777 434.127 296.932 426.703C293.914 418.83 285.436 415.206 277.553 418.249C269.67 421.292 266.02 429.782 269.037 437.656C272.006 445.402 280.261 449.034 288.034 446.251L309.977 469.434C304.842 474.947 302.895 482.949 305.921 490.321C309.801 499.774 319.817 505.129 329.41 502.646L345.526 546.142C339.665 548.674 336.765 555.22 339.138 561.174C339.685 562.545 340.451 563.759 341.384 564.797L293.232 591.154C289.573 586.672 283.051 584.795 277.283 586.726C270.007 589.162 266.357 597.652 268.77 604.92Z" fill="#53AABF" fill-opacity="0.1"/>
<path d="M113.65 2350.86C116.064 2356.91 122.726 2359.93 128.79 2357.5C134.855 2355.06 137.895 2348.39 135.481 2342.34C135.339 2341.98 135.18 2341.64 135.009 2341.3L155.498 2328.4C159.299 2334.67 167.327 2337.78 174.884 2335.61C182.76 2332.57 187.016 2323.48 184.014 2315.62L216.202 2304.19C218.077 2309.53 224.058 2311.87 228.862 2309.46C229.049 2309.4 229.232 2309.33 229.412 2309.26L247.936 2345.98C244.417 2348.61 243.063 2353.47 244.54 2357.92C244.682 2358.35 244.854 2358.75 245.046 2359.14L225.939 2370.2C222.224 2366.25 216.201 2364.78 211.196 2367.06C203.919 2369.5 200.27 2377.99 203.289 2384.65C205.702 2391.92 214.18 2395.54 220.852 2392.5C226.333 2390 230.18 2384.23 229.704 2378.56L292.928 2371.87C292.97 2374.03 293.385 2376.26 294.203 2378.44C297.823 2388.14 308.119 2392.36 317.822 2388.71C319.583 2388.05 321.163 2387.16 322.55 2386.1L327.625 2393.32C325.229 2396.3 324.656 2400.38 326.281 2404.45C328.695 2410.51 334.752 2412.92 340.209 2411.1C341.626 2410.53 342.842 2409.76 343.847 2408.84L385.154 2434.37C383.233 2438.13 382.8 2442.63 384.391 2446.78C385.779 2450.4 388.452 2453.25 391.7 2454.98L383.24 2470.87C380.745 2469.79 377.867 2469.56 375.262 2470.43L375.867 2471.04C372.777 2472.07 370.461 2474.66 369.363 2477.7L341.353 2470.58C342.074 2467.67 341.917 2464.48 340.734 2461.4C337.716 2453.52 329.237 2449.9 321.354 2452.94C313.538 2455.96 309.883 2464.33 312.763 2472.15L290.554 2480.51C287.921 2476.47 282.361 2474.48 277.683 2476.04L277.077 2476.65C271.62 2478.48 268.578 2485.15 270.994 2489.99C273.409 2496.05 279.466 2498.46 284.923 2496.63C290.38 2494.81 293.421 2488.14 291.612 2482.69C291.538 2482.46 291.454 2482.24 291.364 2482.03L313.285 2473.4C316.628 2480.54 324.694 2483.71 332.218 2480.8C336.535 2479.14 339.581 2475.84 340.96 2471.9L368.886 2479.41C368.515 2481.26 368.582 2483.19 369.179 2484.99C370.378 2488.6 373.712 2491.14 377.237 2491.74L373.267 2529.28C372.686 2529.42 372.106 2529.6 371.531 2529.83C366.074 2531.65 363.033 2538.33 365.45 2543.17C367.259 2548.62 373.921 2551.64 379.378 2549.81C385.442 2547.38 387.876 2541.32 386.067 2535.86C384.548 2531.29 379.611 2528.43 374.478 2529.07L378.333 2491.86C379.767 2491.93 381.199 2491.68 382.501 2491.02C383.603 2490.66 384.605 2490.09 385.49 2489.37L408.695 2513.27C406.242 2517.37 405.535 2522.66 407.29 2527.95C408.939 2532.26 412.401 2535.47 416.588 2536.9L411.666 2566.16C409.422 2565.91 407.091 2566.08 404.803 2566.74L406.016 2566.74C401.922 2568.32 398.643 2571.7 396.858 2575.68L342.626 2548.01C346.052 2544.51 347.245 2539.48 345.464 2534.11C343.052 2526.84 335.178 2523.83 328.508 2526.87C321.838 2528.7 318.795 2536.58 321.207 2543.85C324.227 2550.51 330.889 2553.53 338.166 2551.09C339.581 2550.45 340.83 2549.64 341.901 2548.69L396.311 2577.05C395.142 2580.39 395.013 2584.04 396.286 2587.36C398.371 2592.8 403.352 2596.5 408.833 2597.26L407.94 2665.46C407.244 2665.65 406.549 2665.87 405.856 2666.13C394.335 2670.39 388.86 2683.13 393.691 2694.03C397.914 2705.53 410.027 2710.36 421.548 2706.1C428.687 2703.71 433.496 2697.44 434.79 2690.16L475.421 2693.56C475.525 2694.49 475.749 2695.42 476.107 2696.32C477.517 2699.85 480.582 2702.56 484.216 2703.6L482.347 2723.21C481.661 2723.24 480.973 2723.36 480.305 2723.58C480.256 2723.63 474.851 2729.06 476.656 2732.07C477.862 2735.71 482.101 2737.52 485.739 2736.3C489.377 2735.08 491.202 2730.84 489.389 2727.81C488.61 2725.46 486.565 2723.88 484.234 2723.38L486.142 2703.98C488.193 2704.21 490.356 2703.92 492.459 2702.96C495.02 2701.93 497.147 2700.04 498.571 2697.74L520.154 2702.68C519.883 2703.64 519.872 2704.57 520.333 2705.34C521.539 2708.97 525.779 2710.78 529.417 2709.56C533.055 2708.35 534.88 2704.1 533.674 2700.47C532.468 2696.83 528.229 2695.02 525.196 2696.84L523.983 2696.85C523.977 2696.85 521.711 2699.12 520.585 2701.54L499.227 2696.55C500.644 2693.64 500.98 2690.26 499.756 2687.19C497.342 2681.13 490.076 2677.51 484.012 2679.94L483.405 2680.55C478.635 2682.46 475.36 2687.37 475.354 2692.33L434.978 2688.9C435.395 2685.42 435.016 2681.75 433.714 2678.2C429.949 2667.95 419.916 2663 409.621 2665.06L410.13 2597.39C412.174 2597.5 414.261 2597.19 416.27 2596.42C421.685 2594.33 425.389 2589.38 426.199 2583.94L454.551 2583.27C454.542 2584.42 454.708 2585.56 455.072 2586.66C456.881 2592.11 463.543 2595.13 469 2593.3C474.457 2591.48 477.497 2584.81 475.083 2578.75C473.274 2573.3 466.612 2570.28 461.76 2572.71C457.79 2574.04 455.102 2577.93 454.626 2582.05L426.331 2582.7C426.471 2580.61 426.182 2578.46 425.393 2576.41C423.384 2571.16 418.687 2567.54 413.267 2566.42L418.204 2537.36C421.265 2538.04 424.617 2537.81 427.881 2536.4C435.764 2533.36 440.021 2524.26 436.398 2515.79C433.381 2507.91 424.297 2503.68 416.414 2506.73C413.682 2507.78 411.385 2509.56 409.676 2511.82L386.733 2488.19C389.356 2485.26 390.45 2480.87 389.19 2477.07C388.384 2474.65 386.617 2472.71 384.422 2471.46L392.89 2455.55C396.449 2457.08 400.554 2457.31 404.376 2455.84C412.259 2452.8 416.516 2443.7 413.498 2435.82C410.481 2427.95 401.397 2423.72 393.514 2426.77C390.336 2427.99 387.748 2430.2 385.988 2432.92L345.008 2407.59C347.352 2404.63 347.903 2400.58 346.293 2396.54C345.605 2394.82 344.621 2393.39 343.426 2392.28L355.679 2376.27C357.89 2377.77 360.701 2378.23 363.291 2377.12C367.536 2375.3 369.968 2370.44 368.157 2366.21C366.346 2361.97 361.502 2359.55 357.257 2361.37C357.257 2361.37 350.579 2368.05 352.39 2372.29C352.875 2373.42 353.578 2374.43 354.427 2375.25L342.361 2391.42C339.448 2389.37 335.605 2388.96 331.757 2390.5L332.364 2389.9C330.8 2390.53 329.479 2391.4 328.419 2392.44L323.534 2385.3C329.044 2380.43 330.964 2372.56 328.161 2365.06C325.146 2355.97 314.246 2351.14 304.543 2354.79C297.613 2357.4 293.461 2363.41 292.973 2370.16L229.472 2377.05C229.31 2376.33 229.075 2375.61 228.758 2374.91C228.359 2373.71 227.794 2372.61 227.1 2371.62L245.843 2360.47C248.435 2364.08 253.353 2365.47 257.864 2363.96C263.321 2362.13 265.755 2356.07 263.945 2350.62C262.136 2345.16 256.08 2342.75 250.623 2344.58C249.973 2344.79 249.367 2345.07 248.805 2345.4L230.191 2308.9C232.628 2307.66 234.286 2305.5 234.946 2303.07L262.857 2309.07C262.574 2311.36 262.732 2313.74 263.395 2316.07C266.412 2323.95 275.496 2328.17 284.591 2325.13C292.474 2322.09 296.731 2312.99 293.714 2305.12C290.696 2297.24 281.613 2293.01 273.124 2295.45C267.784 2297.51 264.108 2302.35 263.041 2307.9L235.185 2301.91C235.421 2300.18 235.163 2298.38 234.337 2296.73C232.919 2292.46 228.895 2290.05 224.885 2290.38L222.645 2267.04C224.343 2266.93 226.054 2266.55 227.72 2265.83C236.21 2262.18 240.467 2253.08 236.844 2244.6C234.368 2238.81 229.342 2235 223.891 2234.14L228.976 2204.25C230.394 2204.24 231.851 2203.97 233.274 2203.4C237.001 2201.9 239.352 2199.04 240.054 2195.64L253.666 2198.95C253.304 2199.83 253.114 2200.74 253.275 2201.55C254.484 2203.97 257.512 2205.79 260.543 2205.18C262.969 2203.96 264.791 2200.93 264.19 2197.9C263.589 2194.87 259.955 2193.66 256.924 2194.27C256.924 2194.27 255.292 2195.9 254.194 2197.87L240.23 2194.47C240.397 2192.67 240.12 2190.76 239.357 2188.84C238.285 2186.15 236.494 2184.19 234.303 2183.04L238.241 2169.71C239.619 2170.58 241.32 2171 243.023 2170.66C246.054 2170.05 247.273 2166.41 246.672 2163.38C245.464 2160.96 242.436 2159.14 239.404 2159.76C239.367 2159.79 235.159 2164.02 235.757 2167.03C236.113 2167.75 236.626 2168.41 237.251 2168.97L233.234 2182.56C230.709 2181.59 227.767 2181.63 224.823 2182.81C218.759 2185.24 216.324 2191.31 218.739 2197.36C219.995 2201.15 223.594 2203.76 227.706 2204.19L222.363 2233.98C220.322 2233.87 218.25 2234.17 216.255 2234.94L215.648 2235.55C209.494 2238.19 205.565 2243.7 205.247 2249.76L151.608 2248.62C151.562 2247.33 151.298 2246.02 150.788 2244.74C149.262 2240.92 146.041 2238.3 142.346 2237.51L145.093 2213.8C145.802 2213.71 146.51 2213.53 147.202 2213.23C151.447 2211.41 153.879 2206.56 152.068 2202.32C150.257 2198.08 145.412 2195.66 141.167 2197.49C136.922 2199.31 134.49 2204.17 136.301 2208.4C137.575 2211.39 140.35 2213.46 143.361 2213.8L141.069 2237.31C139.294 2237.14 137.445 2237.38 135.648 2238.1C129.584 2240.53 126.543 2247.2 128.958 2253.26C131.372 2259.32 138.033 2262.34 144.097 2259.9C148.438 2258.16 151.229 2254.25 151.579 2249.94L205.255 2251.48C205.362 2253.24 205.774 2255.02 206.524 2256.77C208.755 2262.6 214.636 2266.76 220.982 2267.05L223.56 2290.59C222.901 2290.74 222.25 2290.98 221.619 2291.29C217.064 2293.58 214.64 2297.99 215.858 2303.04L183.445 2314.31C179.977 2307.27 171.432 2303.63 163.417 2305.93C155.534 2308.97 151.277 2318.07 154.295 2325.94C154.445 2326.34 154.61 2326.72 154.789 2327.09L134.475 2340.36C131.528 2335.66 125.702 2333.54 120.34 2335.7C114.277 2338.13 111.236 2344.8 113.65 2350.86ZM268.77 2743.92C271.182 2751.19 279.661 2754.81 286.937 2752.38C294.213 2749.94 297.862 2741.45 295.45 2734.18C295.137 2733.24 294.72 2732.35 294.217 2731.54L342.095 2704.53C343.462 2705.81 345.116 2706.76 346.932 2707.33L341.373 2745.83C338.216 2745.55 334.953 2746.05 331.79 2747.45C320.876 2751.11 315.401 2763.84 319.625 2775.35C323.244 2786.25 335.962 2791.69 347.483 2787.43C359.004 2783.17 364.479 2770.43 359.649 2759.53C356.463 2752.34 350.11 2747.27 343.021 2746.04L348.217 2707.67C350.326 2708.1 352.604 2708.05 354.884 2707.42C360.948 2704.99 363.989 2698.32 362.182 2691.65C359.767 2685.6 353.105 2682.58 347.041 2685.01L346.793 2685.01L331.034 2641.15C331.344 2641.04 331.654 2640.92 331.962 2640.79C342.271 2636.54 347.743 2625.01 343.518 2614.72C339.292 2604.42 327.786 2598.98 317.477 2603.24C315.114 2604.22 313.004 2605.58 311.208 2607.22L289.725 2584.53C296.694 2581.1 299.777 2573.13 296.932 2565.7C293.914 2557.83 285.436 2554.21 277.553 2557.25C269.67 2560.29 266.02 2568.78 269.037 2576.66C272.006 2584.4 280.261 2588.03 288.034 2585.25L309.977 2608.43C304.842 2613.95 302.895 2621.95 305.921 2629.32C309.801 2638.77 319.817 2644.13 329.41 2641.65L345.526 2685.14C339.665 2687.67 336.765 2694.22 339.138 2700.17C339.685 2701.54 340.451 2702.76 341.384 2703.8L293.232 2730.15C289.573 2725.67 283.051 2723.8 277.283 2725.73C270.007 2728.16 266.357 2736.65 268.77 2743.92Z" fill="#53AABF" fill-opacity="0.1"/>
<path d="M113.65 1486.54C116.064 1480.48 122.726 1477.46 128.79 1479.9C134.855 1482.33 137.895 1489 135.481 1495.06C135.339 1495.42 135.18 1495.76 135.009 1496.1L155.498 1508.99C159.299 1502.73 167.327 1499.62 174.884 1501.79C182.76 1504.83 187.016 1513.91 184.014 1521.78L216.202 1533.21C218.077 1527.87 224.058 1525.53 228.862 1527.93C229.049 1528 229.232 1528.07 229.412 1528.14L247.936 1491.42C244.417 1488.79 243.063 1483.93 244.54 1479.48C244.682 1479.05 244.854 1478.64 245.046 1478.25L225.939 1467.2C222.224 1471.15 216.201 1472.62 211.196 1470.33C203.919 1467.9 200.27 1459.41 203.289 1452.75C205.702 1445.48 214.18 1441.86 220.852 1444.9C226.333 1447.39 230.18 1453.16 229.704 1458.84L292.928 1465.53C292.97 1463.36 293.385 1461.14 294.203 1458.95C297.823 1449.26 308.119 1445.04 317.822 1448.69C319.583 1449.35 321.163 1450.23 322.55 1451.29L327.625 1444.07C325.229 1441.1 324.656 1437.02 326.281 1432.94C328.695 1426.89 334.752 1424.47 340.209 1426.3C341.626 1426.87 342.842 1427.64 343.847 1428.56L385.154 1403.03C383.233 1399.26 382.8 1394.77 384.391 1390.62C385.779 1386.99 388.452 1384.14 391.7 1382.42L383.24 1366.53C380.745 1367.6 377.867 1367.84 375.262 1366.97L375.867 1366.36C372.777 1365.33 370.461 1362.74 369.363 1359.7L341.353 1366.82C342.074 1369.73 341.917 1372.91 340.734 1376C337.716 1383.87 329.237 1387.5 321.354 1384.45C313.538 1381.44 309.883 1373.06 312.763 1365.25L290.554 1356.89C287.921 1360.92 282.361 1362.92 277.683 1361.36L277.077 1360.75C271.62 1358.92 268.578 1352.25 270.994 1347.41C273.409 1341.35 279.466 1338.93 284.923 1340.76C290.38 1342.59 293.421 1349.26 291.612 1354.71C291.538 1354.93 291.454 1355.15 291.364 1355.37L313.285 1364C316.628 1356.86 324.694 1353.69 332.218 1356.59C336.535 1358.26 339.581 1361.56 340.96 1365.5L368.886 1357.98C368.515 1356.14 368.582 1354.21 369.179 1352.41C370.378 1348.8 373.712 1346.25 377.237 1345.66L373.267 1308.12C372.686 1307.98 372.106 1307.8 371.531 1307.57C366.074 1305.74 363.033 1299.07 365.45 1294.23C367.259 1288.78 373.921 1285.76 379.378 1287.58C385.442 1290.02 387.876 1296.08 386.067 1301.53C384.548 1306.11 379.611 1308.97 374.478 1308.33L378.333 1345.54C379.767 1345.46 381.199 1345.72 382.501 1346.37C383.603 1346.74 384.605 1347.31 385.49 1348.02L408.695 1324.12C406.242 1320.02 405.535 1314.73 407.29 1309.44C408.939 1305.14 412.401 1301.93 416.588 1300.49L411.666 1271.23C409.422 1271.48 407.091 1271.31 404.803 1270.66L406.016 1270.66C401.922 1269.08 398.643 1265.7 396.858 1261.72L342.626 1289.39C346.052 1292.89 347.245 1297.92 345.464 1303.29C343.052 1310.55 335.178 1313.57 328.508 1310.53C321.838 1308.7 318.795 1300.82 321.207 1293.55C324.227 1286.89 330.889 1283.87 338.166 1286.3C339.581 1286.95 340.83 1287.76 341.901 1288.7L396.311 1260.34C395.142 1257.01 395.013 1253.36 396.286 1250.04C398.371 1244.6 403.352 1240.9 408.833 1240.13L407.94 1171.94C407.244 1171.75 406.549 1171.52 405.856 1171.27C394.335 1167.01 388.86 1154.27 393.691 1143.37C397.914 1131.86 410.027 1127.03 421.548 1131.29C428.687 1133.68 433.496 1139.96 434.79 1147.23L475.421 1143.83C475.525 1142.9 475.749 1141.98 476.107 1141.08C477.517 1137.54 480.582 1134.84 484.216 1133.8L482.347 1114.19C481.661 1114.16 480.973 1114.04 480.305 1113.81C480.256 1113.76 474.851 1108.34 476.656 1105.32C477.862 1101.69 482.101 1099.88 485.739 1101.1C489.377 1102.32 491.202 1106.56 489.389 1109.59C488.61 1111.93 486.565 1113.52 484.234 1114.02L486.142 1133.42C488.193 1133.19 490.356 1133.48 492.459 1134.44C495.02 1135.47 497.147 1137.36 498.571 1139.66L520.154 1134.71C519.883 1133.76 519.872 1132.83 520.333 1132.06C521.539 1128.43 525.779 1126.61 529.417 1127.83C533.055 1129.05 534.88 1133.3 533.674 1136.93C532.468 1140.56 528.229 1142.37 525.196 1140.55L523.983 1140.55C523.977 1140.54 521.711 1138.27 520.585 1135.85L499.227 1140.85C500.644 1143.75 500.98 1147.14 499.756 1150.21C497.342 1156.26 490.076 1159.89 484.012 1157.45L483.405 1156.85C478.635 1154.93 475.36 1150.02 475.354 1145.07L434.978 1148.5C435.395 1151.98 435.016 1155.64 433.714 1159.19C429.949 1169.45 419.916 1174.4 409.621 1172.34L410.13 1240.01C412.174 1239.9 414.261 1240.2 416.27 1240.98C421.685 1243.07 425.389 1248.02 426.199 1253.46L454.551 1254.12C454.542 1252.98 454.708 1251.83 455.072 1250.74C456.881 1245.28 463.543 1242.27 469 1244.09C474.457 1245.92 477.497 1252.59 475.083 1258.65C473.274 1264.1 466.612 1267.12 461.76 1264.69C457.79 1263.36 455.102 1259.46 454.626 1255.34L426.331 1254.69C426.471 1256.79 426.182 1258.93 425.393 1260.99C423.384 1266.23 418.687 1269.86 413.267 1270.98L418.204 1300.04C421.265 1299.35 424.617 1299.59 427.881 1300.99C435.764 1304.04 440.021 1313.13 436.398 1321.61C433.381 1329.48 424.297 1333.71 416.414 1330.67C413.682 1329.62 411.385 1327.83 409.676 1325.58L386.733 1349.21C389.356 1352.14 390.45 1356.53 389.19 1360.32C388.384 1362.75 386.617 1364.69 384.422 1365.94L392.89 1381.85C396.449 1380.32 400.554 1380.08 404.376 1381.56C412.259 1384.6 416.516 1393.7 413.498 1401.57C410.481 1409.44 401.397 1413.67 393.514 1410.63C390.336 1409.4 387.748 1407.19 385.988 1404.48L345.008 1429.8C347.352 1432.77 347.903 1436.81 346.293 1440.85C345.605 1442.58 344.621 1444.01 343.426 1445.11L355.679 1461.12C357.89 1459.63 360.701 1459.16 363.291 1460.28C367.536 1462.1 369.968 1466.95 368.157 1471.19C366.346 1475.43 361.502 1477.85 357.257 1476.02C357.257 1476.02 350.579 1469.34 352.39 1465.11C352.875 1463.97 353.578 1462.97 354.427 1462.14L342.361 1445.97C339.448 1448.03 335.605 1448.44 331.757 1446.89L332.364 1447.5C330.8 1446.87 329.479 1446 328.419 1444.95L323.534 1452.1C329.044 1456.97 330.964 1464.84 328.161 1472.34C325.146 1481.42 314.246 1486.25 304.543 1482.6C297.613 1480 293.461 1473.99 292.973 1467.24L229.472 1460.35C229.31 1461.07 229.075 1461.78 228.758 1462.48C228.359 1463.68 227.794 1464.79 227.1 1465.77L245.843 1476.92C248.435 1473.32 253.353 1471.93 257.864 1473.44C263.321 1475.26 265.755 1481.33 263.945 1486.78C262.136 1492.23 256.08 1494.65 250.623 1492.82C249.973 1492.6 249.367 1492.32 248.805 1491.99L230.191 1528.49C232.628 1529.74 234.286 1531.9 234.946 1534.33L262.857 1528.33C262.574 1526.04 262.732 1523.66 263.395 1521.32C266.412 1513.45 275.496 1509.22 284.591 1512.27C292.474 1515.31 296.731 1524.41 293.714 1532.28C290.696 1540.15 281.613 1544.38 273.124 1541.94C267.784 1539.88 264.108 1535.04 263.041 1529.5L235.185 1535.49C235.421 1537.21 235.163 1539.01 234.337 1540.67C232.919 1544.94 228.895 1547.35 224.885 1547.02L222.645 1570.36C224.343 1570.46 226.054 1570.85 227.72 1571.57C236.21 1575.22 240.467 1584.31 236.844 1592.79C234.368 1598.59 229.342 1602.39 223.891 1603.25L228.976 1633.15C230.394 1633.16 231.851 1633.43 233.274 1634C237.001 1635.49 239.352 1638.36 240.054 1641.75L253.666 1638.45C253.304 1637.56 253.114 1636.66 253.275 1635.85C254.484 1633.42 257.512 1631.61 260.543 1632.22C262.969 1633.44 264.791 1636.47 264.19 1639.5C263.589 1642.53 259.955 1643.74 256.924 1643.12C256.924 1643.12 255.292 1641.49 254.194 1639.53L240.23 1642.92C240.397 1644.72 240.12 1646.64 239.357 1648.55C238.285 1651.24 236.494 1653.21 234.303 1654.36L238.241 1667.68C239.619 1666.82 241.32 1666.4 243.023 1666.74C246.054 1667.35 247.273 1670.99 246.672 1674.02C245.464 1676.44 242.436 1678.25 239.404 1677.64C239.367 1677.6 235.159 1673.38 235.757 1670.36C236.113 1669.65 236.626 1668.99 237.251 1668.43L233.234 1654.84C230.709 1655.81 227.767 1655.77 224.823 1654.59C218.759 1652.15 216.324 1646.09 218.739 1640.03C219.995 1636.25 223.594 1633.64 227.706 1633.21L222.363 1603.42C220.322 1603.53 218.25 1603.23 216.255 1602.46L215.648 1601.85C209.494 1599.2 205.565 1593.7 205.247 1587.64L151.608 1588.78C151.562 1590.07 151.298 1591.37 150.788 1592.65C149.262 1596.48 146.041 1599.09 142.346 1599.89L145.093 1623.6C145.802 1623.68 146.51 1623.86 147.202 1624.16C151.447 1625.99 153.879 1630.84 152.068 1635.08C150.257 1639.32 145.412 1641.73 141.167 1639.91C136.922 1638.08 134.49 1633.23 136.301 1628.99C137.575 1626.01 140.35 1623.93 143.361 1623.6L141.069 1600.08C139.294 1600.26 137.445 1600.02 135.648 1599.3C129.584 1596.86 126.543 1590.19 128.958 1584.14C131.372 1578.08 138.033 1575.06 144.097 1577.49C148.438 1579.24 151.229 1583.15 151.579 1587.45L205.255 1585.91C205.362 1584.16 205.774 1582.38 206.524 1580.62C208.755 1574.8 214.636 1570.64 220.982 1570.35L223.56 1546.81C222.901 1546.65 222.25 1546.42 221.619 1546.1C217.064 1543.82 214.64 1539.4 215.858 1534.36L183.445 1523.08C179.977 1530.13 171.432 1533.77 163.417 1531.47C155.534 1528.42 151.277 1519.33 154.295 1511.45C154.445 1511.06 154.61 1510.68 154.789 1510.3L134.475 1497.04C131.528 1501.74 125.702 1503.85 120.34 1501.7C114.277 1499.27 111.236 1492.6 113.65 1486.54ZM268.77 1093.48C271.182 1086.21 279.661 1082.58 286.937 1085.02C294.213 1087.46 297.862 1095.95 295.45 1103.21C295.137 1104.16 294.72 1105.04 294.217 1105.86L342.095 1132.87C343.462 1131.58 345.116 1130.63 346.932 1130.06L341.373 1091.57C338.216 1091.84 334.953 1091.35 331.79 1089.94C320.876 1086.29 315.401 1073.55 319.625 1062.04C323.244 1051.14 335.962 1045.71 347.483 1049.97C359.004 1054.23 364.479 1066.96 359.649 1077.87C356.463 1085.05 350.11 1090.13 343.021 1091.36L348.217 1129.73C350.326 1129.29 352.604 1129.35 354.884 1129.98C360.948 1132.41 363.989 1139.08 362.182 1145.74C359.767 1151.8 353.105 1154.82 347.041 1152.39L346.793 1152.39L331.034 1196.25C331.344 1196.36 331.654 1196.48 331.962 1196.6C342.271 1200.86 347.743 1212.38 343.518 1222.68C339.292 1232.98 327.786 1238.41 317.477 1234.15C315.114 1233.18 313.004 1231.82 311.208 1230.18L289.725 1252.86C296.694 1256.3 299.777 1264.27 296.932 1271.69C293.914 1279.57 285.436 1283.19 277.553 1280.15C269.67 1277.1 266.02 1268.61 269.037 1260.74C272.006 1252.99 280.261 1249.36 288.034 1252.15L309.977 1228.96C304.842 1223.45 302.895 1215.45 305.921 1208.08C309.801 1198.62 319.817 1193.27 329.41 1195.75L345.526 1152.25C339.665 1149.72 336.765 1143.18 339.138 1137.22C339.685 1135.85 340.451 1134.64 341.384 1133.6L293.232 1107.24C289.573 1111.72 283.051 1113.6 277.283 1111.67C270.007 1109.23 266.357 1100.74 268.77 1093.48Z" fill="#53AABF" fill-opacity="0.1"/>
</svg>
