<svg width="637" height="332" viewBox="0 0 637 332" fill="none" xmlns="http://www.w3.org/2000/svg">
    <path
        d="M158.167 331.308C164.609 330.308 169.041 324.489 168.024 318.034C167.007 311.58 161.184 307.125 154.742 308.125C154.363 308.183 153.991 308.262 153.627 308.353L145.633 285.5C152.588 283.195 157.414 276.065 156.987 268.215C155.784 259.858 147.881 253.68 139.541 254.848L135.598 220.921C141.218 220.285 144.838 214.979 143.565 209.759C143.546 209.563 143.519 209.369 143.489 209.178L183.421 199.328C185.196 203.345 189.63 205.751 194.3 205.305C194.749 205.263 195.185 205.187 195.607 205.087L202.112 226.181C197.435 228.919 194.656 234.461 195.761 239.85C196.509 247.487 203.969 252.941 211.136 251.487C218.76 250.76 224.186 243.305 222.713 236.123C221.503 230.222 216.74 225.182 211.104 224.378L218.708 161.258C220.831 161.702 223.088 161.794 225.404 161.486C235.659 160.122 242.079 151.031 240.688 140.758C240.435 138.894 239.928 137.156 239.207 135.567L247.377 132.234C249.74 135.234 253.587 136.704 257.923 136.031C264.366 135.031 268.072 129.667 267.511 123.94C267.274 122.432 266.795 121.074 266.124 119.889L300.239 85.3323C303.48 88.0461 307.763 89.4724 312.167 88.849C316.008 88.3054 319.383 86.3375 321.791 83.5572L335.387 95.3534C333.783 97.5453 332.912 100.299 333.18 103.032L333.905 102.578C334.222 105.821 336.228 108.655 338.947 110.406L325.744 136.116C323.067 134.764 319.93 134.205 316.656 134.669C308.308 135.851 302.883 143.305 304.087 151.669C305.281 159.962 312.624 165.394 320.887 164.334L324.072 187.85C319.55 189.515 316.361 194.488 316.842 199.397L317.298 200.124C317.859 205.852 323.682 210.307 328.944 209.034C335.387 208.034 339.093 202.67 338.532 196.943C337.971 191.216 332.149 186.761 326.431 187.306C326.197 187.328 325.966 187.36 325.736 187.4L322.222 164.105C329.929 162.442 334.818 155.288 333.669 147.306C333.01 142.726 330.474 139.019 326.944 136.795L340.51 111.255C342.226 112.029 344.122 112.395 346.007 112.215C349.798 111.853 353.022 109.171 354.39 105.869L390.094 118.127C390.096 118.724 390.143 119.33 390.239 119.942C390.801 125.669 396.624 130.123 401.886 128.851C407.603 128.305 412.035 122.488 411.474 116.76C410.457 110.306 405.09 106.578 399.372 107.123C394.573 107.581 390.681 111.754 390.155 116.9L354.752 104.828C355.145 103.447 355.214 101.993 354.869 100.578C354.756 99.422 354.425 98.3185 353.927 97.2964L382.409 80.0184C385.857 83.325 390.856 85.1978 396.402 84.6689C400.966 84.0229 404.873 81.3669 407.206 77.6064L434.627 88.9436C433.88 91.074 433.526 93.3841 433.655 95.7604L433.924 94.5784C434.549 98.9214 437.107 102.873 440.591 105.502L401.498 152.179C398.858 148.058 394.217 145.77 388.591 146.307C380.967 147.034 376.267 154.034 377.74 161.216C378.032 168.125 385.036 172.853 392.66 172.126C399.827 170.671 404.259 164.852 403.511 157.216C403.198 155.693 402.687 154.294 402.007 153.039L441.808 106.343C444.799 108.227 448.326 109.169 451.849 108.67C457.618 107.853 462.337 103.825 464.305 98.6537L530.577 114.764C530.607 115.484 530.67 116.212 530.765 116.944C532.343 129.126 543.533 137.309 555.238 135.036C567.398 133.491 574.812 122.763 573.234 110.581C572.5 103.09 567.459 96.9996 560.657 94.1133L573.051 55.2686C573.982 55.3761 574.934 55.3641 575.889 55.2159C579.651 54.6318 582.976 52.2495 584.796 48.9376L603.496 55.1429C603.369 55.8174 603.333 56.5152 603.402 57.2162C603.402 57.2162 607.505 63.7616 610.861 62.6714C614.673 62.3078 617.386 58.5804 617.012 54.7621C616.638 50.9439 612.908 48.217 609.553 49.3078C607.09 49.5427 605.088 51.1814 604.078 53.3415L585.598 47.1466C586.284 45.1997 586.48 43.0259 586.015 40.7615C585.586 38.0354 584.214 35.5391 582.292 33.6368L591.937 13.7061C592.808 14.1833 593.709 14.4013 594.563 14.124C598.375 13.7604 601.087 10.0329 600.714 6.21472C600.339 2.39645 596.609 -0.331191 592.798 0.0323916C588.986 0.396142 586.273 4.12312 587.372 7.48674L587.103 8.66876C587.114 8.68521 588.817 11.3942 590.923 13.0301L581.282 32.7333C578.765 30.7023 575.543 29.6179 572.277 30.1247C565.834 31.1246 560.676 37.3973 561.693 43.8519L562.15 44.579C562.95 49.6558 567.005 53.9458 571.835 55.0593L559.465 93.647C556.167 92.4631 552.511 92.0127 548.761 92.4891C537.922 93.8665 530.854 102.539 530.564 113.035L464.717 97.4157C465.279 95.4476 465.451 93.3466 465.144 91.2156C464.317 85.47 460.322 80.754 455.196 78.7475L460.886 50.9644C462.001 51.2288 463.154 51.3241 464.304 51.2144C470.022 50.669 474.453 44.8506 473.892 39.1232C473.331 33.3959 467.508 28.9409 461.066 29.9408C455.348 30.4862 450.916 36.3047 452.202 41.5774C452.61 45.744 455.804 49.2361 459.715 50.6206L454.022 78.3431C452.011 77.738 449.859 77.5423 447.676 77.8512C442.118 78.6379 437.535 82.4063 435.233 87.4393L408.011 76.1331C409.363 73.3025 409.88 69.9824 409.242 66.4872C408.038 58.1234 400.122 51.9414 391.048 53.5777C382.699 54.7594 376.549 62.6682 377.753 71.032C378.17 73.9307 379.393 76.5678 381.211 78.738L353.051 95.8197C350.78 92.6086 346.75 90.5615 342.768 90.9411C340.223 91.1839 337.934 92.4733 336.226 94.3325L322.613 82.5239C324.9 79.3973 326.046 75.4492 325.462 71.3938C324.258 63.0302 316.342 56.8479 307.994 58.0294C299.645 59.2111 293.493 67.121 294.698 75.4849C295.183 78.8557 296.759 81.8721 299.014 84.1949L265.17 118.479C262.801 115.53 258.984 114.09 254.685 114.758C252.85 115.042 251.237 115.682 249.892 116.599L237.026 101.079C238.977 99.2576 240.06 96.6219 239.554 93.8488C238.724 89.3032 234.538 85.8485 230.001 86.6666C225.465 87.4848 222.027 91.6662 222.857 96.2116C222.857 96.2116 227.873 104.212 232.409 103.394C233.623 103.175 234.757 102.715 235.752 102.072L248.816 117.445C246.165 119.826 244.906 123.48 245.552 127.576L245.096 126.849C245.359 128.513 245.912 129.995 246.696 131.263L238.638 134.426C235.125 127.969 227.883 124.339 219.946 125.394C210.416 126.303 203.271 135.848 204.662 146.121C205.655 153.459 210.581 158.848 217.051 160.833L209.576 224.266C208.838 224.264 208.09 224.334 207.337 224.487C206.078 224.607 204.879 224.912 203.76 225.368L197.081 204.607C201.174 202.886 203.628 198.403 203.164 193.669C202.603 187.942 197.236 184.214 191.518 184.759C185.801 185.304 182.094 190.668 182.655 196.396C182.721 197.077 182.858 197.73 183.054 198.351L143.316 208.338C142.65 205.685 140.912 203.586 138.694 202.4L150.78 176.536C152.947 177.323 155.303 177.701 157.726 177.576C166.074 176.394 172.225 168.485 171.29 158.94C170.086 150.576 162.17 144.394 153.821 145.576C145.472 146.757 139.322 154.666 139.801 163.485C140.617 169.15 144.512 173.814 149.678 176.093L137.616 201.907C135.988 201.292 134.175 201.141 132.375 201.577C127.895 202.004 124.65 205.389 124.074 209.37L100.824 206.338C101.102 204.66 101.107 202.905 100.781 201.122C99.1208 192.031 91.2049 185.848 82.1312 187.484C75.93 188.602 71.0951 192.651 69.0392 197.772L41.0361 186.135C41.3438 184.75 41.4093 183.271 41.1706 181.757C40.5456 177.79 38.276 174.857 35.1255 173.415L41.3908 160.886C42.1716 161.437 43.0084 161.824 43.8381 161.848C46.469 161.212 48.9129 158.665 48.9948 155.574C48.3517 152.938 45.8025 150.484 42.7157 150.393C39.629 150.302 37.6417 153.574 37.5596 156.665C37.5596 156.665 38.7852 158.621 40.4522 160.129L34.0249 172.982C32.3073 172.417 30.3797 172.258 28.3439 172.574C25.4825 173.018 23.1617 174.324 21.5538 176.203L9.44862 169.388C10.5994 168.238 11.3906 166.673 11.4367 164.937C11.5186 161.846 8.24418 159.846 5.15726 159.755C2.52646 160.391 0.0823247 162.937 0.000225671 166.028C0.000225671 166.028 3.19275 171.119 6.27966 171.21C7.05414 171.023 7.81193 170.669 8.49851 170.186L20.8461 177.138C19.3399 179.383 18.7172 182.259 19.2111 185.393C20.2284 191.847 25.5951 195.574 32.0376 194.574C36.0089 194.196 39.3577 191.273 40.6934 187.36L68.5388 199.226C67.9733 201.19 67.806 203.277 68.1108 205.394L68.5672 206.121C69.7706 212.71 74.2603 217.77 80.0951 219.434L66.9947 271.463C65.7284 271.22 64.3957 271.184 63.0346 271.396C58.9636 272.028 55.6976 274.584 54.0997 278.008L31.5995 270.031C31.6774 269.322 31.658 268.591 31.5226 267.85C30.6926 263.304 26.507 259.85 21.9702 260.668C17.4335 261.486 13.9959 265.667 14.8256 270.213C15.6557 274.758 19.8415 278.214 24.3783 277.396C27.5696 276.82 30.2145 274.579 31.2154 271.719L53.6214 279.208C53.0554 280.9 52.8756 282.755 53.177 284.668C54.1941 291.123 60.0173 295.577 66.4601 294.577C72.9028 293.577 77.3346 287.759 76.3175 281.304C75.5893 276.684 72.398 273.091 68.2807 271.788L81.7765 219.812C83.5102 220.1 85.3386 220.097 87.2166 219.758C93.3909 218.884 98.7582 214.081 100.464 207.962L123.983 210.709C123.988 211.386 124.069 212.073 124.236 212.758C125.444 217.708 129.207 221.057 134.394 220.997L138.144 255.112C130.505 256.918 125.046 264.433 125.498 272.76C126.702 281.123 134.619 287.306 142.968 286.124C143.384 286.065 143.794 285.989 144.199 285.898L152.59 308.663C147.346 310.485 143.985 315.691 144.884 321.398C145.902 327.852 151.724 332.307 158.167 331.308ZM575.955 267.948C583.578 267.221 589.004 259.766 588.256 252.13C587.508 244.493 580.048 239.039 572.424 239.766C571.433 239.86 570.48 240.07 569.572 240.377L553.945 187.674C555.503 186.629 556.799 185.229 557.76 183.586L594.038 197.607C593.065 200.623 592.816 203.913 593.484 207.31C594.606 218.765 605.795 226.948 617.956 225.403C629.392 224.312 637.53 213.13 635.952 200.948C634.373 188.766 623.184 180.583 611.479 182.855C603.76 184.354 597.394 189.413 594.614 196.048L558.374 182.408C559.269 180.45 559.721 178.216 559.621 175.855C558.604 169.4 552.781 164.945 545.883 165.218C539.44 166.218 535.008 172.037 536.025 178.491L535.97 178.733L489.696 184.291C489.658 183.964 489.613 183.637 489.558 183.309C487.71 172.308 477.702 164.399 466.722 166.217C455.742 168.035 447.873 178.035 449.72 189.035C450.144 191.557 450.996 193.916 452.191 196.032L425.282 211.904C423.489 204.343 416.409 199.558 408.537 200.672C400.189 201.854 394.763 209.308 395.967 217.671C397.172 226.035 404.632 231.49 412.98 230.308C421.194 229.146 426.578 221.912 425.603 213.714L453.104 197.507C457.33 203.743 464.694 207.429 472.556 206.127C482.637 204.458 490.094 195.891 489.817 185.985L535.815 179.997C536.973 186.276 542.705 190.566 549.039 189.583C550.498 189.356 551.852 188.881 553.072 188.204L568.001 241.028C562.816 243.593 559.53 249.531 560.123 255.584C560.871 263.221 568.331 268.675 575.955 267.948Z"
        fill="#53AABF" fill-opacity="0.1" />
</svg>
    