<svg width="1320" height="777" viewBox="0 0 1320 777" fill="none" xmlns="http://www.w3.org/2000/svg">
    <g clip-path="url(#clip0_2264_1378)">
        <path
            d="M815.84 518.39C810.615 514.49 809.423 507.274 813.343 502.046C817.263 496.819 824.495 495.608 829.72 499.508C830.027 499.737 830.319 499.98 830.598 500.232L848.36 483.779C843.294 478.487 842.366 469.926 846.418 463.189C851.393 456.368 861.269 454.608 868.093 459.545L887.459 431.411C882.789 428.219 882.075 421.835 885.643 417.818C885.752 417.653 885.866 417.494 885.982 417.339L855.307 389.942C851.858 392.661 846.813 392.711 842.895 390.131C842.519 389.884 842.17 389.613 841.843 389.326L826.219 404.922C829.071 409.532 828.932 415.73 825.433 419.975C821.197 426.373 812.051 427.701 806.398 423.06C800.002 418.849 798.697 409.722 803.361 404.065C807.193 399.417 813.76 397.193 819.117 399.121L841.948 339.785C839.864 339.183 837.826 338.207 835.923 336.851C827.499 330.845 826.082 319.806 832.121 311.379C833.217 309.85 834.479 308.552 835.861 307.485L830.2 300.716C826.708 302.26 822.619 301.758 819.103 299.134C813.878 295.234 813.113 288.759 816.29 283.96C817.207 282.739 818.266 281.764 819.414 281.031L805.444 234.524C801.309 235.405 796.856 234.66 793.257 232.047C790.117 229.769 788.057 226.45 787.23 222.865L769.694 226.924C770.086 229.612 769.567 232.453 768.051 234.743L767.623 234.003C765.829 236.712 762.742 238.277 759.531 238.558L759.162 267.459C762.152 267.523 765.174 268.499 767.841 270.434C774.665 275.387 775.97 284.514 770.991 291.342C766.011 298.169 756.865 299.497 750.041 294.544C749.889 294.434 749.741 294.321 749.595 294.207L735.846 313.393C739.548 316.899 740.247 323.209 737.376 327.546L736.632 327.974C733.455 332.773 726.224 333.984 722.17 330.396C716.945 326.496 716.181 320.021 719.358 315.223C722.518 310.45 729.689 309.229 734.486 312.326L748.549 293.316C743.052 288.186 742.3 279.933 746.892 273.637C749.629 269.884 753.625 267.795 757.802 267.495L757.771 238.581C755.877 238.468 754.013 237.903 752.418 236.853C748.825 234.487 747.254 229.845 748.207 225.959L711.284 220.135C710.905 221.119 710.386 222.077 709.713 222.975C706.536 227.773 699.305 228.984 695.251 225.396C690.453 222.238 689.261 215.022 692.438 210.223C696.359 204.996 702.846 204.214 707.644 207.373C711.302 209.782 712.861 214.551 711.656 218.998L748.541 224.896C748.887 223.996 749.38 223.156 750.033 222.421C750.674 221.452 751.483 220.634 752.401 219.964L735.32 191.362C730.726 192.67 725.431 191.984 720.778 188.921C717.048 186.214 714.84 182.038 714.539 177.622L685 174.804C684.663 177.036 683.894 179.243 682.668 181.282L682.983 180.112C680.398 183.657 676.287 185.952 671.978 186.644L684.671 246.19C688.933 243.784 694.107 243.936 698.828 247.045C705.224 251.256 706.101 259.642 701.437 265.299C697.945 271.267 689.543 272.166 683.146 267.955C677.493 263.314 676.301 256.098 680.537 249.7C681.526 248.501 682.632 247.503 683.82 246.713L670.51 186.817C666.985 187.082 663.427 186.263 660.547 184.173C655.832 180.751 653.548 174.983 654.229 169.492L588.126 152.703C587.762 153.325 587.366 153.939 586.939 154.542C579.842 164.568 566.123 166.559 556.844 159.072C546.822 152.014 545.292 139.064 552.39 129.038C556.545 122.762 563.851 119.739 571.213 120.373L578.444 80.246C577.571 79.9051 576.736 79.4492 575.962 78.8712C572.91 76.5936 571.088 72.9323 571.029 69.1533L551.6 65.8829C551.397 66.5385 551.102 67.1718 550.713 67.7591C550.713 67.7591 544.022 71.6222 541.568 69.0877C538.369 66.982 537.717 62.4182 539.835 59.2193C541.953 56.0204 546.526 55.356 548.98 57.8907C551.046 59.251 552.048 61.6373 551.929 64.0185L571.16 67.1956C571.465 65.154 572.309 63.1414 573.78 61.3579C575.435 59.1502 577.815 57.5868 580.405 56.8059L581.211 34.6784C580.218 34.6926 579.32 34.4621 578.695 33.8173C575.498 31.7116 574.845 27.1491 576.963 23.9503C579.081 20.7513 583.654 20.0871 586.852 22.1928C590.05 24.2987 590.702 28.8618 588.156 31.3196L587.841 32.4901C587.815 32.5049 585.046 34.097 582.424 34.5562L581.719 56.4785C584.895 55.8622 588.25 56.413 590.899 58.3899C596.124 62.2895 597.745 70.2468 593.825 75.4744L593.081 75.9033C589.998 80.0149 584.406 81.9076 579.617 80.6307L572.483 120.519C575.952 121.017 579.394 122.331 582.484 124.507C591.418 130.799 593.604 141.772 588.946 151.183L654.445 168.206C654.869 166.203 655.701 164.265 656.97 162.525C660.39 157.835 666.127 155.539 671.596 156.165L679.574 128.951C678.466 128.663 677.403 128.207 676.438 127.572C671.641 124.413 670.449 117.198 673.625 112.399C676.802 107.601 684.033 106.39 689.258 110.29C694.055 113.448 695.247 120.664 691.643 124.721C689.331 128.212 684.875 129.802 680.771 129.195L672.823 156.357C674.884 156.764 676.878 157.598 678.662 158.893C683.205 162.19 685.491 167.666 685.169 173.191L714.517 175.943C714.647 172.809 715.744 169.633 717.944 166.843C722.924 160.016 732.813 158.259 740.065 163.953C746.889 168.905 748.622 178.773 743.643 185.6C741.917 187.966 739.602 189.724 736.98 190.791L753.867 219.068C757.378 217.294 761.897 217.371 765.238 219.571C767.373 220.977 768.792 223.187 769.431 225.63L786.985 221.568C786.428 217.735 787.265 213.71 789.68 210.399C794.659 203.572 804.548 201.815 811.372 206.767C818.197 211.72 819.929 221.588 814.949 228.415C812.942 231.167 810.138 233.095 807.058 234.092L820.918 280.231C824.39 278.735 828.437 279.249 831.923 281.851C833.411 282.961 834.536 284.282 835.295 285.721L853.931 278.029C853.06 275.506 853.336 272.67 855.082 270.456C857.943 266.828 863.26 265.735 866.886 268.582C870.511 271.429 871.592 276.733 868.731 280.361C868.731 280.361 860.553 285.082 856.927 282.235C855.957 281.474 855.17 280.536 854.591 279.502L835.851 286.972C837.079 290.317 836.481 294.136 833.993 297.453L834.736 297.024C833.725 298.372 832.542 299.423 831.255 300.176L836.895 306.743C843.023 302.681 851.122 302.865 857.642 307.513C865.638 312.777 867.483 324.557 861.445 332.984C857.132 339.002 850.257 341.459 843.611 340.184L820.52 399.737C821.173 400.08 821.802 400.492 822.395 400.979C823.452 401.675 824.369 402.507 825.144 403.433L840.765 388.212C837.954 384.775 837.884 379.665 840.51 375.699C843.687 370.901 850.175 370.12 854.973 373.278C859.77 376.437 860.534 382.911 857.357 387.71C856.979 388.281 856.553 388.795 856.089 389.252L886.529 416.678C888.359 414.645 890.877 413.604 893.393 413.594L894.821 385.082C892.537 384.764 890.279 383.995 888.196 382.75C881.372 377.798 879.639 367.93 884.934 359.932C889.914 353.105 899.802 351.348 906.627 356.3C913.451 361.253 915.184 371.121 910.632 378.689C907.259 383.314 901.633 385.612 896.002 385.207L894.576 413.665C896.303 413.884 897.975 414.598 899.361 415.825C903.12 418.299 904.403 422.81 903.049 426.599L925.013 434.803C925.553 433.19 926.371 431.637 927.493 430.213C933.216 422.957 943.105 421.201 950.357 426.894C955.313 430.785 957.692 436.626 957.112 442.113L987.302 444.938C987.678 443.571 988.313 442.234 989.233 441.007C991.642 437.795 995.021 436.265 998.481 436.465L998.809 422.461C997.861 422.582 996.941 422.532 996.196 422.165C994.17 420.371 993.201 416.978 994.576 414.208C996.378 412.18 999.78 411.204 1002.55 412.568C1005.32 413.933 1005.55 417.756 1004.17 420.526C1004.15 420.54 1002.16 421.683 999.994 422.232L999.656 436.597C1001.44 436.902 1003.22 437.666 1004.87 438.898C1007.19 440.63 1008.62 442.87 1009.17 445.283L1023.06 444.928C1022.58 443.373 1022.61 441.62 1023.38 440.064C1024.76 437.294 1028.59 437.059 1031.36 438.424C1033.38 440.218 1034.35 443.612 1032.98 446.382C1032.93 446.406 1027.76 449.38 1025 448.021C1024.41 447.493 1023.9 446.826 1023.52 446.077L1009.36 446.44C1009.64 449.129 1008.84 451.961 1006.93 454.5C1003.01 459.727 996.528 460.508 991.303 456.608C987.971 454.415 986.381 450.265 987.032 446.182L956.873 443.632C956.453 445.632 955.623 447.555 954.363 449.283L953.62 449.712C949.471 454.972 943.134 457.342 937.199 456.08L924.419 508.189C925.652 508.567 926.846 509.159 927.95 509.983C931.252 512.447 932.94 516.234 932.749 520.008L956.368 523.491C956.631 522.829 956.99 522.192 957.457 521.6C960.318 517.972 965.635 516.879 969.261 519.726C972.887 522.573 973.967 527.877 971.106 531.505C968.244 535.133 962.927 536.227 959.301 533.38C956.751 531.378 955.463 528.16 955.918 525.164L932.611 521.291C932.319 523.052 931.61 524.776 930.448 526.325C926.528 531.553 919.296 532.763 914.071 528.864C908.846 524.964 907.653 517.749 911.574 512.521C914.38 508.779 918.882 507.096 923.131 507.872L935.535 455.627C933.869 455.069 932.256 454.21 930.755 453.031C925.708 449.369 923.214 442.612 924.571 436.406L902.502 427.824C902.18 428.42 901.788 428.989 901.319 429.516C897.935 433.325 893.042 434.522 888.487 432.041L869.203 460.432C875.107 465.605 876.413 474.8 872.116 481.946C867.136 488.773 857.248 490.531 850.423 485.578C850.083 485.332 849.756 485.072 849.441 484.802L831.369 500.991C835.149 505.055 835.683 511.23 832.217 515.851C828.296 521.079 821.065 522.289 815.84 518.39ZM476.318 266.823C469.921 262.612 468.617 253.484 472.852 247.087C477.089 240.689 486.234 239.362 492.631 243.573C493.462 244.12 494.206 244.751 494.864 245.447L533.345 206.19C532.459 204.537 531.968 202.695 531.888 200.793L493.267 196.201C492.714 199.321 491.395 202.345 489.215 205.035C482.861 214.632 469.142 216.623 459.12 209.565C449.525 203.248 447.568 189.558 454.665 179.532C461.763 169.506 475.481 167.513 484.76 175C490.88 179.939 494.137 187.389 493.487 194.554L531.898 199.465C532.023 197.316 532.668 195.13 533.862 193.09C537.782 187.863 545.013 186.652 550.982 190.122C556.207 194.022 557.399 201.238 553.479 206.465L553.415 206.706L591.702 233.279C591.889 233.009 592.083 232.74 592.285 232.476C599.067 223.62 611.615 221.317 620.466 228.063C629.317 234.81 631.59 247.33 624.808 256.186C623.253 258.216 621.395 259.902 619.349 261.213L635.696 287.834C640.82 281.992 649.318 281.076 655.752 285.746C662.576 290.699 663.88 299.826 658.901 306.653C653.922 313.48 644.776 314.808 637.952 309.856C631.239 304.984 629.867 296.071 634.565 289.283L617.851 262.087C611.197 265.619 602.966 265.429 596.628 260.599C588.501 254.405 585.921 243.344 590.802 234.72L552.959 207.895C548.997 212.901 541.924 214.008 536.787 210.174C535.604 209.291 534.629 208.238 533.867 207.068L495.947 246.758C499.329 251.452 499.453 258.238 496.095 263.309C491.859 269.707 482.714 271.035 476.318 266.823Z"
            fill="white" fill-opacity="0.1" />
    </g>
    <defs>
        <clipPath id="clip0_2264_1378">
            <rect width="1320" height="777" fill="white" />
        </clipPath>
    </defs>
</svg>
    