<svg width="1320" height="777" viewBox="0 0 1320 777" fill="none" xmlns="http://www.w3.org/2000/svg">
<g clip-path="url(#clip0_1_114)">
<path d="M815.84 452.39C810.615 448.49 809.422 441.274 813.343 436.046C817.263 430.819 824.494 429.608 829.72 433.508C830.027 433.737 830.319 433.98 830.598 434.232L848.36 417.779C843.293 412.487 842.366 403.926 846.417 397.189C851.393 390.368 861.269 388.609 868.093 393.545L887.459 365.411C882.789 362.219 882.075 355.835 885.643 351.818C885.752 351.653 885.866 351.494 885.982 351.339L855.307 323.942C851.858 326.661 846.813 326.711 842.895 324.132C842.519 323.884 842.169 323.613 841.843 323.326L826.219 338.922C829.07 343.532 828.932 349.73 825.433 353.975C821.197 360.373 812.05 361.701 806.397 357.06C800.001 352.849 798.697 343.722 803.36 338.065C807.192 333.417 813.76 331.193 819.117 333.121L841.948 273.785C839.864 273.183 837.826 272.207 835.923 270.851C827.499 264.845 826.082 253.806 832.121 245.38C833.217 243.85 834.479 242.552 835.86 241.485L830.2 234.716C826.707 236.26 822.619 235.758 819.103 233.134C813.878 229.234 813.113 222.759 816.29 217.961C817.206 216.739 818.265 215.764 819.413 215.031L805.444 168.525C801.309 169.405 796.856 168.66 793.257 166.048C790.117 163.769 788.057 160.45 787.23 156.866L769.694 160.924C770.086 163.612 769.567 166.453 768.051 168.743L767.623 168.003C765.829 170.713 762.742 172.277 759.531 172.558L759.162 201.46C762.151 201.523 765.173 202.499 767.841 204.434C774.665 209.387 775.97 218.515 770.99 225.342C766.011 232.169 756.865 233.497 750.041 228.544C749.889 228.434 749.741 228.321 749.595 228.207L735.846 247.393C739.548 250.899 740.247 257.209 737.376 261.546L736.632 261.974C733.455 266.773 726.224 267.984 722.17 264.396C716.945 260.497 716.181 254.021 719.358 249.223C722.518 244.45 729.689 243.229 734.486 246.326L748.549 227.316C743.052 222.186 742.299 213.933 746.891 207.637C749.628 203.884 753.625 201.795 757.802 201.495L757.771 172.581C755.876 172.468 754.013 171.903 752.418 170.853C748.824 168.487 747.254 163.845 748.207 159.959L711.284 154.135C710.905 155.119 710.385 156.077 709.712 156.975C706.535 161.773 699.304 162.984 695.25 159.396C690.453 156.238 689.261 149.022 692.438 144.223C696.358 138.996 702.846 138.214 707.643 141.373C711.302 143.782 712.861 148.551 711.656 152.998L748.541 158.896C748.886 157.996 749.379 157.156 750.033 156.421C750.674 155.452 751.483 154.634 752.401 153.964L735.32 125.362C730.725 126.67 725.431 125.985 720.778 122.921C717.048 120.214 714.84 116.038 714.538 111.622L685 108.804C684.663 111.036 683.894 113.243 682.668 115.282L682.983 114.112C680.397 117.657 676.287 119.952 671.977 120.644L684.671 180.19C688.933 177.784 694.107 177.936 698.827 181.045C705.224 185.256 706.101 193.642 701.437 199.299C697.944 205.268 689.543 206.166 683.146 201.955C677.493 197.314 676.301 190.098 680.537 183.7C681.526 182.501 682.632 181.504 683.819 180.713L670.509 120.817C666.984 121.082 663.427 120.263 660.547 118.173C655.832 114.751 653.548 108.983 654.229 103.492L588.126 86.7032C587.761 87.3254 587.366 87.9391 586.939 88.542C579.841 98.568 566.123 100.559 556.844 93.0719C546.822 86.0138 545.292 73.0645 552.389 63.0386C556.545 56.7619 563.851 53.7393 571.213 54.373L578.444 14.2461C577.571 13.9052 576.736 13.4492 575.961 12.8713C572.91 10.5937 571.088 6.93237 571.029 3.15337L551.6 -0.116995C551.397 0.538603 551.102 1.17191 550.713 1.75919C550.713 1.75919 544.022 5.6223 541.567 3.08777C538.369 0.982035 537.717 -3.58171 539.835 -6.78065C541.953 -9.97949 546.525 -10.6439 548.98 -8.10924C551.046 -6.74896 552.048 -4.36261 551.929 -1.98144L571.159 1.19571C571.464 -0.84593 572.309 -2.85848 573.779 -4.64207C575.435 -6.84974 577.815 -8.41312 580.404 -9.19407L581.211 -31.3215C580.218 -31.3073 579.32 -31.5378 578.695 -32.1826C575.497 -34.2884 574.845 -38.8509 576.963 -42.0497C579.081 -45.2486 583.654 -45.9128 586.852 -43.8071C590.05 -41.7013 590.702 -37.1381 588.156 -34.6803L587.841 -33.5098C587.815 -33.495 585.046 -31.9029 582.424 -31.4438L581.719 -9.52138C584.895 -10.1377 588.25 -9.58691 590.899 -7.60998C596.124 -3.71038 597.745 4.24689 593.825 9.47452L593.081 9.90334C589.998 14.015 584.406 15.9077 579.617 14.6307L572.483 54.5194C575.952 55.0173 579.394 56.331 582.484 58.5073C591.418 64.7989 593.604 75.7721 588.946 85.1826L654.445 102.206C654.869 100.203 655.7 98.2651 656.969 96.5253C660.39 91.8355 666.127 89.5389 671.596 90.1655L679.574 62.9508C678.466 62.6627 677.403 62.2067 676.438 61.5719C671.641 58.4133 670.448 51.1979 673.625 46.3994C676.802 41.601 684.033 40.3902 689.258 44.2899C694.055 47.4485 695.247 54.664 691.642 58.7213C689.331 62.212 684.875 63.8024 680.771 63.1946L672.823 90.3575C674.883 90.7642 676.878 91.5983 678.662 92.8931C683.205 96.19 685.49 101.666 685.169 107.191L714.516 109.943C714.647 106.809 715.744 103.633 717.944 100.843C722.924 94.0162 732.813 92.2592 740.065 97.9526C746.889 102.905 748.622 112.773 743.642 119.6C741.917 121.966 739.601 123.724 736.979 124.791L753.867 153.068C757.377 151.294 761.897 151.371 765.237 153.571C767.373 154.977 768.792 157.188 769.431 159.63L786.985 155.568C786.428 151.735 787.265 147.71 789.68 144.399C794.659 137.572 804.548 135.815 811.372 140.767C818.196 145.72 819.928 155.588 814.949 162.415C812.942 165.167 810.138 167.095 807.058 168.092L820.917 214.231C824.39 212.735 828.437 213.249 831.923 215.851C833.411 216.961 834.536 218.282 835.295 219.721L853.931 212.029C853.06 209.506 853.336 206.67 855.081 204.456C857.943 200.828 863.259 199.736 866.885 202.582C870.511 205.429 871.592 210.733 868.731 214.361C868.731 214.361 860.553 219.082 856.927 216.236C855.957 215.474 855.17 214.536 854.591 213.502L835.851 220.972C837.079 224.317 836.48 228.136 833.993 231.454L834.736 231.024C833.725 232.372 832.542 233.423 831.255 234.176L836.895 240.743C843.023 236.681 851.122 236.865 857.642 241.513C865.637 246.778 867.483 258.557 861.445 266.984C857.132 273.002 850.256 275.459 843.61 274.184L820.52 333.737C821.173 334.08 821.801 334.492 822.395 334.979C823.452 335.675 824.368 336.507 825.143 337.433L840.765 322.213C837.954 318.775 837.884 313.665 840.51 309.699C843.687 304.901 850.175 304.12 854.972 307.278C859.769 310.437 860.534 316.912 857.357 321.71C856.979 322.281 856.553 322.795 856.089 323.252L886.528 350.678C888.359 348.645 890.877 347.604 893.392 347.594L894.82 319.082C892.537 318.764 890.279 317.995 888.196 316.75C881.372 311.798 879.639 301.93 884.934 293.932C889.913 287.105 899.802 285.348 906.626 290.3C913.451 295.253 915.184 305.121 910.632 312.689C907.259 317.314 901.633 319.612 896.002 319.207L894.576 347.665C896.302 347.884 897.974 348.598 899.361 349.825C903.12 352.3 904.403 356.81 903.049 360.599L925.013 368.803C925.553 367.19 926.37 365.637 927.493 364.214C933.216 356.957 943.105 355.201 950.357 360.894C955.313 364.785 957.691 370.626 957.111 376.113L987.301 378.938C987.678 377.571 988.313 376.234 989.233 375.007C991.642 371.795 995.021 370.265 998.481 370.465L998.809 356.461C997.861 356.582 996.941 356.532 996.196 356.165C994.169 354.371 993.201 350.978 994.576 348.208C996.378 346.18 999.78 345.204 1002.55 346.568C1005.32 347.933 1005.55 351.756 1004.17 354.526C1004.15 354.54 1002.16 355.683 999.993 356.232L999.656 370.598C1001.44 370.902 1003.22 371.666 1004.87 372.898C1007.19 374.63 1008.62 376.87 1009.17 379.283L1023.06 378.928C1022.58 377.373 1022.61 375.62 1023.38 374.064C1024.76 371.294 1028.59 371.059 1031.36 372.424C1033.38 374.218 1034.35 377.612 1032.98 380.382C1032.93 380.406 1027.76 383.38 1025 382.021C1024.41 381.493 1023.9 380.826 1023.52 380.077L1009.36 380.44C1009.63 383.129 1008.84 385.961 1006.93 388.5C1003.01 393.727 996.527 394.508 991.302 390.609C987.971 388.415 986.38 384.265 987.031 380.182L956.872 377.632C956.453 379.632 955.622 381.555 954.362 383.283L953.619 383.712C949.471 388.972 943.134 391.342 937.198 390.08L924.419 442.189C925.651 442.567 926.846 443.159 927.95 443.983C931.251 446.447 932.94 450.234 932.749 454.008L956.368 457.492C956.631 456.829 956.99 456.192 957.457 455.6C960.318 451.972 965.635 450.879 969.261 453.726C972.886 456.573 973.967 461.877 971.106 465.505C968.244 469.133 962.927 470.227 959.301 467.38C956.751 465.378 955.463 462.16 955.917 459.164L932.61 455.292C932.319 457.052 931.609 458.776 930.448 460.326C926.527 465.553 919.296 466.763 914.071 462.864C908.846 458.964 907.653 451.749 911.573 446.521C914.38 442.779 918.882 441.096 923.131 441.872L935.535 389.627C933.869 389.069 932.256 388.21 930.755 387.032C925.708 383.369 923.213 376.612 924.571 370.406L902.502 361.824C902.18 362.42 901.787 362.989 901.319 363.516C897.935 367.325 893.042 368.522 888.487 366.041L869.203 394.432C875.107 399.605 876.413 408.8 872.116 415.946C867.136 422.773 857.247 424.531 850.423 419.578C850.083 419.332 849.756 419.073 849.441 418.802L831.369 434.991C835.149 439.056 835.683 445.23 832.217 449.852C828.296 455.079 821.065 456.289 815.84 452.39ZM476.317 200.824C469.921 196.612 468.616 187.485 472.852 181.087C477.088 174.689 486.234 173.362 492.631 177.573C493.461 178.12 494.206 178.751 494.864 179.447L533.345 140.19C532.458 138.537 531.967 136.695 531.887 134.793L493.267 130.201C492.714 133.321 491.395 136.345 489.214 139.035C482.86 148.632 469.142 150.623 459.12 143.565C449.525 137.248 447.568 123.558 454.665 113.532C461.762 103.506 475.481 101.513 484.76 109C490.88 113.939 494.137 121.389 493.487 128.554L531.898 133.465C532.023 131.316 532.668 129.13 533.862 127.09C537.782 121.863 545.013 120.652 550.981 124.122C556.206 128.022 557.399 135.238 553.479 140.465L553.415 140.706L591.702 167.279C591.889 167.009 592.082 166.74 592.285 166.476C599.067 157.62 611.614 155.317 620.466 162.063C629.317 168.81 631.589 181.33 624.808 190.186C623.253 192.216 621.395 193.902 619.348 195.213L635.696 221.834C640.82 215.992 649.317 215.077 655.752 219.746C662.576 224.699 663.88 233.826 658.901 240.653C653.921 247.48 644.776 248.808 637.952 243.856C631.239 238.984 629.867 230.071 634.565 223.283L617.851 196.087C611.197 199.619 602.965 199.429 596.628 194.599C588.501 188.405 585.921 177.344 590.802 168.72L552.959 141.895C548.996 146.901 541.924 148.008 536.787 144.174C535.604 143.291 534.629 142.238 533.867 141.068L495.946 180.758C499.329 185.452 499.453 192.238 496.095 197.309C491.859 203.707 482.714 205.035 476.317 200.824Z" fill="white" fill-opacity="0.1"/>
</g>
<defs>
<clipPath id="clip0_1_114">
<rect width="1320" height="777" fill="white"/>
</clipPath>
</defs>
</svg>
