<svg width="629" height="276" viewBox="0 0 629 276" fill="none" xmlns="http://www.w3.org/2000/svg">
<path d="M116.996 61.9091C123.338 60.9798 129.187 65.1593 130.102 71.5167C131.017 77.874 126.838 83.7469 120.497 84.6762C120.124 84.7309 119.752 84.7651 119.384 84.785L118.5 108.566C125.7 108.715 132.299 114.011 134.173 121.508C135.465 129.705 129.833 137.798 121.661 139.12L127.79 172.129C133.253 171.096 138.191 175.029 138.508 180.301C138.547 180.491 138.579 180.681 138.606 180.869L178.967 178.539C179.47 174.252 182.939 170.707 187.455 169.771C187.888 169.681 188.319 169.625 188.745 169.596L188.742 147.899C183.555 146.683 179.338 142.285 178.815 136.903C177.304 129.513 182.73 122.227 189.884 121.514C197.256 119.986 204.513 125.414 205.21 132.586C205.784 138.48 202.771 144.595 197.71 146.984L223.144 204.061C225.01 203.028 227.104 202.288 229.369 201.906C239.397 200.212 248.061 206.889 249.732 216.941C250.035 218.765 250.062 220.545 249.845 222.247L258.485 223.008C259.836 219.504 263.023 217.008 267.291 216.382C273.632 215.453 278.669 219.416 279.802 224.958C280.016 226.443 279.959 227.856 279.672 229.164L321.731 251.726C323.99 248.237 327.6 245.656 331.917 244.964C335.682 244.361 339.422 245.23 342.49 247.143L351.842 232.124C349.699 230.53 348.082 228.197 347.542 225.551L348.354 225.768C347.713 222.629 348.775 219.384 350.822 216.952L330.97 196.635C328.848 198.682 326.063 200.116 322.853 200.63C314.669 201.941 307.413 196.514 306.12 188.309C304.838 180.174 310.162 172.942 318.231 171.542L314.407 148.531C309.677 148.28 305.24 144.534 304.269 139.783L304.486 138.967C303.353 133.426 307.532 127.553 312.844 127.223C319.185 126.294 324.221 130.256 325.354 135.798C326.486 141.34 322.308 147.212 316.779 148.358C316.554 148.405 316.327 148.439 316.101 148.469L319.551 171.368C327.271 170.695 333.937 175.997 335.171 183.827C335.879 188.32 334.572 192.537 331.902 195.649L352.045 215.702C353.432 214.478 355.107 213.585 356.929 213.207C360.595 212.447 364.401 214.031 366.643 216.736L396.628 194.868C396.457 194.307 396.325 193.724 396.238 193.122C395.106 187.58 399.284 181.708 404.595 181.377C410.124 180.231 415.973 184.41 417.106 189.952C418.021 196.309 414.06 201.366 408.531 202.513C403.891 203.474 399.026 200.684 397.041 196.004L367.284 217.608C368.054 218.792 368.541 220.137 368.626 221.567C368.855 222.685 368.864 223.817 368.692 224.921L400.455 232.889C402.735 228.784 406.887 225.575 412.25 224.463C416.723 223.746 421.162 225.108 424.444 227.962L446.913 209.364C445.595 207.58 444.593 205.512 444.026 203.243L444.622 204.275C443.951 200.014 445.209 195.562 447.719 192.081L397.471 159.579C396.186 164.216 392.488 167.712 387.048 168.839C379.676 170.367 373.232 165.156 372.534 157.984C370.806 151.409 376.015 144.938 383.387 143.41C390.541 142.698 396.39 146.877 397.9 154.266C398.048 155.787 397.974 157.25 397.699 158.625L448.618 190.94C450.881 188.303 453.921 186.395 457.374 185.842C463.029 184.936 468.629 187.351 471.977 191.637L529.556 157.289C529.376 156.603 529.224 155.902 529.101 155.186C527.053 143.287 535.191 132.357 546.844 131.097C558.714 129.022 568.787 136.948 570.835 148.847C572.317 156.096 569.347 163.278 563.795 167.961L586.694 200.848C587.537 200.477 588.435 200.212 589.375 200.074C593.079 199.532 596.889 200.808 599.559 203.39L615.328 192.136C615.013 191.54 614.777 190.895 614.639 190.217C614.639 190.217 616.596 182.879 620.064 182.93C623.75 182.166 627.379 184.881 628.134 188.575C628.889 192.27 626.176 195.913 622.708 195.861C620.327 196.355 617.971 195.397 616.397 193.661L600.834 204.838C602.042 206.468 602.856 208.453 603.076 210.714C603.463 213.399 602.898 216.141 601.644 218.485L616.48 234.405C617.159 233.705 617.943 233.239 618.825 233.252C622.511 232.488 626.139 235.202 626.895 238.896C627.65 242.591 624.937 246.235 621.251 246.999C617.565 247.763 613.937 245.049 613.994 241.571L613.398 240.538C613.408 240.503 614.223 237.475 615.723 235.334L600.959 219.625C599.182 222.264 596.469 224.217 593.254 224.689C586.912 225.618 580.251 221.222 579.335 214.864L579.553 214.05C578.833 209.05 581.399 203.845 585.612 201.398L562.811 168.743C560.056 170.812 556.751 172.295 553.091 172.935C542.51 174.785 533.358 168.689 530.044 158.915L472.722 192.68C473.821 194.365 474.592 196.29 474.921 198.38C475.809 204.017 473.423 209.603 469.189 212.974L482.587 237.418C483.557 236.846 484.612 236.422 485.724 236.192C491.253 235.046 497.102 239.226 498.235 244.768C499.367 250.31 495.189 256.182 488.847 257.112C483.319 258.258 477.469 254.078 477.149 248.752C476.325 244.721 478.313 240.515 481.586 238.081L468.205 213.694C466.491 214.846 464.526 215.655 462.386 215.998C456.938 216.871 451.541 214.66 447.92 210.601L425.628 229.113C427.718 231.38 429.166 234.348 429.579 237.816C430.872 246.021 425.228 254.123 416.231 255.218C408.047 256.529 399.978 250.885 398.685 242.68C398.237 239.837 398.621 237.005 399.7 234.44L368.299 226.562C367.096 230.237 363.903 233.329 360.053 234.127C357.592 234.637 355.068 234.09 352.924 232.839L343.563 247.874C346.617 250.148 348.836 253.525 349.463 257.503C350.756 265.707 345.112 273.809 336.928 275.12C328.743 276.431 320.674 270.787 319.381 262.583C318.86 259.276 319.466 255.986 320.911 253.151L279.184 230.767C277.814 234.222 274.645 236.681 270.414 237.301C268.609 237.566 266.909 237.432 265.38 236.961L257.793 255.269C260.153 256.414 261.935 258.576 262.263 261.327C262.8 265.837 259.87 270.295 255.372 270.843C250.873 271.39 246.431 268.459 245.894 263.949C245.905 263.909 248.297 254.981 252.785 254.434C253.988 254.288 255.187 254.391 256.309 254.706L264.124 236.479C260.944 235.012 258.702 231.945 258.121 227.911L257.904 228.726C257.668 227.087 257.758 225.534 258.128 224.116L249.641 223.482C248.212 230.566 242.462 236.075 234.701 237.385C225.486 239.295 216.009 232.402 214.338 222.35C213.145 215.171 216.209 208.681 221.711 204.942L196.307 147.532C195.615 147.749 194.892 147.9 194.141 147.975C192.923 148.228 191.708 148.289 190.525 148.185L190.269 169.621C194.613 170.051 198.216 173.55 199.152 178.13C200.284 183.672 196.324 188.729 190.795 189.875C185.266 191.021 180.23 187.059 179.097 181.517C178.962 180.857 178.901 180.204 178.904 179.564L138.687 181.709C138.83 184.394 137.806 186.868 136.066 188.625L154.913 209.411C156.721 208.043 158.824 207.005 161.136 206.42C169.32 205.109 177.39 210.753 179.278 219.99C180.571 228.195 174.927 236.297 166.743 237.608C158.558 238.92 150.488 233.275 148.383 224.853C147.507 219.296 149.815 213.785 154.006 210.147L135.196 189.401C133.845 190.451 132.186 191.118 130.369 191.231C126.037 192.129 122.009 189.891 120.313 186.319L99.3532 195.909C100.1 197.405 100.613 199.051 100.824 200.82C101.9 209.84 96.2555 217.943 87.2584 219.037C81.1097 219.785 75.3949 217.385 71.9798 213.172L49.0506 232.221C49.7408 233.433 50.2307 234.803 50.4455 236.295C51.0078 240.201 49.7265 243.614 47.1851 245.883L56.7004 255.833C57.2741 255.089 57.9481 254.483 58.7202 254.22C61.3758 254.054 64.4092 255.736 65.3821 258.616C65.5421 261.279 63.859 264.324 60.9858 265.305C58.1127 266.286 55.2967 263.788 54.3239 260.909C54.3239 260.909 54.9088 258.717 56.0374 256.816L46.2766 246.609C44.8271 247.637 43.0625 248.345 41.059 248.639C38.2427 249.051 35.6846 248.497 33.6298 247.199L24.234 257.11C25.6484 257.856 26.8447 259.097 27.3911 260.714C28.3634 263.594 25.8679 266.422 22.9948 267.402C20.3392 267.568 17.3057 265.886 16.3329 263.006C16.3329 263.006 17.8561 257.298 20.7292 256.317C21.511 256.269 22.3254 256.381 23.1104 256.636L32.6935 246.526C30.6283 244.854 29.2104 242.335 28.766 239.248C27.8507 232.89 31.8112 227.833 38.1524 226.904C41.9928 226.108 45.9861 227.882 48.3747 231.17L71.0898 211.952C69.9891 210.271 69.2265 208.359 68.8993 206.282L69.1172 205.467C68.3377 198.929 71.0885 192.873 76.0878 189.619L48.7044 144.555C47.5853 145.15 46.3434 145.57 45.0036 145.766C40.9964 146.354 37.1873 144.899 34.6941 142.146L15.8729 156.163C16.1514 156.806 16.345 157.499 16.4327 158.235C16.9701 162.745 14.0387 167.203 9.54033 167.75C5.04191 168.297 0.600988 165.367 0.0633488 160.857C-0.474246 156.347 2.45638 151.889 6.95471 151.341C10.1188 150.956 13.2527 152.293 15.0217 154.689L33.8971 141.158C32.8753 139.733 32.1689 138.042 31.8977 136.159C30.9826 129.801 35.1607 123.929 41.5021 122.999C47.8435 122.07 53.6925 126.25 54.6079 132.607C55.263 137.157 53.3073 141.458 49.818 143.876L77.5586 188.777C79.1033 188.005 80.8213 187.477 82.683 187.25C88.736 186.281 95.1693 189.235 98.5451 194.488L119.84 185.088C119.648 184.45 119.525 183.782 119.483 183.09C119.183 178.09 121.748 173.854 126.638 172.406L120.273 139.279C112.574 139.798 105.267 134.323 103.279 126.371C101.986 118.166 107.63 110.064 115.814 108.752C116.222 108.687 116.63 108.639 117.037 108.607L118.321 84.7942C112.868 84.6045 108.201 80.6898 107.392 75.0687C106.477 68.7113 110.655 62.8385 116.996 61.9091ZM527.783 0.258966C535.155 -1.26883 542.412 4.15902 543.922 11.5483C545.433 18.9376 540.006 26.2249 532.635 27.7529C531.677 27.9514 530.721 28.0309 529.779 28.0055L530.376 82.0351C532.142 82.5652 533.765 83.5028 535.144 84.7674L565.155 61.0792C563.367 58.5289 562.18 55.5108 561.822 52.1264C559.557 41.0427 567.696 30.113 579.566 28.0377C590.623 25.7458 601.509 33.8877 603.557 45.7868C605.605 57.6857 597.465 68.6147 585.813 69.8746C578.127 70.7055 570.681 67.8014 566.148 62.3758L536.061 85.6959C537.469 87.275 538.542 89.2419 539.132 91.4889C540.048 97.8462 535.869 103.718 529.31 105.463C522.969 106.392 517.12 102.214 516.204 95.8566L516.081 95.6439L471.007 103.843C471.065 104.161 471.117 104.482 471.161 104.807C472.614 115.674 465.505 126.004 454.665 127.481C443.825 128.957 433.535 121.848 432.082 110.981C431.749 108.49 431.867 106.026 432.375 103.691L402.501 96.5884C403.009 104.21 397.745 110.759 390.028 111.996C381.843 113.307 374.587 107.878 373.294 99.6739C372.001 91.4694 377.428 84.1826 385.612 82.8713C393.664 81.5815 400.818 86.8145 402.278 94.7967L432.805 102.043C434.968 94.9606 440.816 89.3632 448.578 88.3058C458.531 86.9502 468.018 92.8335 470.63 102.217L515.571 94.5019C514.84 88.2694 518.979 82.5783 525.214 81.6646C526.65 81.4542 528.06 81.5083 529.403 81.7902L528.117 27.8494C522.502 26.9454 517.693 22.3209 516.496 16.4626C514.986 9.07337 520.412 1.78694 527.783 0.258966Z" fill="#55ACBF" fill-opacity="0.1"/>
</svg>
