<svg xmlns="http://www.w3.org/2000/svg" style="display: none">
    <symbol id="icon-phone" viewBox="0 0 28 28">
        <path
            d="M7.72333 12.5883C9.40333 15.89 12.11 18.5967 15.4117 20.2767L17.9783 17.71C18.305 17.3833 18.76 17.29 19.1683 17.4183C20.475 17.85 21.875 18.0833 23.3333 18.0833C23.6428 18.0833 23.9395 18.2062 24.1583 18.425C24.3771 18.6438 24.5 18.9406 24.5 19.25V23.3333C24.5 23.6428 24.3771 23.9395 24.1583 24.1583C23.9395 24.3771 23.6428 24.5 23.3333 24.5C18.0732 24.5 13.0285 22.4104 9.30905 18.691C5.58958 14.9715 3.5 9.92679 3.5 4.66667C3.5 4.35725 3.62292 4.0605 3.84171 3.84171C4.0605 3.62292 4.35725 3.5 4.66667 3.5H8.75C9.05942 3.5 9.35616 3.62292 9.57496 3.84171C9.79375 4.0605 9.91667 4.35725 9.91667 4.66667C9.91667 6.125 10.15 7.525 10.5817 8.83167C10.71 9.24 10.6167 9.695 10.29 10.0217L7.72333 12.5883Z"
            fill="currentColor" />
    </symbol>
    <symbol id="icon-email" viewBox="0 0 17 18">
        <path d="M0 6L8.5 0L17 6L8.5 12M17 18V6L8.5 9L0 6V18" fill="currentColor" />
    </symbol>
    <symbol id="icon-pin" viewBox="0 0 28 28">
        <path
            d="M14 2.8125C10.1332 2.8125 7 5.9331 7 9.7985C7 16.4821 14 25.1985 14 25.1985C14 25.1985 21 16.4807 21 9.7985C21 5.9345 17.8668 2.8125 14 2.8125ZM14 13.6639C12.9975 13.6639 12.036 13.2656 11.3271 12.5568C10.6182 11.8479 10.22 10.8864 10.22 9.8839C10.22 8.88138 10.6182 7.91992 11.3271 7.21104C12.036 6.50215 12.9975 6.1039 14 6.1039C15.0025 6.1039 15.964 6.50215 16.6729 7.21104C17.3818 7.91992 17.78 8.88138 17.78 9.8839C17.78 10.8864 17.3818 11.8479 16.6729 12.5568C15.964 13.2656 15.0025 13.6639 14 13.6639Z"
            fill="currentColor" />
    </symbol>
    <symbol id="icon-doc" viewBox="0 0 15 18">
        <path
            d="M8.9375 0C8.99828 0 9.05663 0.0244057 9.09961 0.0673828C9.14248 0.110344 9.16699 0.16879 9.16699 0.229492V5.40527C9.16699 5.58761 9.23923 5.76267 9.36816 5.8916C9.49709 6.02053 9.67216 6.09277 9.85449 6.09277H13.9795C14.0402 6.09286 14.0987 6.11726 14.1416 6.16016C14.1845 6.20312 14.208 6.26157 14.208 6.32227V15.3545C14.2079 16.0229 13.9424 16.664 13.4697 17.1367C12.997 17.6094 12.356 17.875 11.6875 17.875H2.52051C1.85206 17.8749 1.21095 17.6094 0.738281 17.1367C0.26561 16.664 8.61053e-05 16.0229 0 15.3545V2.52051C8.62079e-05 1.85206 0.26561 1.21095 0.738281 0.738281C1.21095 0.26561 1.85206 8.6208e-05 2.52051 0H8.9375ZM4.35449 12.833C4.17216 12.833 3.9971 12.9062 3.86816 13.0352C3.73941 13.164 3.66708 13.3384 3.66699 13.5205C3.66699 13.7028 3.73923 13.8779 3.86816 14.0068C3.9971 14.1358 4.17216 14.208 4.35449 14.208H9.85449C10.0366 14.2079 10.211 14.1356 10.3398 14.0068C10.4688 13.8779 10.542 13.7028 10.542 13.5205C10.5419 13.3383 10.4687 13.164 10.3398 13.0352C10.211 12.9063 10.0367 12.8331 9.85449 12.833H4.35449ZM4.35449 9.16699C4.17216 9.16699 3.9971 9.23923 3.86816 9.36816C3.73923 9.4971 3.66699 9.67216 3.66699 9.85449C3.66708 10.0366 3.73941 10.211 3.86816 10.3398C3.9971 10.4688 4.17216 10.542 4.35449 10.542H9.85449C10.0367 10.5419 10.211 10.4687 10.3398 10.3398C10.4687 10.211 10.5419 10.0367 10.542 9.85449C10.542 9.67216 10.4688 9.4971 10.3398 9.36816C10.211 9.23941 10.0366 9.16708 9.85449 9.16699H4.35449ZM10.543 0.525391C10.5433 0.357058 10.7196 0.250377 10.8506 0.355469C10.9618 0.445302 11.0613 0.549779 11.1475 0.668945L13.9092 4.51562C13.9715 4.60362 13.9031 4.71777 13.7949 4.71777H10.7725C10.7117 4.71777 10.6533 4.69336 10.6104 4.65039C10.5674 4.60741 10.543 4.54906 10.543 4.48828V0.525391Z"
            fill="currentColor" />
    </symbol>
    <symbol id="icon-arrow-up-right" viewBox="0 0 28 28">
        <path d="M8 20L20 8M20 8H11M20 8V17" stroke="currentColor" fill="none" stroke-width="2"
            stroke-linecap="round" stroke-linejoin="round" />
    </symbol>

    <symbol id="icon-arrow-chevron" viewBox="0 0 32 32">
        <path d="M12 25L21 15.5L12 6" stroke="currentColor" fill="none" stroke-width="2"
            stroke-linecap="round" stroke-linejoin="round" />
    </symbol>
    <symbol id="icon-panels-chevron" viewBox="0 0 32 32">
        <path d="M7 11L16.5 20L26 11" stroke="currentColor" fill="none" stroke-width="2"
            stroke-linecap="round" stroke-linejoin="round" />
    </symbol>
    <symbol id="icon-hero-chemistry" viewBox="0 0 29 27">
        <path
            d="M9.08789 23.2207C9.92442 23.2207 10.6025 23.8988 10.6025 24.7354C10.6025 25.5719 9.92444 26.25 9.08789 26.25C8.25148 26.2498 7.57324 25.5718 7.57324 24.7354C7.57327 23.8989 8.2515 23.2209 9.08789 23.2207ZM9.08789 24.2207C8.80378 24.2209 8.57327 24.4512 8.57324 24.7354C8.57324 25.0195 8.80377 25.2498 9.08789 25.25C9.37215 25.25 9.60254 25.0196 9.60254 24.7354C9.60251 24.4511 9.37214 24.2207 9.08789 24.2207ZM19.7529 0.00390625C19.8962 0.0217388 20.0262 0.100873 20.1074 0.222656L23.1367 4.7666C23.2486 4.93449 23.2486 5.15337 23.1367 5.32129L20.292 9.58789L22.9883 13.6328H27.2646C27.5408 13.6328 27.7646 13.8567 27.7646 14.1328C27.7644 14.4087 27.5406 14.6328 27.2646 14.6328H22.9883L20.292 18.6768L23.1367 22.9434C23.2897 23.1731 23.2277 23.4836 22.998 23.6367C22.7683 23.7899 22.4579 23.7277 22.3047 23.498L19.4238 19.1768H15.3545L12.4707 22.0596C12.2754 22.2545 11.9588 22.2547 11.7637 22.0596C11.5686 21.8644 11.5687 21.5478 11.7637 21.3525L14.5029 18.6123L11.8486 14.6318H7.78125L4.89746 17.5156C4.70222 17.7106 4.38562 17.7107 4.19043 17.5156C3.99524 17.3204 3.9954 17.0039 4.19043 16.8086L6.92969 14.0674L4.27637 10.0879H1.51465C1.23851 10.0879 1.01465 9.86403 1.01465 9.58789C1.01483 9.31191 1.23862 9.08789 1.51465 9.08789H4.27637L6.92969 5.10742L2.67578 0.853516C2.48056 0.658261 2.48056 0.341739 2.67578 0.146484C2.87103 -0.0487682 3.18755 -0.048749 3.38281 0.146484L7.78027 4.54395H11.8496L14.7314 0.222656L14.7686 0.172852C14.8628 0.0637569 15.0012 0 15.1475 0H19.6914L19.7529 0.00390625ZM1.51465 18.6768C2.35118 18.6768 3.02927 19.3549 3.0293 20.1914C3.02916 21.0278 2.35112 21.7061 1.51465 21.7061C0.678207 21.706 0.000131925 21.0278 0 20.1914C3.10515e-05 19.3549 0.678145 18.6768 1.51465 18.6768ZM1.51465 19.6768C1.23043 19.6768 1.00003 19.9072 1 20.1914C1.00013 20.4755 1.23049 20.706 1.51465 20.7061C1.79883 20.7061 2.02917 20.4756 2.0293 20.1914C2.02927 19.9072 1.79889 19.6768 1.51465 19.6768ZM13.3916 13.1201L12.8135 13.9893L12.7178 14.1318L15.415 18.1768H19.4238L22.1191 14.1318L19.4238 10.0879H15.415L13.3916 13.1201ZM5.14453 9.58789L7.84082 13.6318H11.8496L14.5449 9.58789L11.8496 5.54395H7.84082L5.14453 9.58789ZM12.7178 5.04297L13.3916 6.05469L15.415 9.08789H19.4238L22.1191 5.04395L19.4238 1H15.415L12.7178 5.04297ZM27.2646 3.5293C28.1012 3.5293 28.7793 4.20742 28.7793 5.04395C28.7793 5.88049 28.1012 6.55859 27.2646 6.55859C26.4281 6.55856 25.75 5.88048 25.75 5.04395C25.75 4.20744 26.4281 3.52933 27.2646 3.5293ZM27.2646 4.5293C26.9804 4.52933 26.75 4.75973 26.75 5.04395C26.75 5.32819 26.9804 5.55856 27.2646 5.55859C27.5489 5.55859 27.7793 5.32821 27.7793 5.04395C27.7793 4.75971 27.5489 4.5293 27.2646 4.5293Z"
            fill="currentColor" />
    </symbol>
    <symbol id="icon-hero-panels" viewBox="0 0 25 28">
        <path
            d="M19.7126 17.2256C19.9216 17.2258 20.1088 17.3558 20.1814 17.5518L20.5232 18.4756L20.8259 19.2803C21.0907 19.9599 21.2619 20.2944 21.5222 20.5547C21.8678 20.9001 22.346 21.0892 23.5994 21.5527H23.6003L24.5232 21.8945C24.7192 21.9673 24.8503 22.1542 24.8503 22.3633C24.8501 22.5722 24.7191 22.7595 24.5232 22.832L23.6003 23.1738H23.5994C22.345 23.6372 21.8683 23.8259 21.5212 24.1729C21.1757 24.5185 20.9868 24.9964 20.5232 26.25V26.251L20.1814 27.1738C20.1087 27.3697 19.9215 27.5008 19.7126 27.501C19.5036 27.501 19.3167 27.3697 19.2439 27.1738L18.9021 26.251V26.25C18.4965 25.1532 18.3009 24.6497 18.0261 24.3086L17.9031 24.1719C17.6427 23.9123 17.3087 23.7412 16.6296 23.4766L15.825 23.1738L14.9011 22.832C14.7053 22.7594 14.5752 22.5721 14.575 22.3633C14.575 22.1542 14.7051 21.9672 14.9011 21.8945L15.825 21.5527L16.6296 21.249C17.3092 20.9843 17.6438 20.8139 17.9041 20.5537C18.2497 20.2081 18.4384 19.7294 18.9021 18.4756L19.2439 17.5518L19.2761 17.4814C19.3635 17.3252 19.5297 17.2256 19.7126 17.2256ZM16.3992 0C16.6752 0.000131897 16.8992 0.223939 16.8992 0.5C16.8992 0.776061 16.6752 0.999868 16.3992 1H14.9119V8.98828L17.5046 13.9395C17.6327 14.184 17.5381 14.4861 17.2937 14.6143C17.0492 14.7422 16.747 14.6478 16.6189 14.4033L16.1921 13.5879H6.00757L1.3064 22.5615C1.09184 22.9714 0.986485 23.4301 1.00073 23.8926C1.01504 24.355 1.14898 24.8063 1.38843 25.2021C1.62783 25.5978 1.96521 25.925 2.36792 26.1523C2.77093 26.3797 3.2265 26.4998 3.68921 26.5H15.074C15.35 26.5001 15.574 26.7239 15.574 27C15.574 27.2761 15.35 27.4999 15.074 27.5H3.68823C3.0536 27.4996 2.42946 27.3353 1.87671 27.0234C1.32401 26.7116 0.860446 26.2627 0.531982 25.7197C0.203471 25.1766 0.0212577 24.5573 0.00170898 23.9229C-0.0178007 23.2885 0.126318 22.6599 0.420654 22.0977L7.28687 8.99023V1H5.79956C5.52342 1 5.29956 0.776142 5.29956 0.5C5.29956 0.223858 5.52342 0 5.79956 0H16.3992ZM19.7126 19.1611C19.3512 20.1352 19.0939 20.778 18.6111 21.2607C18.1271 21.7445 17.4847 22.0018 16.5105 22.3633C17.4846 22.7248 18.1254 22.9817 18.6091 23.4639L18.6101 23.4648C19.0934 23.9485 19.3506 24.5905 19.7117 25.5635C20.0729 24.59 20.3316 23.9484 20.8142 23.4658C21.298 22.9821 21.9381 22.7238 22.9128 22.3623C21.9398 22.0012 21.2977 21.744 20.8152 21.2617C20.3313 20.7778 20.0741 20.1352 19.7126 19.1611ZM8.28687 9.1123C8.28687 9.19308 8.26769 9.27317 8.23022 9.34473L6.53101 12.5879H15.6677L13.9695 9.34473C13.932 9.27314 13.9119 9.19312 13.9119 9.1123V1H8.28687V9.1123Z"
            fill="currentColor" />
    </symbol>
    <symbol id="icon-hero-microscope" viewBox="0 0 25 29">
        <path
            d="M10.9141 0.0358887C11.4599 -0.0360337 12.0152 0.000494778 12.5469 0.143311C13.0784 0.286145 13.5765 0.532303 14.0127 0.86792C14.4489 1.20359 14.8146 1.62215 15.0889 2.09937L19.5146 9.78784L19.9717 10.5906C20.1053 10.8323 20.2194 11.0503 20.3115 11.2498C20.4986 11.6549 20.6172 12.0296 20.6172 12.4294C20.6171 12.9049 20.4922 13.3734 20.2539 13.7878L20.2529 13.7888C20.0529 14.1342 19.7644 14.399 19.4004 14.656C19.0421 14.909 18.5708 15.1809 17.9814 15.5222L17.9805 15.5232C17.3914 15.8636 16.921 16.1366 16.5234 16.321C16.1195 16.5084 15.746 16.6266 15.3467 16.6267C14.8696 16.6267 14.4019 16.5013 13.9883 16.2625H13.9873C13.6424 16.0622 13.3785 15.7727 13.1221 15.408C12.8696 15.0487 12.5978 14.5762 12.2578 13.9851V13.9861L11.7627 13.1257C11.7429 13.1345 11.7241 13.1457 11.7041 13.1541C11.3788 13.2888 11.0298 13.3582 10.6777 13.3582C10.3259 13.3581 9.97743 13.2886 9.65234 13.1541C9.32719 13.0194 9.03112 12.8218 8.78223 12.573C8.53331 12.3241 8.3359 12.0281 8.20117 11.7029C8.1332 11.5388 8.08204 11.3686 8.04785 11.1951C7.40816 11.2427 6.77897 11.3903 6.18457 11.6365C5.45152 11.9401 4.78472 12.385 4.22363 12.946C3.66257 13.5071 3.21774 14.1739 2.91406 14.907C2.61043 15.64 2.45413 16.426 2.4541 17.2195C2.45411 18.013 2.61042 18.7989 2.91406 19.532C3.21767 20.2649 3.6627 20.9309 4.22363 21.4919C4.78477 22.0531 5.45141 22.4988 6.18457 22.8025C6.91766 23.1061 7.70359 23.2625 8.49707 23.2625H8.86328L9.14453 22.4187C9.27416 22.0295 9.52368 21.6908 9.85645 21.4509C10.1892 21.2111 10.5888 21.0817 10.999 21.0818H11.083C11.4932 21.0817 11.8928 21.2111 12.2256 21.4509C12.5584 21.6908 12.8079 22.0295 12.9375 22.4187L13.2188 23.2625H20.8555C21.1314 23.2626 21.3553 23.4865 21.3555 23.7625C21.3554 24.0385 21.1315 24.2623 20.8555 24.2625H13.5518L14.6729 27.6248H23.7637C24.0398 27.6248 24.2637 27.8486 24.2637 28.1248C24.2636 28.4008 24.0398 28.6248 23.7637 28.6248H0.5C0.223913 28.6248 8.96589e-05 28.4008 0 28.1248C0 27.8486 0.223858 27.6248 0.5 27.6248H7.40918L8.53027 24.2625H8.49707C7.57223 24.2625 6.65621 24.0802 5.80176 23.7263C4.9473 23.3724 4.17058 22.8539 3.5166 22.2C2.86264 21.546 2.34417 20.7692 1.99023 19.9148C1.63634 19.0604 1.45411 18.1443 1.4541 17.2195C1.45413 16.2947 1.63633 15.3786 1.99023 14.5242C2.34417 13.6698 2.86269 12.8929 3.5166 12.239C4.17053 11.5851 4.9474 11.0665 5.80176 10.7126C6.51576 10.4169 7.27282 10.2429 8.04199 10.1931C8.13944 9.6619 8.39501 9.16822 8.78223 8.78101C8.88253 8.68072 8.99113 8.59081 9.10449 8.50854L7.83105 6.29761V6.29663C7.27569 5.33239 7.1245 4.18698 7.41211 3.11206C7.69984 2.03719 8.40252 1.12021 9.36523 0.562256L9.54688 0.463623C9.97421 0.243771 10.4366 0.0988434 10.9141 0.0358887ZM10.999 22.0818C10.7987 22.0817 10.6029 22.1444 10.4404 22.2615C10.2781 22.3785 10.1571 22.5443 10.0938 22.7341L8.46387 27.6248H13.6182L11.9883 22.7341C11.925 22.5443 11.8039 22.3785 11.6416 22.2615C11.4791 22.1444 11.2833 22.0817 11.083 22.0818H10.999ZM20.6045 17.1189C20.8434 16.9806 21.1497 17.0618 21.2881 17.3005C21.4263 17.5395 21.3444 17.8459 21.1055 17.9841L17.9102 19.8337C17.6712 19.9719 17.3649 19.89 17.2266 19.6511C17.0885 19.4122 17.1704 19.1068 17.4092 18.9685L20.6045 17.1189ZM12.2871 1.10913C11.8825 1.00045 11.4603 0.972366 11.0449 1.0271C10.6298 1.08181 10.2296 1.21793 9.86719 1.42749C9.1335 1.8527 8.59819 2.55169 8.37891 3.37085C8.15975 4.18999 8.27408 5.0628 8.69727 5.79761L10.0127 8.08276C10.2284 8.02744 10.4512 7.99586 10.6777 7.99585C11.3887 7.99585 12.0705 8.27836 12.5732 8.78101C13.0759 9.28371 13.3583 9.96559 13.3584 10.6765C13.3584 11.0286 13.289 11.3776 13.1543 11.7029C13.0224 12.0212 12.8295 12.3108 12.5879 12.5564L13.124 13.4861L13.125 13.4871C13.4738 14.0935 13.7192 14.5193 13.9395 14.8328C14.1557 15.1404 14.3211 15.2995 14.4893 15.3972H14.4883C14.7493 15.5479 15.0446 15.6267 15.3467 15.6267C15.5403 15.6266 15.7618 15.5719 16.1025 15.4138C16.4499 15.2527 16.8748 15.0069 17.4805 14.657L18.2617 14.2C18.4825 14.067 18.6668 13.95 18.8232 13.8396C19.1297 13.6232 19.2887 13.4576 19.3867 13.2888C19.5377 13.0261 19.6171 12.7298 19.6172 12.4294C19.6172 12.2347 19.5614 12.0111 19.4033 11.6687C19.2423 11.3202 18.9974 10.8935 18.6484 10.2869L14.2227 2.59839L14.2217 2.59741C14.0131 2.23451 13.735 1.91622 13.4033 1.66089C13.0713 1.40543 12.6917 1.21782 12.2871 1.10913ZM10.6777 8.99585C10.232 8.99588 9.80446 9.17288 9.48926 9.48804C9.17409 9.80321 8.99715 10.2308 8.99707 10.6765C8.99707 10.8973 9.04052 11.1161 9.125 11.3201C9.20944 11.5239 9.33328 11.709 9.48926 11.865C9.6453 12.021 9.83032 12.1457 10.0342 12.2302C10.2381 12.3147 10.457 12.3581 10.6777 12.3582C10.8985 12.3582 11.1173 12.3147 11.3213 12.2302C11.5252 12.1457 11.7101 12.0211 11.8662 11.865C12.0222 11.7089 12.146 11.5239 12.2305 11.3201C12.3149 11.1161 12.3584 10.8973 12.3584 10.6765C12.3583 10.2308 12.1814 9.80321 11.8662 9.48804C11.551 9.17293 11.1235 8.99585 10.6777 8.99585Z"
            fill="currentColor" />
    </symbol>
    <symbol id="icon-hero-doc" viewBox="0 0 22 25">
        <path
            d="M12.2891 0.00976562L12.3828 0.0390625C12.4048 0.0483899 12.425 0.0609844 12.4453 0.0732422C12.4525 0.0775808 12.4608 0.0802283 12.4678 0.0849609C12.4822 0.0946917 12.4945 0.107026 12.5078 0.118164C12.5201 0.128416 12.5327 0.138054 12.5439 0.149414L20.8066 8.42871C20.9444 8.51775 21.0361 8.67238 21.0361 8.84863V20.5332L21.0312 20.7197C20.9787 21.65 20.5032 22.5318 19.8496 23.1846C19.1958 23.8373 18.3132 24.3123 17.3838 24.3691L17.1973 24.375H3.83984L3.65332 24.3691C2.72404 24.3124 1.84317 23.8382 1.19043 23.1855C0.494254 22.4894 0.00113748 21.5334 0.000976562 20.5361V20.5332C0.000959334 20.5316 1.626e-06 20.53 0 20.5283V3.83984C0 3.83576 0.000879126 3.83121 0.000976562 3.82715C0.00419376 2.83301 0.498302 1.89074 1.19238 1.20215C1.88891 0.511247 2.84019 0.0220231 3.8291 0H12.1885C12.2229 2.82043e-05 12.2566 0.00311439 12.2891 0.00976562ZM3.85059 1C3.17017 1.01528 2.45203 1.36103 1.89648 1.91211C1.34061 2.46359 1.00098 3.16742 1.00098 3.83691C1.00098 3.84018 1.00006 3.84343 1 3.84668V20.5254C1.00007 20.5288 1.00098 20.5327 1.00098 20.5361C1.00114 21.2082 1.34165 21.9227 1.89746 22.4785C2.45337 23.0343 3.16774 23.375 3.83984 23.375H17.1973C17.8695 23.375 18.5865 23.0337 19.1436 22.4775C19.7005 21.9214 20.0396 21.2079 20.0361 20.5391V9.34863H15.5273C14.532 9.34863 13.5773 8.85083 12.8818 8.1543C12.1889 7.46012 11.6948 6.50951 11.6885 5.52051C11.6884 5.51661 11.6875 5.51271 11.6875 5.50879V1H3.85059ZM8.84863 20.0361C9.12478 20.0361 9.34863 20.26 9.34863 20.5361C9.34837 20.8121 9.12461 21.0361 8.84863 21.0361H3.83984C3.56386 21.0361 3.34011 20.8121 3.33984 20.5361C3.33984 20.26 3.5637 20.0361 3.83984 20.0361H8.84863ZM12.1885 16.6963C12.4643 16.6965 12.6883 16.9204 12.6885 17.1963C12.6885 17.4723 12.4644 17.6961 12.1885 17.6963H3.83984C3.5637 17.6963 3.33984 17.4724 3.33984 17.1963C3.33998 16.9203 3.56378 16.6963 3.83984 16.6963H12.1885ZM8.84863 13.3574C9.12478 13.3574 9.34863 13.5813 9.34863 13.8574C9.3485 14.1335 9.12469 14.3574 8.84863 14.3574H3.83984C3.56378 14.3574 3.33998 14.1335 3.33984 13.8574C3.33984 13.5813 3.5637 13.3574 3.83984 13.3574H8.84863ZM12.6875 5.49707C12.6876 5.50032 12.6885 5.50357 12.6885 5.50684C12.6905 6.1746 13.0328 6.89029 13.5898 7.44824C14.1469 8.0061 14.8599 8.34766 15.5273 8.34766C15.5303 8.34766 15.5332 8.34858 15.5361 8.34863H19.3145L12.6875 1.70801V5.49707Z"
            fill="currentColor" />
    </symbol>
    <symbol id="icon-close" viewBox="0 0 19 19">
        <path d="M0.5 18.5L18.5 0.5M18.5 18.5L0.5 0.5" stroke="currentColor" fill="none"
            stroke-linecap="round" stroke-linejoin="round" />
    </symbol>
    <symbol id="icon-check" viewBox="0 0 20 20">
        <path d="M4 10.5L8 14.5L16 6" stroke="currentColor" fill="none" stroke-width="2"
            stroke-linecap="round" stroke-linejoin="round" />
    </symbol>
    <symbol id="icon-pagination-arrow" viewBox="0 0 21.5 21.5">
        <circle cx="10.75" cy="10.75" r="10.5" stroke="currentColor" stroke-width="0.5" fill="none" />
        <path d="M9 6.5L13.5 11L9 15.5" stroke="currentColor" fill="none" stroke-linecap="round"
            stroke-linejoin="round" />
    </symbol>
    <symbol id="icon-tab-plus" viewBox="0 0 16 16">
        <path
            d="M6.34121 16V9.55897H0V6.48205H6.34121V0H9.70079V6.48205H16V9.55897H9.70079V16H6.34121Z"
            fill="currentColor" />
    </symbol>
    <symbol id="icon-star" viewBox="0 0 26 26">
        <path d="M13 2l3.1 6.3 7 1-5 4.9 1.2 7L13 18.2 6.7 21.2 7.9 14 3 9.3l7-1L13 2z"
            fill="currentColor" />
    </symbol>
    <symbol id="icon-play" viewBox="0 0 88 88">
        <circle cx="44" cy="44" r="42" fill="currentColor" opacity="0.9" />
        <path d="M36 28l32 16-32 16V28z" fill="#fff" />
    </symbol>
    <symbol id="icon-pick-play" viewBox="0 0 38 61">
        <g clip-path="url(#clip0_pick_play)">
            <path
                d="M37.3788 31.6779L1.51244 59.7208C1.09832 60.0501 0.742715 60.0881 0.445629 59.8348C0.148543 59.5815 0 59.1255 0 58.4668V2.53315C0 1.87451 0.148543 1.41853 0.445629 1.16521C0.742715 0.911888 1.09832 0.949886 1.51244 1.27921L37.3788 29.322C37.7929 29.6514 38 30.044 38 30.5C38 30.956 37.7929 31.3486 37.3788 31.6779Z"
                fill="#55ACBF" />
        </g>
        <defs>
            <clipPath id="clip0_pick_play">
                <rect width="38" height="61" fill="white" />
            </clipPath>
        </defs>
    </symbol>
    <symbol id="icon-check-circle" viewBox="0 0 28 28">
        <circle cx="14" cy="14" r="12" stroke="currentColor" fill="none" stroke-width="1.5" />
        <path d="M9 14l3 3 7-7" stroke="currentColor" fill="none" stroke-width="1.5"
            stroke-linecap="round" stroke-linejoin="round" />
    </symbol>
    <symbol id="icon-close-circle" viewBox="0 0 28 28">
        <circle cx="14" cy="14" r="12" stroke="currentColor" fill="none" stroke-width="1.5" />
        <path d="M11 11l6 6M17 11l-6 6" stroke="currentColor" fill="none" stroke-width="1.5"
            stroke-linecap="round" />
    </symbol>
    <symbol id="icon-eye-info" viewBox="0 0 36 36">
        <path
            d="M15 18C15 18.7956 15.3161 19.5587 15.8787 20.1213C16.4413 20.6839 17.2044 21 18 21C18.7956 21 19.5587 20.6839 20.1213 20.1213C20.6839 19.5587 21 18.7956 21 18C21 17.2044 20.6839 16.4413 20.1213 15.8787C19.5587 15.3161 18.7956 15 18 15C17.2044 15 16.4413 15.3161 15.8787 15.8787C15.3161 16.4413 15 17.2044 15 18Z"
            stroke="currentColor" stroke-width="2" stroke-linecap="round" stroke-linejoin="round" fill="none" />
        <path
            d="M21.1065 26.646C20.0882 26.8839 19.0457 27.0027 18 27C12.6 27 8.1 24 4.5 18C8.1 12 12.6 9 18 9C23.019 9 27.26 11.591 30.723 16.773M28.5 33V33.015M28.5 28.5C29.1724 28.4979 29.8247 28.2702 30.3525 27.8534C30.8802 27.4367 31.2529 26.8549 31.4108 26.2013C31.5688 25.5477 31.5029 24.8599 31.2237 24.2482C30.9446 23.6364 30.4682 23.136 29.871 22.827C29.2743 22.5213 28.5917 22.4265 27.9342 22.5581C27.2768 22.6896 26.6832 23.0397 26.25 23.5515"
            stroke="currentColor" stroke-width="2" stroke-linecap="round" stroke-linejoin="round" fill="none" />
    </symbol>
</svg>