<svg xmlns="http://www.w3.org/2000/svg" style="display: none">
    <symbol id="icon-phone" viewBox="0 0 22 22">
        <path d="M6.5 2h3l1.5 5-2 1.2a12 12 0 005.3 5.3L15.5 12l5 1.5v3A2.5 2.5 0 0118 19C9.7 19 3 12.3 3 4a2.5 2.5 0 012.5-2z" stroke="currentColor" fill="none" stroke-width="1.5" stroke-linecap="round" stroke-linejoin="round"/>
    </symbol>
    <symbol id="icon-email" viewBox="0 0 22 22">
        <path d="M3 5h16v12H3V5zm0 0 8 7 8-7" stroke="currentColor" fill="none" stroke-width="1.5" stroke-linecap="round" stroke-linejoin="round"/>
    </symbol>
    <symbol id="icon-pin" viewBox="0 0 22 22">
        <path d="M11 19s6-5.2 6-10a6 6 0 10-12 0c0 4.8 6 10 6 10z" stroke="currentColor" fill="none" stroke-width="1.5" stroke-linecap="round" stroke-linejoin="round"/>
        <circle cx="11" cy="9" r="2" fill="currentColor"/>
    </symbol>
    <symbol id="icon-doc" viewBox="0 0 22 22">
        <path d="M7 3h7l5 5v11a1 1 0 01-1 1H7a1 1 0 01-1-1V4a1 1 0 011-1z" stroke="currentColor" fill="none" stroke-width="1.5" stroke-linejoin="round"/>
        <path d="M14 3v5h5M9 12h4M9 15h4" stroke="currentColor" fill="none" stroke-width="1.5" stroke-linecap="round"/>
    </symbol>
    <symbol id="icon-arrow-up-right" viewBox="0 0 28 28">
        <path d="M8 20L20 8M20 8H11M20 8V17" stroke="currentColor" fill="none" stroke-width="2" stroke-linecap="round" stroke-linejoin="round"/>
    </symbol>
    <symbol id="icon-close" viewBox="0 0 19 19">
        <path d="M0.5 18.5L18.5 0.5M18.5 18.5L0.5 0.5" stroke="currentColor" fill="none" stroke-linecap="round" stroke-linejoin="round"/>
    </symbol>
    <symbol id="icon-check" viewBox="0 0 20 20">
        <path d="M4 10.5L8 14.5L16 6" stroke="currentColor" fill="none" stroke-width="2" stroke-linecap="round" stroke-linejoin="round"/>
    </symbol>
    <symbol id="icon-tab-plus" viewBox="0 0 36 36">
        <circle cx="18" cy="18" r="17" stroke="currentColor" fill="none" stroke-width="1"/>
        <path d="M18 11v14M11 18h14" stroke="currentColor" stroke-width="1.5" stroke-linecap="round"/>
    </symbol>
    <symbol id="icon-star" viewBox="0 0 26 26">
        <path d="M13 2l3.1 6.3 7 1-5 4.9 1.2 7L13 18.2 6.7 21.2 7.9 14 3 9.3l7-1L13 2z" fill="currentColor"/>
    </symbol>
    <symbol id="icon-play" viewBox="0 0 88 88">
        <circle cx="44" cy="44" r="42" fill="currentColor" opacity="0.9"/>
        <path d="M36 28l32 16-32 16V28z" fill="#fff"/>
    </symbol>
    <symbol id="icon-check-circle" viewBox="0 0 28 28">
        <circle cx="14" cy="14" r="12" stroke="currentColor" fill="none" stroke-width="1.5"/>
        <path d="M9 14l3 3 7-7" stroke="currentColor" fill="none" stroke-width="1.5" stroke-linecap="round" stroke-linejoin="round"/>
    </symbol>
    <symbol id="icon-close-circle" viewBox="0 0 28 28">
        <circle cx="14" cy="14" r="12" stroke="currentColor" fill="none" stroke-width="1.5"/>
        <path d="M11 11l6 6M17 11l-6 6" stroke="currentColor" fill="none" stroke-width="1.5" stroke-linecap="round"/>
    </symbol>
    <symbol id="icon-eye-info" viewBox="0 0 36 36">
        <path d="M18 8c-6 0-10.5 4.5-12 10 1.5 5.5 6 10 12 10s10.5-4.5 12-10c-1.5-5.5-6-10-12-10z" stroke="currentColor" fill="none" stroke-width="1.5"/>
        <circle cx="18" cy="18" r="4" stroke="currentColor" fill="none" stroke-width="1.5"/>
        <path d="M18 22v4M16 26h4" stroke="currentColor" stroke-width="1.5" stroke-linecap="round"/>
    </symbol>
</svg>
