<svg width="873" height="481" viewBox="0 0 873 481" fill="none" xmlns="http://www.w3.org/2000/svg">
<g clip-path="url(#clip0_1_2775)">
<path d="M539.503 231.586C542.931 236.065 549.187 237.021 553.668 233.575C558.149 230.128 559.12 223.86 555.691 219.38C555.489 219.117 555.277 218.866 555.056 218.627L569.102 203.087C573.734 207.415 581.149 208.128 586.935 204.551C592.784 200.176 594.202 191.614 589.859 185.762L613.996 168.711C616.807 172.716 622.337 173.267 625.774 170.137C625.915 170.042 626.051 169.942 626.183 169.84L650.209 196.09C647.894 199.102 647.904 203.466 650.177 206.829C650.395 207.151 650.633 207.451 650.884 207.73L637.556 221.41C633.539 218.993 628.178 219.178 624.543 222.25C619.053 225.982 618.001 233.908 622.075 238.75C625.786 244.239 633.695 245.271 638.54 241.177C642.52 237.813 644.376 232.108 642.652 227.494L693.744 207.118C694.286 208.915 695.152 210.667 696.345 212.299C701.63 219.523 711.195 220.632 718.421 215.32C719.732 214.355 720.842 213.25 721.75 212.044L727.667 216.869C726.368 219.907 726.845 223.437 729.152 226.452C732.581 230.931 738.191 231.525 742.309 228.726C743.356 227.92 744.188 226.994 744.81 225.994L785.191 237.588C784.473 241.175 785.165 245.019 787.462 248.105C789.466 250.797 792.359 252.545 795.469 253.222L792.143 268.436C789.813 268.126 787.36 268.605 785.395 269.941L786.041 270.304C783.709 271.889 782.387 274.587 782.184 277.377L757.187 278.001C757.105 275.407 756.229 272.793 754.521 270.499C750.164 264.647 742.254 263.614 736.4 267.994C730.596 272.337 729.512 280.166 733.741 286.003L717.199 298.164C714.061 295.419 708.963 295.057 705.434 297.456L705.07 298.104C700.952 300.904 699.982 307.172 703.128 310.641C706.557 315.12 712.166 315.713 716.284 312.914C720.402 310.115 721.372 303.847 718.589 299.73C718.476 299.562 718.353 299.401 718.228 299.244L734.467 286.922C738.923 292.087 746.384 292.836 751.971 288.656C755.176 286.257 756.94 282.796 757.167 279.194L782.187 278.916C782.311 280.539 782.818 282.131 783.735 283.488C785.581 286.218 788.953 287.556 792.028 287.227L797.509 319.425C797.057 319.674 796.617 319.96 796.192 320.287C792.074 323.086 791.103 329.354 794.25 332.824C797.033 336.94 803.288 337.896 807.405 335.097C811.887 331.65 812.494 326.03 809.712 321.913C807.375 318.457 802.594 317.23 798.467 318.963L792.969 287.07C794.181 286.796 795.314 286.248 796.246 285.4C797.077 284.834 797.777 284.125 798.347 283.324L823.27 297.799C822.187 301.788 822.837 306.361 825.536 310.354C827.918 313.553 831.553 315.419 835.376 315.634L838.125 341.158C836.198 341.474 834.297 342.162 832.546 343.244L833.555 342.96C830.515 345.234 828.574 348.813 828.02 352.549L776.371 342.195C778.407 338.482 778.222 334.008 775.483 329.957C771.772 324.468 764.508 323.798 759.663 327.893C754.537 330.977 753.848 338.255 757.559 343.745C761.633 348.586 767.888 349.541 773.378 345.809C774.406 344.941 775.257 343.973 775.929 342.937L827.885 353.821C827.693 356.874 828.44 359.943 830.278 362.412C833.288 366.455 838.304 368.37 843.047 367.723L858.267 424.733C857.733 425.055 857.206 425.404 856.689 425.78C848.09 432.026 846.511 443.915 853.086 451.864C859.298 460.46 870.518 461.647 879.117 455.401C884.503 451.74 887.04 445.387 886.414 439.025L921.055 432.346C921.359 433.097 921.76 433.815 922.268 434.479C924.271 437.095 927.457 438.63 930.726 438.641L933.761 455.419C933.197 455.602 932.651 455.863 932.147 456.206C932.117 456.26 928.887 462.045 931.096 464.132C932.951 466.877 936.906 467.393 939.651 465.527C942.396 463.661 942.922 459.698 940.703 457.601C939.505 455.828 937.431 454.986 935.373 455.114L932.42 438.511C934.183 438.225 935.916 437.473 937.443 436.182C939.336 434.726 940.663 432.651 941.311 430.402L960.446 429.472C960.444 430.331 960.653 431.105 961.217 431.639C963.073 434.383 967.028 434.9 969.773 433.034C972.518 431.168 973.044 427.205 971.188 424.46C969.333 421.716 965.378 421.199 963.279 423.427L962.27 423.713C962.264 423.724 960.909 426.142 960.539 428.42L941.58 429.262C942.08 426.508 941.568 423.611 939.83 421.34C936.401 416.861 929.5 415.543 925.019 418.99L924.656 419.638C921.131 422.349 919.554 427.205 920.709 431.335L886.274 437.928C885.806 434.932 884.634 431.967 882.719 429.317C877.182 421.655 867.666 419.88 859.575 424.008L844.156 367.523C845.885 367.135 847.553 366.395 849.045 365.279C853.066 362.27 854.991 357.282 854.391 352.557L877.852 345.369C878.113 346.325 878.519 347.24 879.078 348.068C881.861 352.185 888.116 353.14 892.234 350.341C896.352 347.542 897.323 341.274 893.894 336.795C891.111 332.678 884.856 331.722 881.384 334.884C878.388 336.92 877.06 340.792 877.629 344.336L854.214 351.499C853.84 349.72 853.096 348.004 851.957 346.474C849.057 342.579 844.297 340.662 839.52 340.998L836.83 315.635C839.54 315.489 842.276 314.506 844.666 312.573C850.52 308.194 851.936 299.619 846.934 293.405C842.577 287.554 834.021 286.159 828.167 290.539C826.139 292.057 824.643 294.078 823.748 296.358L799.107 282.047C800.605 278.992 800.489 275.082 798.551 272.215C797.312 270.382 795.385 269.178 793.264 268.651L796.594 253.42C799.916 253.861 803.39 253.096 806.229 250.972C812.082 246.592 813.498 238.018 809.142 232.166C804.785 226.315 796.23 224.921 790.376 229.3C788.017 231.066 786.378 233.512 785.548 236.187L745.486 224.683C746.743 221.663 746.256 218.168 743.969 215.179C742.992 213.903 741.838 212.943 740.584 212.302L747.042 196.1C749.234 196.827 751.686 196.557 753.582 195.024C756.69 192.51 757.58 187.9 755.079 184.793C752.578 181.686 747.977 180.807 744.869 183.32C744.869 183.32 740.871 190.445 743.372 193.552C744.041 194.383 744.86 195.053 745.761 195.542L739.496 211.834C736.589 210.808 733.292 211.366 730.449 213.553L730.812 212.905C729.656 213.794 728.76 214.829 728.122 215.951L722.381 211.14C725.831 205.796 725.588 198.791 721.497 193.199C716.859 186.338 706.648 184.866 699.422 190.179C694.261 193.974 692.207 199.947 693.38 205.683L642.103 226.286C641.799 225.725 641.437 225.186 641.009 224.677C640.396 223.77 639.667 222.985 638.857 222.324L651.858 208.651C654.862 211.047 659.284 211.053 662.687 208.74C666.805 205.941 667.413 200.32 664.63 196.203C661.847 192.086 656.237 191.493 652.119 194.292C651.629 194.625 651.189 194.999 650.798 195.405L626.751 169.36C628.49 167.756 629.364 165.566 629.346 163.39L653.997 161.853C654.297 163.826 654.986 165.772 656.085 167.56C660.441 173.412 668.997 174.806 675.86 170.141C681.714 165.761 683.129 157.188 678.773 151.336C674.416 145.485 665.861 144.09 659.362 148.107C655.396 151.074 653.469 155.966 653.879 160.833L629.273 162.367C629.065 160.875 628.43 159.436 627.353 158.248C625.173 155.023 621.257 153.961 617.994 155.172L610.665 136.257C612.055 135.773 613.39 135.049 614.609 134.063C620.826 129.035 622.242 120.462 617.241 114.248C613.822 110.001 608.744 108.005 604.003 108.565L601.239 82.4758C602.419 82.1358 603.569 81.5717 604.621 80.7627C607.375 78.6447 608.663 75.7061 608.453 72.7156L620.564 72.2842C620.469 73.1054 620.523 73.9009 620.848 74.5411C622.421 76.2757 625.368 77.0772 627.749 75.8589C629.485 74.2781 630.292 71.3252 629.083 68.943C627.873 66.5609 624.564 66.407 622.183 67.6252C622.183 67.6252 621.206 69.366 620.751 71.2571L608.326 71.7006C608.044 70.1617 607.365 68.6316 606.281 67.216C604.758 65.2266 602.805 64.0065 600.711 63.5637L600.873 51.5441C602.223 51.9417 603.739 51.8946 605.077 51.2105C607.458 49.9921 607.621 46.6769 606.412 44.2946C604.838 42.56 601.893 41.758 599.511 42.9761C599.511 42.9761 596.967 47.5095 598.176 49.892C598.639 50.4022 599.221 50.8312 599.872 51.1523L599.708 63.4129C597.379 63.1991 594.937 63.9164 592.761 65.59C588.28 69.0367 587.673 74.6575 591.101 79.1367C593.034 81.9962 596.642 83.3281 600.167 82.7216L602.69 108.788C600.965 109.172 599.31 109.911 597.829 111.019L597.465 111.666C592.959 115.31 590.975 120.817 592.129 125.938L547.185 137.543C546.845 136.481 546.319 135.453 545.595 134.507C543.428 131.677 540.133 130.255 536.87 130.46L533.607 110.066C534.178 109.832 534.726 109.514 535.232 109.104C538.341 106.591 539.23 101.979 536.729 98.8723C534.228 95.7655 529.628 94.8871 526.519 97.4008C523.411 99.9145 522.521 104.525 525.021 107.632C526.781 109.817 529.578 110.898 532.165 110.473L535.761 130.594C534.241 130.866 532.757 131.497 531.429 132.519C526.948 135.965 525.977 142.234 529.406 146.713C532.834 151.193 539.09 152.148 543.571 148.702C546.778 146.235 548.186 142.322 547.47 138.655L592.539 127.373C593.039 128.809 593.8 130.195 594.835 131.481C598.056 135.809 603.927 137.896 609.282 136.656L616.939 155.659C616.427 155.943 615.939 156.289 615.488 156.7C612.228 159.668 611.244 163.913 613.439 167.829L589.081 184.81C584.544 179.757 576.574 178.723 570.436 182.517C564.583 186.897 563.168 195.47 567.524 201.322C567.741 201.613 567.968 201.894 568.205 202.163L554.391 217.968C550.835 214.74 545.488 214.345 541.526 217.392C537.045 220.839 536.074 227.107 539.503 231.586ZM760.716 522.664C764.427 528.154 772.338 529.187 777.828 525.454C783.318 521.722 784.37 513.796 780.659 508.307C780.177 507.594 779.623 506.956 779.013 506.394L812.57 472.689C814.009 473.439 815.609 473.845 817.255 473.894L821.635 507.257C818.942 507.768 816.34 508.942 814.036 510.856C805.8 516.455 804.221 528.344 810.433 536.94C816 545.174 827.864 546.722 836.463 540.477C845.062 534.231 846.641 522.341 840.066 514.393C835.729 509.151 829.249 506.412 823.058 507.049L818.404 473.871C820.262 473.741 822.146 473.159 823.898 472.105C828.379 468.658 829.351 462.39 826.286 457.263C822.857 452.784 816.602 451.828 812.121 455.275L811.914 455.333L788.521 422.489C788.753 422.325 788.983 422.153 789.21 421.975C796.799 416.015 798.66 405.136 792.73 397.55C786.8 389.964 775.944 388.13 768.355 394.09C766.615 395.456 765.176 397.082 764.064 398.866L740.86 385.003C745.86 380.509 746.563 373.148 742.455 367.631C738.099 361.779 730.189 360.748 724.335 365.127C718.481 369.507 717.428 377.433 721.785 383.284C726.071 389.041 733.796 390.134 739.619 385.997L763.322 400.17C760.336 405.964 760.588 413.084 764.834 418.515C770.278 425.481 779.874 427.596 787.284 423.283L810.89 455.738C806.6 459.219 805.716 465.35 809.087 469.754C809.863 470.768 810.786 471.6 811.806 472.247L777.868 505.471C773.772 502.596 767.9 502.559 763.549 505.517C758.058 509.249 757.006 517.175 760.716 522.664Z" fill="#53AABF" fill-opacity="0.5"/>
</g>
<defs>
<clipPath id="clip0_1_2775">
<rect width="873" height="481" rx="10" fill="white"/>
</clipPath>
</defs>
</svg>
