<svg width="1440" height="1617" viewBox="0 0 1440 1617" fill="none" xmlns="http://www.w3.org/2000/svg">
<path d="M1266.65 211.857C1269.06 217.913 1275.73 220.933 1281.79 218.499C1287.85 216.065 1290.89 209.394 1288.48 203.338C1288.34 202.982 1288.18 202.637 1288.01 202.302L1308.5 189.404C1312.3 195.667 1320.33 198.779 1327.88 196.609C1335.76 193.569 1340.01 184.485 1337.01 176.617L1369.2 165.191C1371.08 170.527 1377.06 172.87 1381.86 170.462C1382.05 170.4 1382.23 170.331 1382.41 170.259L1400.93 206.979C1397.41 209.606 1396.06 214.467 1397.54 218.919C1397.68 219.347 1397.85 219.756 1398.04 220.146L1378.94 231.199C1375.22 227.252 1369.2 225.781 1364.19 228.063C1356.92 230.499 1353.27 238.989 1356.29 245.65C1358.7 252.919 1367.18 256.542 1373.85 253.501C1379.33 251.002 1383.18 245.234 1382.7 239.561L1445.93 232.866C1445.97 235.035 1446.38 237.256 1447.2 239.445C1450.82 249.136 1461.12 253.361 1470.82 249.709C1472.58 249.047 1474.16 248.163 1475.55 247.105L1480.62 254.324C1478.23 257.298 1477.65 261.376 1479.28 265.452C1481.69 271.509 1487.75 273.923 1493.21 272.096C1494.62 271.528 1495.84 270.759 1496.85 269.84L1538.15 295.369C1536.23 299.135 1535.8 303.628 1537.39 307.781C1538.78 311.403 1541.45 314.253 1544.7 315.979L1536.24 331.868C1533.74 330.794 1530.87 330.56 1528.26 331.432L1528.87 332.037C1525.78 333.071 1523.46 335.66 1522.36 338.701L1494.35 331.578C1495.07 328.666 1494.92 325.484 1493.73 322.397C1490.72 314.523 1482.24 310.9 1474.35 313.943C1466.54 316.96 1462.88 325.333 1465.76 333.149L1443.55 341.509C1440.92 337.473 1435.36 335.476 1430.68 337.042L1430.08 337.649C1424.62 339.476 1421.58 346.148 1423.99 350.992C1426.41 357.048 1432.47 359.462 1437.92 357.636C1443.38 355.809 1446.42 349.137 1444.61 343.686C1444.54 343.463 1444.45 343.245 1444.36 343.031L1466.28 334.399C1469.63 341.54 1477.69 344.707 1485.22 341.803C1489.53 340.137 1492.58 336.837 1493.96 332.9L1521.88 340.415C1521.51 342.26 1521.58 344.189 1522.18 345.986C1523.38 349.601 1526.71 352.144 1530.24 352.74L1526.27 390.281C1525.69 390.416 1525.11 390.597 1524.53 390.828C1519.07 392.655 1516.03 399.326 1518.45 404.17C1520.26 409.621 1526.92 412.641 1532.38 410.814C1538.44 408.38 1540.87 402.316 1539.07 396.864C1537.55 392.289 1532.61 389.428 1527.48 390.065L1531.33 352.86C1532.77 352.934 1534.2 352.678 1535.5 352.025C1536.6 351.657 1537.6 351.087 1538.49 350.373L1561.69 374.275C1559.24 378.374 1558.53 383.666 1560.29 388.953C1561.94 393.256 1565.4 396.469 1569.59 397.904L1564.66 427.165C1562.42 426.913 1560.09 427.085 1557.8 427.742L1559.02 427.74C1554.92 429.32 1551.64 432.697 1549.86 436.681L1495.62 409.007C1499.05 405.512 1500.24 400.476 1498.46 395.112C1496.05 387.844 1488.18 384.826 1481.51 387.867C1474.84 389.696 1471.79 397.579 1474.21 404.848C1477.23 411.509 1483.89 414.528 1491.16 412.093C1492.58 411.447 1493.83 410.637 1494.9 409.694L1549.31 438.054C1548.14 441.39 1548.01 445.038 1549.29 448.361C1551.37 453.801 1556.35 457.499 1561.83 458.263L1560.94 526.46C1560.24 526.651 1559.55 526.873 1558.86 527.13C1547.33 531.39 1541.86 544.126 1546.69 555.026C1550.91 566.534 1563.03 571.363 1574.55 567.102C1581.69 564.713 1586.5 558.439 1587.79 551.164L1628.42 554.563C1628.52 555.495 1628.75 556.42 1629.11 557.318C1630.52 560.855 1633.58 563.562 1637.22 564.597L1635.35 584.211C1634.66 584.238 1633.97 584.359 1633.3 584.582C1633.29 584.599 1627.84 590.05 1629.65 593.073C1630.86 596.707 1635.1 598.518 1638.74 597.301C1642.38 596.083 1644.2 591.837 1642.39 588.81C1641.61 586.463 1639.56 584.878 1637.23 584.377L1639.14 564.978C1641.19 565.212 1643.35 564.917 1645.46 563.958C1648.02 562.93 1650.15 561.036 1651.57 558.736L1673.15 563.684C1672.88 564.639 1672.87 565.567 1673.33 566.337C1674.54 569.971 1678.78 571.782 1682.42 570.564C1686.05 569.346 1687.88 565.102 1686.67 561.467C1685.47 557.833 1681.23 556.022 1678.19 557.845L1676.98 557.847C1676.95 557.877 1674.7 560.135 1673.58 562.544L1652.23 557.551C1653.64 554.643 1653.98 551.26 1652.76 548.19C1650.34 542.133 1643.07 538.508 1637.01 540.942L1636.4 541.55C1631.63 543.464 1628.36 548.375 1628.35 553.331L1587.98 549.899C1588.39 546.419 1588.02 542.754 1586.71 539.205C1582.95 528.948 1572.92 523.997 1562.62 526.059L1563.13 458.388C1565.17 458.497 1567.26 458.194 1569.27 457.419C1574.69 455.329 1578.39 450.381 1579.2 444.936L1607.55 444.274C1607.54 445.419 1607.71 446.565 1608.07 447.661C1609.88 453.112 1616.54 456.131 1622 454.305C1627.46 452.478 1630.5 445.807 1628.08 439.75C1626.27 434.299 1619.61 431.279 1614.76 433.711C1610.79 435.04 1608.1 438.933 1607.62 443.055L1579.33 443.702C1579.47 441.606 1579.18 439.463 1578.39 437.405C1576.38 432.163 1571.69 428.539 1566.26 427.42L1571.2 398.359C1574.26 399.044 1577.62 398.808 1580.88 397.404C1588.76 394.361 1593.02 385.264 1589.4 376.785C1586.38 368.912 1577.3 364.685 1569.41 367.727C1566.68 368.782 1564.38 370.564 1562.68 372.821L1539.73 349.19C1542.35 346.259 1543.45 341.872 1542.19 338.076C1541.38 335.649 1539.62 333.706 1537.42 332.456L1545.89 316.55C1549.45 318.081 1553.55 318.315 1557.38 316.84C1565.26 313.797 1569.52 304.699 1566.5 296.826C1563.48 288.952 1554.4 284.725 1546.51 287.767C1543.34 288.994 1540.75 291.204 1538.99 293.921L1498.01 268.593C1500.35 265.626 1500.9 261.583 1499.29 257.542C1498.6 255.817 1497.62 254.389 1496.43 253.282L1508.68 237.273C1510.89 238.768 1513.7 239.235 1516.29 238.122C1520.54 236.297 1522.97 231.445 1521.16 227.206C1519.35 222.967 1514.5 220.551 1510.26 222.375C1510.2 222.433 1503.59 229.07 1505.39 233.291C1505.87 234.425 1506.58 235.427 1507.43 236.253L1495.36 252.423C1492.45 250.371 1488.6 249.96 1484.76 251.505L1485.36 250.898C1483.8 251.526 1482.48 252.397 1481.42 253.445L1476.53 246.298C1482.04 241.43 1483.96 233.56 1481.16 226.058C1478.15 216.973 1467.24 212.141 1457.54 215.793C1450.61 218.401 1446.46 224.406 1445.97 231.156L1382.47 238.046C1382.31 237.327 1382.07 236.613 1381.76 235.913C1381.36 234.712 1380.79 233.612 1380.1 232.624L1398.84 221.475C1401.43 225.08 1406.35 226.468 1410.86 224.958C1416.32 223.132 1418.75 217.068 1416.94 211.617C1415.13 206.165 1409.08 203.751 1403.62 205.578C1402.97 205.795 1402.37 206.073 1401.8 206.402L1383.19 169.903C1385.63 168.661 1387.29 166.498 1387.95 164.072L1415.86 170.071C1415.57 172.359 1415.73 174.74 1416.39 177.073C1419.41 184.947 1428.5 189.174 1437.59 186.13C1445.47 183.087 1449.73 173.989 1446.71 166.116C1443.7 158.242 1434.61 154.015 1426.12 156.452C1420.78 158.514 1417.11 163.353 1416.04 168.897L1388.19 162.91C1388.42 161.185 1388.16 159.384 1387.34 157.727C1385.92 153.456 1381.89 151.049 1377.88 151.377L1375.64 128.039C1377.34 127.935 1379.05 127.546 1380.72 126.83C1389.21 123.181 1393.47 114.084 1389.84 105.605C1387.37 99.8102 1382.34 96.0017 1376.89 95.1423L1381.98 65.2478C1383.39 65.2383 1384.85 64.9704 1386.27 64.3991C1390 62.9036 1392.35 60.0373 1393.06 56.6444L1406.67 59.9502C1406.3 60.8345 1406.11 61.7373 1406.27 62.5515C1407.48 64.9735 1410.51 66.7859 1413.54 66.1751C1415.97 64.9591 1417.79 61.9266 1417.19 58.8976C1416.59 55.8686 1412.95 54.662 1409.92 55.2728C1409.92 55.2728 1408.29 56.9044 1407.19 58.8663L1393.23 55.474C1393.4 53.6734 1393.12 51.7586 1392.36 49.8448C1391.29 47.1552 1389.49 45.1861 1387.3 44.0387L1391.24 30.7158C1392.62 31.5804 1394.32 32.0021 1396.02 31.659C1399.05 31.048 1400.27 27.4099 1399.67 24.3808C1398.46 21.9586 1395.43 20.145 1392.4 20.7559C1392.4 20.7559 1388.15 25.005 1388.76 28.0342C1389.11 28.7472 1389.63 29.4068 1390.25 29.968L1386.23 43.5569C1383.71 42.5908 1380.77 42.6268 1377.82 43.8084C1371.76 46.2422 1369.32 52.3063 1371.74 58.3627C1373 62.1489 1376.59 64.7598 1380.71 65.1875L1375.36 94.9803C1373.32 94.8681 1371.25 95.171 1369.25 95.941L1368.65 96.5484C1362.49 99.1938 1358.56 104.701 1358.25 110.76L1304.61 109.618C1304.56 108.329 1304.3 107.022 1303.79 105.742C1302.26 101.916 1299.04 99.3043 1295.35 98.5117L1298.09 74.7979C1298.8 74.7153 1299.51 74.5325 1300.2 74.2352C1304.45 72.4103 1306.88 67.5585 1305.07 63.3193C1303.25 59.0801 1298.41 56.6637 1294.17 58.4884C1289.92 60.3132 1287.49 65.165 1289.3 69.4043C1290.57 72.3864 1293.35 74.4637 1296.36 74.7999L1294.07 98.3141C1292.29 98.1404 1290.44 98.379 1288.65 99.1002C1282.58 101.534 1279.54 108.206 1281.96 114.262C1284.37 120.318 1291.03 123.338 1297.1 120.904C1301.44 119.162 1304.23 115.248 1304.58 110.943L1358.25 112.484C1358.36 114.238 1358.77 116.019 1359.52 117.774C1361.76 123.596 1367.64 127.755 1373.98 128.051L1376.56 151.589C1375.9 151.745 1375.25 151.977 1374.62 152.293C1370.06 154.577 1367.64 158.993 1368.86 164.036L1336.44 175.314C1332.98 168.272 1324.43 164.63 1316.42 166.932C1308.53 169.975 1304.28 179.071 1307.29 186.945C1307.44 187.338 1307.61 187.721 1307.79 188.095L1287.47 201.362C1284.53 196.657 1278.7 194.544 1273.34 196.696C1267.28 199.13 1264.23 205.801 1266.65 211.857ZM1421.77 604.921C1424.18 612.189 1432.66 615.812 1439.94 613.376C1447.21 610.941 1450.86 602.45 1448.45 595.182C1448.14 594.237 1447.72 593.355 1447.22 592.539L1495.09 565.53C1496.46 566.815 1498.12 567.765 1499.93 568.334L1494.37 606.828C1491.22 606.553 1487.95 607.045 1484.79 608.455C1473.87 612.109 1468.4 624.845 1472.62 636.352C1476.24 647.255 1488.96 652.689 1500.48 648.428C1512 644.168 1517.48 631.432 1512.65 620.532C1509.46 613.343 1503.11 608.269 1496.02 607.041L1501.22 568.668C1503.33 569.104 1505.6 569.046 1507.88 568.421C1513.95 565.987 1516.99 559.316 1515.18 552.652C1512.77 546.596 1506.1 543.577 1500.04 546.01L1499.79 546.01L1484.03 502.149C1484.34 502.039 1484.65 501.921 1484.96 501.794C1495.27 497.536 1500.74 486.012 1496.52 475.717C1492.29 465.421 1480.79 459.985 1470.48 464.244C1468.11 465.22 1466 466.578 1464.21 468.216L1442.72 445.534C1449.69 442.097 1452.78 434.127 1449.93 426.703C1446.91 418.83 1438.43 415.208 1430.55 418.25C1422.67 421.293 1419.02 429.784 1422.04 437.657C1425 445.403 1433.26 449.034 1441.03 446.252L1462.98 469.435C1457.84 474.948 1455.89 482.949 1458.92 490.321C1462.8 499.775 1472.82 505.13 1482.41 502.647L1498.53 546.142C1492.66 548.673 1489.76 555.22 1492.14 561.174C1492.68 562.545 1493.45 563.758 1494.38 564.797L1446.23 591.153C1442.57 586.672 1436.05 584.796 1430.28 586.726C1423.01 589.162 1419.36 597.653 1421.77 604.921Z" fill="#53AABF" fill-opacity="0.1"/>
<path d="M174.248 394.857C171.833 400.913 165.171 403.933 159.107 401.499C153.043 399.065 150.002 392.394 152.416 386.338C152.558 385.982 152.717 385.637 152.888 385.302L132.399 372.404C128.598 378.667 120.569 381.779 113.013 379.609C105.137 376.569 100.882 367.485 103.884 359.617L71.6943 348.191C69.819 353.527 63.8379 355.87 59.0346 353.462C58.8479 353.4 58.665 353.331 58.4855 353.259L39.9625 389.979C43.4816 392.606 44.8349 397.467 43.3571 401.919C43.2151 402.347 43.0442 402.756 42.8521 403.146L61.9584 414.199C65.6729 410.252 71.6968 408.781 76.7028 411.063C83.9788 413.499 87.6284 421.989 84.6093 428.65C82.1968 435.919 73.718 439.542 67.0469 436.501C61.5658 434.002 57.7175 428.234 58.193 422.561L-5.03079 415.866C-5.07254 418.035 -5.48756 420.256 -6.30553 422.445C-9.92628 432.136 -20.2219 436.361 -29.9241 432.709C-31.685 432.047 -33.2655 431.163 -34.6531 430.105L-39.7276 437.324C-37.3317 440.298 -36.7581 444.376 -38.383 448.452C-40.7974 454.509 -46.854 456.923 -52.3111 455.096C-53.7277 454.528 -54.944 453.759 -55.9489 452.84L-97.2556 478.37C-95.3354 482.136 -94.9036 486.629 -96.495 490.781C-97.883 494.403 -100.554 497.252 -103.802 498.978L-95.3428 514.868C-92.8479 513.794 -89.9695 513.56 -87.3648 514.432L-87.9698 515.037C-84.8791 516.071 -82.5642 518.66 -81.4658 521.701L-53.4562 514.578C-54.1767 511.666 -54.0198 508.484 -52.8365 505.397C-49.819 497.523 -41.3407 493.9 -33.4576 496.943C-25.6412 499.96 -21.9869 508.333 -24.8669 516.149L-2.6571 524.509C-0.0242434 520.473 5.53566 518.476 10.2137 520.042L10.8209 520.649C16.2781 522.476 19.3189 529.148 16.9026 533.992C14.4881 540.048 8.43149 542.462 2.97445 540.636C-2.48272 538.809 -5.52376 532.137 -3.71444 526.686C-3.64059 526.464 -3.55694 526.246 -3.46733 526.031L-25.3877 517.399C-28.7307 524.54 -36.7975 527.707 -44.3217 524.803C-48.6381 523.137 -51.6843 519.837 -53.0626 515.9L-80.9881 523.415C-80.6175 525.26 -80.6845 527.189 -81.2809 528.986C-82.4807 532.601 -85.8146 535.144 -89.339 535.74L-85.3694 573.281C-84.7888 573.416 -84.2088 573.597 -83.6343 573.828C-78.1772 575.655 -75.1367 582.326 -77.5529 587.17C-79.3623 592.621 -86.0231 595.641 -91.4802 593.814C-97.5444 591.38 -99.9785 585.316 -98.1691 579.864C-96.6503 575.289 -91.7132 572.428 -86.5803 573.065L-90.4356 535.86C-91.8696 535.934 -93.3019 535.678 -94.604 535.025C-95.7057 534.657 -96.7064 534.087 -97.5911 533.373L-120.798 557.275C-118.346 561.374 -117.638 566.666 -119.393 571.953C-121.042 576.256 -124.504 579.469 -128.69 580.904L-123.767 610.165C-121.524 609.913 -119.193 610.085 -116.906 610.742L-118.119 610.74C-114.025 612.32 -110.746 615.697 -108.962 619.681L-54.7279 592.007C-58.155 588.512 -59.3477 583.476 -57.5673 578.112C-55.1548 570.844 -47.2815 567.826 -40.6104 570.867C-33.9412 572.696 -30.8978 580.579 -33.3102 587.848C-36.3297 594.509 -42.9918 597.528 -50.268 595.093C-51.6831 594.447 -52.9329 593.637 -54.0039 592.694L-108.413 621.054C-107.246 624.39 -107.116 628.038 -108.389 631.361C-110.474 636.801 -115.456 640.499 -120.936 641.263L-120.044 709.46C-119.348 709.651 -118.652 709.873 -117.959 710.13C-106.438 714.39 -100.962 727.126 -105.793 738.026C-110.017 749.534 -122.13 754.363 -133.651 750.102C-140.789 747.713 -145.599 741.439 -146.893 734.164L-187.523 737.563C-187.626 738.495 -187.851 739.42 -188.209 740.318C-189.619 743.855 -192.685 746.562 -196.32 747.597L-194.451 767.211C-193.764 767.238 -193.076 767.359 -192.407 767.582C-192.395 767.595 -186.946 773.049 -188.758 776.073C-189.964 779.707 -194.203 781.518 -197.841 780.301C-201.479 779.083 -203.304 774.837 -201.491 771.81C-200.712 769.463 -198.668 767.878 -196.338 767.377L-198.245 747.978C-200.296 748.212 -202.458 747.917 -204.562 746.958C-207.123 745.93 -209.25 744.036 -210.674 741.736L-232.255 746.684C-231.984 747.639 -231.974 748.567 -232.435 749.337C-233.642 752.971 -237.881 754.782 -241.519 753.564C-245.157 752.346 -246.982 748.102 -245.775 744.467C-244.569 740.833 -240.33 739.022 -237.297 740.845L-236.085 740.847C-236.057 740.875 -233.808 743.134 -232.687 745.544L-211.329 740.551C-212.746 737.643 -213.083 734.26 -211.859 731.19C-209.445 725.133 -202.177 721.508 -196.113 723.942L-195.507 724.55C-190.737 726.464 -187.463 731.375 -187.456 736.331L-147.081 732.899C-147.498 729.419 -147.119 725.754 -145.817 722.205C-142.052 711.948 -132.02 706.997 -121.725 709.059L-122.234 641.388C-124.278 641.497 -126.365 641.194 -128.374 640.419C-133.789 638.329 -137.492 633.381 -138.303 627.936L-166.653 627.274C-166.645 628.419 -166.81 629.565 -167.173 630.661C-168.983 636.112 -175.645 639.131 -181.102 637.305C-186.559 635.478 -189.6 628.807 -187.185 622.75C-185.376 617.299 -178.714 614.279 -173.862 616.711C-169.893 618.04 -167.203 621.933 -166.728 626.055L-138.435 626.702C-138.575 624.606 -138.285 622.463 -137.496 620.405C-135.487 615.163 -130.789 611.539 -125.368 610.42L-130.306 581.359C-133.367 582.044 -136.72 581.808 -139.984 580.404C-147.868 577.361 -152.124 568.264 -148.502 559.785C-145.484 551.912 -136.4 547.685 -128.517 550.727C-125.785 551.782 -123.488 553.564 -121.779 555.821L-98.8353 532.19C-101.458 529.259 -102.553 524.872 -101.293 521.076C-100.487 518.649 -98.7193 516.706 -96.5248 515.456L-104.993 499.55C-108.551 501.081 -112.656 501.315 -116.479 499.84C-124.362 496.797 -128.619 487.699 -125.601 479.826C-122.584 471.952 -113.501 467.725 -105.617 470.767C-102.44 471.994 -99.8516 474.204 -98.0913 476.921L-57.1109 451.593C-59.4554 448.626 -60.006 444.583 -58.395 440.542C-57.7073 438.817 -56.7232 437.389 -55.5286 436.282L-67.7816 420.273C-69.9929 421.768 -72.8048 422.235 -75.395 421.122C-79.64 419.297 -82.072 414.445 -80.2609 410.206C-78.4496 405.967 -73.605 403.551 -69.3598 405.375C-69.3062 405.429 -62.6902 412.069 -64.494 416.291C-64.9783 417.425 -65.6813 418.427 -66.5299 419.253L-54.4642 435.423C-51.551 433.371 -47.7082 432.961 -43.8601 434.506L-44.4668 433.898C-42.9026 434.526 -41.5817 435.397 -40.5215 436.445L-35.6372 429.298C-41.1474 424.43 -43.0667 416.56 -40.2641 409.058C-37.2486 399.973 -26.3481 395.141 -16.6459 398.793C-9.71601 401.401 -5.56333 407.406 -5.07514 414.156L58.4257 421.046C58.5879 420.327 58.8237 419.613 59.1409 418.913C59.5394 417.712 60.1045 416.612 60.7987 415.624L42.0552 404.475C39.4623 408.08 34.5444 409.468 30.034 407.958C24.5773 406.132 22.1437 400.068 23.9527 394.617C25.762 389.165 31.8186 386.751 37.2758 388.578C37.9249 388.795 38.5303 389.074 39.0918 389.403L57.7058 352.903C55.2684 351.661 53.6106 349.498 52.9499 347.072L25.0411 353.071C25.3241 355.359 25.1655 357.74 24.5022 360.073C21.4847 367.947 12.4013 372.174 3.30603 369.13C-4.57721 366.087 -8.83386 356.989 -5.81634 349.116C-2.7987 341.243 6.28462 337.015 14.7727 339.452C20.113 341.514 23.7894 346.354 24.856 351.898L52.7108 345.91C52.475 344.185 52.7328 342.384 53.5596 340.727C54.9774 336.456 59.0023 334.05 63.0122 334.378L65.2522 311.039C63.5538 310.935 61.8421 310.546 60.1765 309.83C51.6864 306.181 47.4297 297.084 51.052 288.605C53.5278 282.81 58.5545 279.001 64.0054 278.142L58.9206 248.248C57.502 248.238 56.0454 247.971 54.6221 247.4C50.896 245.904 48.5437 243.037 47.8415 239.644L34.2314 242.95C34.5939 243.835 34.7833 244.737 34.6217 245.552C33.4134 247.974 30.3858 249.786 27.3549 249.175C24.9291 247.959 23.1061 244.927 23.707 241.898C24.3082 238.869 27.9424 237.662 30.9735 238.273C30.9735 238.273 32.6056 239.904 33.7036 241.866L47.6658 238.474C47.499 236.673 47.7759 234.759 48.5388 232.845C49.6111 230.155 51.4031 228.186 53.5937 227.039L49.6563 213.716C48.278 214.58 46.5765 215.002 44.8741 214.659C41.8431 214.048 40.6256 210.41 41.2267 207.381C42.4349 204.959 45.4621 203.145 48.4932 203.756C48.4932 203.756 52.7415 208.005 52.1405 211.034C51.7849 211.747 51.2709 212.407 50.6463 212.968L54.6634 226.557C57.1881 225.591 60.1293 225.627 63.0736 226.808C69.1378 229.242 71.5719 235.306 69.1575 241.363C67.9008 245.149 64.3034 247.76 60.1913 248.188L65.5341 277.98C67.5748 277.868 69.6466 278.171 71.6415 278.941L72.2482 279.548C78.4021 282.194 82.3317 287.701 82.649 293.76L136.291 292.618C136.337 291.329 136.6 290.022 137.11 288.742C138.635 284.916 141.857 282.304 145.551 281.512L142.804 257.798C142.096 257.715 141.388 257.533 140.696 257.235C136.451 255.41 134.019 250.559 135.83 246.319C137.642 242.08 142.486 239.664 146.731 241.488C150.976 243.313 153.408 248.165 151.596 252.404C150.322 255.386 147.547 257.464 144.536 257.8L146.828 281.314C148.604 281.14 150.453 281.379 152.25 282.1C158.314 284.534 161.355 291.205 158.941 297.262C156.526 303.318 149.864 306.338 143.8 303.904C139.46 302.162 136.67 298.248 136.319 293.943L82.6418 295.484C82.5348 297.238 82.1224 299.019 81.3727 300.774C79.1411 306.596 73.2611 310.755 66.9154 311.051L64.337 334.589C64.9961 334.745 65.6476 334.977 66.278 335.293C70.8331 337.577 73.2559 341.993 72.038 347.036L104.452 358.314C107.92 351.272 116.465 347.63 124.48 349.932C132.363 352.975 136.62 362.071 133.603 369.945C133.452 370.338 133.287 370.722 133.108 371.096L153.422 384.362C156.369 379.657 162.195 377.544 167.557 379.696C173.621 382.13 176.662 388.801 174.248 394.857ZM19.1289 787.921C16.7164 795.189 8.23762 798.812 0.961394 796.376C-6.31475 793.941 -9.96406 785.451 -7.55181 778.182C-7.23833 777.238 -6.82142 776.355 -6.31906 775.539L-54.1978 748.53C-55.5649 749.815 -57.2186 750.765 -59.0353 751.335L-53.4766 789.828C-50.319 789.553 -47.0558 790.046 -43.8925 791.456C-32.9782 795.11 -27.5037 807.845 -31.7274 819.352C-35.346 830.255 -48.0632 835.689 -59.5844 831.428C-71.1057 827.168 -76.5811 814.432 -71.7505 803.532C-68.5646 796.343 -62.2121 791.269 -55.1244 790.041L-60.3207 751.668C-62.4289 752.104 -64.7075 752.046 -66.9867 751.421C-73.0507 748.987 -76.0913 742.316 -74.284 735.652C-71.8694 729.596 -65.2076 726.577 -59.1436 729.01L-58.8955 729.01L-43.1377 685.149C-43.4472 685.039 -43.7564 684.921 -44.064 684.794C-54.3732 680.536 -59.846 669.012 -55.6204 658.717C-51.3947 648.421 -39.889 642.985 -29.5798 647.244C-27.2167 648.22 -25.1081 649.578 -23.3118 651.216L-1.82724 628.534C-8.79633 625.097 -11.8793 617.127 -9.03426 609.703C-6.01666 601.83 2.46192 598.208 10.345 601.25C18.2282 604.293 21.8782 612.784 18.8607 620.657C15.8917 628.403 7.63719 632.034 -0.135965 629.252L-22.0786 652.435C-16.9444 657.948 -14.9977 665.949 -18.0234 673.321C-21.9034 682.775 -31.9203 688.13 -41.5137 685.647L-57.6293 729.142C-51.7679 731.673 -48.8671 738.22 -51.2408 744.174C-51.7872 745.545 -52.5534 746.758 -53.4857 747.797L-5.33284 774.153C-1.67439 769.672 4.84732 767.796 10.6148 769.726C17.8911 772.162 21.5414 780.653 19.1289 787.921Z" fill="#53AABF" fill-opacity="0.1"/>
<path d="M1266.65 1016.86C1269.07 1022.91 1275.73 1025.93 1281.79 1023.5C1287.86 1021.06 1290.9 1014.39 1288.48 1008.34C1288.34 1007.98 1288.18 1007.64 1288.01 1007.3L1308.5 994.403C1312.3 1000.67 1320.33 1003.78 1327.89 1001.61C1335.76 998.569 1340.02 989.485 1337.01 981.617L1369.2 970.192C1371.08 975.527 1377.06 977.869 1381.86 975.462C1382.05 975.4 1382.23 975.331 1382.41 975.259L1400.94 1011.98C1397.42 1014.61 1396.06 1019.47 1397.54 1023.92C1397.68 1024.35 1397.85 1024.76 1398.05 1025.15L1378.94 1036.2C1375.23 1032.25 1369.2 1030.78 1364.2 1033.06C1356.92 1035.5 1353.27 1043.99 1356.29 1050.65C1358.7 1057.92 1367.18 1061.54 1373.85 1058.5C1379.33 1056 1383.18 1050.23 1382.71 1044.56L1445.93 1037.87C1445.97 1040.03 1446.39 1042.26 1447.2 1044.45C1450.82 1054.14 1461.12 1058.36 1470.82 1054.71C1472.58 1054.05 1474.16 1053.16 1475.55 1052.1L1480.63 1059.32C1478.23 1062.3 1477.66 1066.38 1479.28 1070.45C1481.7 1076.51 1487.75 1078.92 1493.21 1077.1C1494.63 1076.53 1495.84 1075.76 1496.85 1074.84L1538.15 1100.37C1536.23 1104.13 1535.8 1108.63 1537.39 1112.78C1538.78 1116.4 1541.45 1119.25 1544.7 1120.98L1536.24 1136.87C1533.75 1135.79 1530.87 1135.56 1528.26 1136.43L1528.87 1137.04C1525.78 1138.07 1523.46 1140.66 1522.36 1143.7L1494.36 1136.58C1495.08 1133.67 1494.92 1130.48 1493.74 1127.4C1490.72 1119.52 1482.24 1115.9 1474.36 1118.94C1466.54 1121.96 1462.89 1130.33 1465.77 1138.15L1443.56 1146.51C1440.92 1142.47 1435.36 1140.48 1430.68 1142.04L1430.08 1142.65C1424.62 1144.48 1421.58 1151.15 1424 1155.99C1426.41 1162.05 1432.47 1164.46 1437.92 1162.64C1443.38 1160.81 1446.42 1154.14 1444.61 1148.69C1444.54 1148.46 1444.46 1148.25 1444.37 1148.03L1466.29 1139.4C1469.63 1146.54 1477.7 1149.71 1485.22 1146.8C1489.54 1145.14 1492.58 1141.84 1493.96 1137.9L1521.89 1145.41C1521.52 1147.26 1521.58 1149.19 1522.18 1150.99C1523.38 1154.6 1526.71 1157.14 1530.24 1157.74L1526.27 1195.28C1525.69 1195.42 1525.11 1195.6 1524.53 1195.83C1519.08 1197.65 1516.04 1204.33 1518.45 1209.17C1520.26 1214.62 1526.92 1217.64 1532.38 1215.81C1538.44 1213.38 1540.88 1207.32 1539.07 1201.86C1537.55 1197.29 1532.61 1194.43 1527.48 1195.07L1531.33 1157.86C1532.77 1157.93 1534.2 1157.68 1535.5 1157.03C1536.6 1156.66 1537.6 1156.09 1538.49 1155.37L1561.7 1179.27C1559.24 1183.37 1558.54 1188.67 1560.29 1193.95C1561.94 1198.26 1565.4 1201.47 1569.59 1202.9L1564.67 1232.16C1562.42 1231.91 1560.09 1232.08 1557.81 1232.74L1559.02 1232.74C1554.92 1234.32 1551.64 1237.7 1549.86 1241.68L1495.63 1214.01C1499.05 1210.51 1500.25 1205.48 1498.47 1200.11C1496.05 1192.84 1488.18 1189.83 1481.51 1192.87C1474.84 1194.7 1471.8 1202.58 1474.21 1209.85C1477.23 1216.51 1483.89 1219.53 1491.17 1217.09C1492.58 1216.45 1493.83 1215.64 1494.9 1214.69L1549.31 1243.05C1548.14 1246.39 1548.02 1250.04 1549.29 1253.36C1551.37 1258.8 1556.35 1262.5 1561.83 1263.26L1560.94 1331.46C1560.25 1331.65 1559.55 1331.87 1558.86 1332.13C1547.34 1336.39 1541.86 1349.13 1546.69 1360.03C1550.92 1371.53 1563.03 1376.36 1574.55 1372.1C1581.69 1369.71 1586.5 1363.44 1587.79 1356.16L1628.42 1359.56C1628.53 1360.5 1628.75 1361.42 1629.11 1362.32C1630.52 1365.86 1633.58 1368.56 1637.22 1369.6L1635.35 1389.21C1634.66 1389.24 1633.97 1389.36 1633.31 1389.58C1633.27 1389.62 1627.85 1395.06 1629.66 1398.07C1630.86 1401.71 1635.1 1403.52 1638.74 1402.3C1642.38 1401.08 1644.2 1396.84 1642.39 1393.81C1641.61 1391.46 1639.57 1389.88 1637.24 1389.38L1639.14 1369.98C1641.19 1370.21 1643.36 1369.92 1645.46 1368.96C1648.02 1367.93 1650.15 1366.04 1651.57 1363.74L1673.15 1368.68C1672.88 1369.64 1672.87 1370.57 1673.33 1371.34C1674.54 1374.97 1678.78 1376.78 1682.42 1375.56C1686.06 1374.35 1687.88 1370.1 1686.67 1366.47C1685.47 1362.83 1681.23 1361.02 1678.2 1362.84L1676.98 1362.85C1676.98 1362.85 1674.71 1365.12 1673.59 1367.54L1652.23 1362.55C1653.64 1359.64 1653.98 1356.26 1652.76 1353.19C1650.34 1347.13 1643.08 1343.51 1637.01 1345.94L1636.4 1346.55C1631.64 1348.46 1628.36 1353.37 1628.35 1358.33L1587.98 1354.9C1588.4 1351.42 1588.02 1347.75 1586.72 1344.21C1582.95 1333.95 1572.92 1329 1562.62 1331.06L1563.13 1263.39C1565.18 1263.5 1567.26 1263.19 1569.27 1262.42C1574.69 1260.33 1578.39 1255.38 1579.2 1249.94L1607.55 1249.27C1607.54 1250.42 1607.71 1251.56 1608.07 1252.66C1609.88 1258.11 1616.54 1261.13 1622 1259.3C1627.46 1257.48 1630.5 1250.81 1628.08 1244.75C1626.27 1239.3 1619.61 1236.28 1614.76 1238.71C1610.79 1240.04 1608.1 1243.93 1607.63 1248.05L1579.33 1248.7C1579.47 1246.61 1579.18 1244.46 1578.39 1242.4C1576.39 1237.16 1571.69 1233.54 1566.27 1232.42L1571.2 1203.36C1574.27 1204.04 1577.62 1203.81 1580.88 1202.4C1588.77 1199.36 1593.02 1190.26 1589.4 1181.79C1586.38 1173.91 1577.3 1169.68 1569.42 1172.73C1566.68 1173.78 1564.39 1175.56 1562.68 1177.82L1539.73 1154.19C1542.36 1151.26 1543.45 1146.87 1542.19 1143.08C1541.39 1140.65 1539.62 1138.71 1537.42 1137.46L1545.89 1121.55C1549.45 1123.08 1553.56 1123.31 1557.38 1121.84C1565.26 1118.8 1569.52 1109.7 1566.5 1101.83C1563.48 1093.95 1554.4 1089.72 1546.52 1092.77C1543.34 1093.99 1540.75 1096.2 1538.99 1098.92L1498.01 1073.59C1500.35 1070.63 1500.9 1066.58 1499.29 1062.54C1498.61 1060.82 1497.62 1059.39 1496.43 1058.28L1508.68 1042.27C1510.89 1043.77 1513.7 1044.24 1516.29 1043.12C1520.54 1041.3 1522.97 1036.45 1521.16 1032.21C1519.35 1027.97 1514.5 1025.55 1510.26 1027.37C1510.26 1027.37 1503.58 1034.05 1505.39 1038.29C1505.88 1039.42 1506.58 1040.43 1507.43 1041.25L1495.36 1057.42C1492.45 1055.37 1488.61 1054.96 1484.76 1056.5L1485.37 1055.9C1483.8 1056.53 1482.48 1057.4 1481.42 1058.44L1476.54 1051.3C1482.05 1046.43 1483.97 1038.56 1481.16 1031.06C1478.15 1021.97 1467.25 1017.14 1457.54 1020.79C1450.61 1023.4 1446.46 1029.41 1445.97 1036.16L1382.47 1043.05C1382.31 1042.33 1382.08 1041.61 1381.76 1040.91C1381.36 1039.71 1380.79 1038.61 1380.1 1037.62L1398.84 1026.48C1401.44 1030.08 1406.35 1031.47 1410.86 1029.96C1416.32 1028.13 1418.75 1022.07 1416.95 1016.62C1415.14 1011.17 1409.08 1008.75 1403.62 1010.58C1402.97 1010.79 1402.37 1011.07 1401.81 1011.4L1383.19 974.903C1385.63 973.661 1387.29 971.498 1387.95 969.072L1415.86 975.07C1415.57 977.358 1415.73 979.739 1416.4 982.073C1419.41 989.946 1428.5 994.174 1437.59 991.13C1445.48 988.087 1449.73 978.989 1446.71 971.116C1443.7 963.242 1434.61 959.015 1426.13 961.452C1420.79 963.514 1417.11 968.353 1416.04 973.897L1388.19 967.91C1388.42 966.185 1388.17 964.384 1387.34 962.727C1385.92 958.455 1381.9 956.049 1377.89 956.377L1375.65 933.039C1377.34 932.935 1379.06 932.546 1380.72 931.83C1389.21 928.181 1393.47 919.084 1389.85 910.605C1387.37 904.81 1382.34 901.002 1376.89 900.142L1381.98 870.247C1383.4 870.237 1384.85 869.97 1386.28 869.399C1390 867.904 1392.35 865.037 1393.06 861.644L1406.67 864.951C1406.31 865.835 1406.12 866.737 1406.28 867.551C1407.49 869.973 1410.51 871.786 1413.54 871.175C1415.97 869.959 1417.79 866.927 1417.19 863.898C1416.59 860.869 1412.96 859.662 1409.92 860.273C1409.92 860.278 1408.29 861.907 1407.2 863.866L1393.23 860.474C1393.4 858.673 1393.12 856.759 1392.36 854.845C1391.29 852.155 1389.5 850.186 1387.3 849.039L1391.24 835.716C1392.62 836.58 1394.32 837.002 1396.02 836.659C1399.06 836.048 1400.27 832.41 1399.67 829.381C1398.46 826.959 1395.44 825.145 1392.41 825.756C1392.38 825.777 1388.16 830.013 1388.76 833.034C1389.11 833.747 1389.63 834.407 1390.25 834.968L1386.23 848.557C1383.71 847.591 1380.77 847.627 1377.82 848.808C1371.76 851.242 1369.33 857.306 1371.74 863.363C1373 867.149 1376.6 869.76 1380.71 870.188L1375.36 899.979C1373.32 899.867 1371.25 900.171 1369.26 900.941L1368.65 901.548C1362.5 904.194 1358.57 909.7 1358.25 915.759L1304.61 914.618C1304.56 913.329 1304.3 912.022 1303.79 910.742C1302.26 906.916 1299.04 904.304 1295.35 903.512L1298.09 879.798C1298.8 879.715 1299.51 879.532 1300.2 879.235C1304.45 877.41 1306.88 872.558 1305.07 868.319C1303.26 864.08 1298.41 861.664 1294.17 863.488C1289.92 865.313 1287.49 870.165 1289.3 874.404C1290.58 877.386 1293.35 879.464 1296.36 879.8L1294.07 903.314C1292.29 903.14 1290.45 903.379 1288.65 904.1C1282.58 906.534 1279.54 913.206 1281.96 919.262C1284.37 925.318 1291.03 928.338 1297.1 925.904C1301.44 924.162 1304.23 920.248 1304.58 915.943L1358.26 917.485C1358.36 919.238 1358.78 921.019 1359.53 922.774C1361.76 928.596 1367.64 932.755 1373.98 933.051L1376.56 956.588C1375.9 956.745 1375.25 956.977 1374.62 957.293C1370.07 959.576 1367.64 963.992 1368.86 969.035L1336.45 980.314C1332.98 973.272 1324.43 969.63 1316.42 971.932C1308.54 974.975 1304.28 984.071 1307.3 991.945C1307.45 992.338 1307.61 992.721 1307.79 993.095L1287.48 1006.36C1284.53 1001.66 1278.7 999.544 1273.34 1001.7C1267.28 1004.13 1264.24 1010.8 1266.65 1016.86ZM1421.77 1409.92C1424.18 1417.19 1432.66 1420.81 1439.94 1418.38C1447.21 1415.94 1450.86 1407.45 1448.45 1400.18C1448.14 1399.24 1447.72 1398.35 1447.22 1397.54L1495.1 1370.53C1496.46 1371.81 1498.12 1372.76 1499.93 1373.33L1494.38 1411.83C1491.22 1411.55 1487.95 1412.05 1484.79 1413.46C1473.88 1417.11 1468.4 1429.84 1472.63 1441.35C1476.24 1452.25 1488.96 1457.69 1500.48 1453.43C1512 1449.17 1517.48 1436.43 1512.65 1425.53C1509.46 1418.34 1503.11 1413.27 1496.02 1412.04L1501.22 1373.67C1503.33 1374.1 1505.61 1374.05 1507.88 1373.42C1513.95 1370.99 1516.99 1364.32 1515.18 1357.65C1512.77 1351.6 1506.11 1348.58 1500.04 1351.01L1499.79 1351.01L1484.04 1307.15C1484.35 1307.04 1484.65 1306.92 1484.96 1306.79C1495.27 1302.54 1500.74 1291.01 1496.52 1280.72C1492.29 1270.42 1480.79 1264.99 1470.48 1269.24C1468.12 1270.22 1466.01 1271.58 1464.21 1273.22L1442.73 1250.53C1449.7 1247.1 1452.78 1239.13 1449.93 1231.7C1446.92 1223.83 1438.44 1220.21 1430.55 1223.25C1422.67 1226.29 1419.02 1234.78 1422.04 1242.66C1425.01 1250.4 1433.26 1254.03 1441.03 1251.25L1462.98 1274.44C1457.84 1279.95 1455.9 1287.95 1458.92 1295.32C1462.8 1304.77 1472.82 1310.13 1482.41 1307.65L1498.53 1351.14C1492.67 1353.67 1489.77 1360.22 1492.14 1366.17C1492.69 1367.54 1493.45 1368.76 1494.38 1369.8L1446.23 1396.15C1442.57 1391.67 1436.05 1389.8 1430.28 1391.73C1423.01 1394.16 1419.36 1402.65 1421.77 1409.92Z" fill="#53AABF" fill-opacity="0.1"/>
<path d="M174.248 1199.86C171.833 1205.91 165.171 1208.93 159.107 1206.5C153.043 1204.06 150.002 1197.39 152.416 1191.34C152.558 1190.98 152.718 1190.64 152.888 1190.3L132.398 1177.4C128.597 1183.67 120.57 1186.78 113.014 1184.61C105.138 1181.57 100.882 1172.49 103.884 1164.62L71.6943 1153.19C69.819 1158.53 63.8378 1160.87 59.0346 1158.46C58.848 1158.4 58.665 1158.33 58.4855 1158.26L39.962 1194.98C43.481 1197.61 44.8349 1202.47 43.3571 1206.92C43.2151 1207.35 43.0443 1207.76 42.8522 1208.15L61.9584 1219.2C65.6729 1215.25 71.696 1213.78 76.702 1216.06C83.9781 1218.5 87.6286 1226.99 84.6093 1233.65C82.1969 1240.92 73.7181 1244.54 67.0469 1241.5C61.5658 1239 57.7176 1233.23 58.193 1227.56L-5.03077 1220.87C-5.07253 1223.03 -5.48757 1225.26 -6.30551 1227.45C-9.9263 1237.14 -20.222 1241.36 -29.9241 1237.71C-31.6853 1237.05 -33.2661 1236.16 -34.654 1235.1L-39.7276 1242.32C-37.3318 1245.3 -36.7581 1249.38 -38.383 1253.45C-40.7973 1259.51 -46.854 1261.92 -52.3111 1260.1C-53.7284 1259.53 -54.945 1258.76 -55.9501 1257.84L-97.2559 1283.37C-95.3353 1287.13 -94.9034 1291.63 -96.495 1295.78C-97.8831 1299.4 -100.555 1302.25 -103.802 1303.98L-95.3428 1319.87C-92.8481 1318.79 -89.9702 1318.56 -87.3656 1319.43L-87.9698 1320.04C-84.879 1321.07 -82.5645 1323.66 -81.4663 1326.7L-53.4567 1319.58C-54.1774 1316.67 -54.0207 1313.48 -52.8373 1310.4C-49.8198 1302.52 -41.3408 1298.9 -33.4576 1301.94C-25.6411 1304.96 -21.9868 1313.33 -24.8669 1321.15L-2.65709 1329.51C-0.0242414 1325.47 5.53565 1323.48 10.2137 1325.04L10.8209 1325.65C16.2779 1327.48 19.3181 1334.15 16.9018 1338.99C14.4873 1345.05 8.43146 1347.46 2.97446 1345.64C-2.48266 1343.81 -5.52367 1337.14 -3.71442 1331.69C-3.64057 1331.46 -3.55776 1331.25 -3.46816 1331.03L-25.3877 1322.4C-28.7307 1329.54 -36.7975 1332.71 -44.3216 1329.8C-48.6382 1328.14 -51.6843 1324.84 -53.0626 1320.9L-80.9889 1328.41C-80.6182 1330.26 -80.6853 1332.19 -81.2818 1333.99C-82.4815 1337.6 -85.8146 1340.14 -89.3389 1340.74L-85.3703 1378.28C-84.7894 1378.42 -84.2091 1378.6 -83.6343 1378.83C-78.1773 1380.65 -75.1367 1387.33 -77.5529 1392.17C-79.3623 1397.62 -86.0239 1400.64 -91.4811 1398.81C-97.545 1396.38 -99.9784 1390.32 -98.1691 1384.86C-96.6503 1380.29 -91.7133 1377.43 -86.5802 1378.07L-90.4356 1340.86C-91.8697 1340.93 -93.3026 1340.68 -94.6049 1340.03C-95.7063 1339.66 -96.7066 1339.09 -97.5911 1338.37L-120.798 1362.27C-118.346 1366.37 -117.639 1371.67 -119.393 1376.95C-121.043 1381.26 -124.504 1384.47 -128.69 1385.9L-123.767 1415.16C-121.524 1414.91 -119.194 1415.08 -116.907 1415.74L-118.119 1415.74C-114.025 1417.32 -110.746 1420.7 -108.962 1424.68L-54.7279 1397.01C-58.1551 1393.51 -59.3477 1388.48 -57.5673 1383.11C-55.1548 1375.84 -47.2816 1372.83 -40.6104 1375.87C-33.9412 1377.7 -30.8986 1385.58 -33.3111 1392.85C-36.3305 1399.51 -42.9917 1402.53 -50.268 1400.09C-51.683 1399.45 -52.9329 1398.64 -54.0039 1397.69L-108.413 1426.05C-107.246 1429.39 -107.117 1433.04 -108.39 1436.36C-110.475 1441.8 -115.456 1445.5 -120.936 1446.26L-120.044 1514.46C-119.348 1514.65 -118.652 1514.87 -117.959 1515.13C-106.438 1519.39 -100.963 1532.13 -105.794 1543.03C-110.018 1554.53 -122.13 1559.36 -133.651 1555.1C-140.789 1552.71 -145.6 1546.44 -146.893 1539.16L-187.524 1542.56C-187.628 1543.5 -187.851 1544.42 -188.209 1545.32C-189.619 1548.86 -192.685 1551.56 -196.32 1552.6L-194.451 1572.21C-193.764 1572.24 -193.076 1572.36 -192.407 1572.58C-192.369 1572.62 -186.952 1578.06 -188.758 1581.07C-189.965 1584.71 -194.204 1586.52 -197.842 1585.3C-201.48 1584.08 -203.304 1579.84 -201.491 1576.81C-200.712 1574.46 -198.668 1572.88 -196.338 1572.38L-198.246 1552.98C-200.296 1553.21 -202.459 1552.92 -204.561 1551.96C-207.123 1550.93 -209.249 1549.04 -210.674 1546.74L-232.255 1551.68C-231.984 1552.64 -231.974 1553.57 -232.435 1554.34C-233.642 1557.97 -237.881 1559.78 -241.519 1558.56C-245.157 1557.35 -246.982 1553.1 -245.776 1549.47C-244.57 1545.83 -240.331 1544.02 -237.298 1545.84L-236.086 1545.85C-236.086 1545.85 -233.815 1548.12 -232.687 1550.54L-211.329 1545.55C-212.746 1542.64 -213.083 1539.26 -211.859 1536.19C-209.445 1530.13 -202.177 1526.51 -196.113 1528.94L-195.507 1529.55C-190.737 1531.46 -187.462 1536.37 -187.456 1541.33L-147.08 1537.9C-147.497 1534.42 -147.119 1530.75 -145.817 1527.21C-142.052 1516.95 -132.02 1512 -121.726 1514.06L-122.235 1446.39C-124.279 1446.5 -126.365 1446.19 -128.374 1445.42C-133.79 1443.33 -137.493 1438.38 -138.303 1432.94L-166.653 1432.27C-166.645 1433.42 -166.811 1434.56 -167.174 1435.66C-168.984 1441.11 -175.645 1444.13 -181.102 1442.3C-186.559 1440.48 -189.6 1433.81 -187.185 1427.75C-185.376 1422.3 -178.714 1419.28 -173.862 1421.71C-169.893 1423.04 -167.204 1426.93 -166.729 1431.05L-138.435 1431.7C-138.575 1429.61 -138.285 1427.46 -137.496 1425.4C-135.487 1420.16 -130.789 1416.54 -125.369 1415.42L-130.306 1386.36C-133.368 1387.04 -136.72 1386.81 -139.984 1385.4C-147.868 1382.36 -152.124 1373.26 -148.502 1364.79C-145.484 1356.91 -136.401 1352.68 -128.518 1355.73C-125.786 1356.78 -123.489 1358.56 -121.779 1360.82L-98.8356 1337.19C-101.458 1334.26 -102.553 1329.87 -101.293 1326.08C-100.487 1323.65 -98.7194 1321.71 -96.5253 1320.46L-104.993 1304.55C-108.552 1306.08 -112.657 1306.31 -116.48 1304.84C-124.363 1301.8 -128.619 1292.7 -125.601 1284.83C-122.584 1276.95 -113.501 1272.72 -105.617 1275.77C-102.44 1276.99 -99.8516 1279.2 -98.0913 1281.92L-57.1117 1256.59C-59.4559 1253.63 -60.0059 1249.58 -58.3949 1245.54C-57.7073 1243.82 -56.7232 1242.39 -55.5286 1241.28L-67.7816 1225.27C-69.9928 1226.77 -72.8048 1227.24 -75.395 1226.12C-79.64 1224.3 -82.0719 1219.45 -80.2609 1215.21C-78.4496 1210.97 -73.6057 1208.55 -69.3606 1210.37C-69.3606 1210.37 -62.6836 1217.05 -64.4948 1221.29C-64.9791 1222.42 -65.6813 1223.43 -66.5299 1224.25L-54.4645 1240.42C-51.5514 1238.37 -47.7075 1237.96 -43.8596 1239.5L-44.4668 1238.9C-42.903 1239.53 -41.5819 1240.4 -40.5218 1241.44L-35.6376 1234.3C-41.1472 1229.43 -43.0674 1221.56 -40.2649 1214.06C-37.2494 1204.97 -26.3481 1200.14 -16.6459 1203.79C-9.71591 1206.4 -5.56324 1212.41 -5.07512 1219.16L58.4257 1226.05C58.588 1225.33 58.8228 1224.61 59.14 1223.91C59.5386 1222.71 60.1046 1221.61 60.7988 1220.62L42.0553 1209.48C39.4624 1213.08 34.5444 1214.47 30.0341 1212.96C24.5771 1211.13 22.1437 1205.07 23.9527 1199.62C25.762 1194.17 31.8179 1191.75 37.275 1193.58C37.9242 1193.79 38.5307 1194.07 39.0923 1194.4L57.7058 1157.9C55.2684 1156.66 53.6107 1154.5 52.95 1152.07L25.0407 1158.07C25.3239 1160.36 25.1657 1162.74 24.5023 1165.07C21.4847 1172.95 12.4012 1177.17 3.30605 1174.13C-4.57719 1171.09 -8.83384 1161.99 -5.81632 1154.12C-2.79869 1146.24 6.28455 1142.01 14.7727 1144.45C20.1129 1146.51 23.7885 1151.35 24.8552 1156.9L52.7108 1150.91C52.475 1149.18 52.7328 1147.38 53.5596 1145.73C54.9774 1141.46 59.0025 1139.05 63.0127 1139.38L65.2522 1116.04C63.5538 1115.93 61.8421 1115.55 60.1765 1114.83C51.6864 1111.18 47.4297 1102.08 51.052 1093.61C53.528 1087.81 58.555 1084 64.0062 1083.14L58.9211 1053.25C57.5023 1053.24 56.0461 1052.97 54.6226 1052.4C50.8964 1050.9 48.5438 1048.04 47.8415 1044.64L34.2309 1047.95C34.5932 1048.84 34.7824 1049.74 34.6209 1050.55C33.4125 1052.97 30.3859 1054.79 27.3549 1054.18C24.929 1052.96 23.1062 1049.93 23.7071 1046.9C24.3082 1043.87 27.9424 1042.66 30.9735 1043.27C30.9788 1043.28 32.6065 1044.91 33.7028 1046.87L47.6658 1043.47C47.499 1041.67 47.7758 1039.76 48.5388 1037.84C49.6111 1035.16 51.403 1033.19 53.5937 1032.04L49.6564 1018.72C48.278 1019.58 46.5766 1020 44.8741 1019.66C41.8431 1019.05 40.6256 1015.41 41.2268 1012.38C42.4349 1009.96 45.4621 1008.14 48.4932 1008.76C48.5147 1008.78 52.7402 1013.01 52.1406 1016.03C51.7849 1016.75 51.271 1017.41 50.6463 1017.97L54.6635 1031.56C57.1882 1030.59 60.1293 1030.63 63.0737 1031.81C69.1378 1034.24 71.5719 1040.31 69.1575 1046.36C67.9008 1050.15 64.3033 1052.76 60.1913 1053.19L65.5346 1082.98C67.5751 1082.87 69.6469 1083.17 71.6415 1083.94L72.2482 1084.55C78.4017 1087.19 82.3309 1092.7 82.6487 1098.76L136.291 1097.62C136.337 1096.33 136.6 1095.02 137.11 1093.74C138.635 1089.92 141.857 1087.3 145.551 1086.51L142.804 1062.8C142.096 1062.72 141.387 1062.53 140.695 1062.23C136.451 1060.41 134.018 1055.56 135.83 1051.32C137.641 1047.08 142.486 1044.66 146.731 1046.49C150.976 1048.31 153.408 1053.16 151.596 1057.4C150.322 1060.39 147.547 1062.46 144.536 1062.8L146.828 1086.31C148.604 1086.14 150.453 1086.38 152.25 1087.1C158.314 1089.53 161.355 1096.21 158.941 1102.26C156.526 1108.32 149.865 1111.34 143.801 1108.9C139.46 1107.16 136.67 1103.25 136.319 1098.94L82.6414 1100.48C82.5342 1102.24 82.1223 1104.02 81.3727 1105.77C79.1412 1111.6 73.2611 1115.76 66.9154 1116.05L64.3362 1139.59C64.9954 1139.74 65.6467 1139.98 66.2772 1140.29C70.8325 1142.58 73.2551 1146.99 72.0371 1152.04L104.452 1163.31C107.92 1156.27 116.465 1152.63 124.48 1154.93C132.363 1157.97 136.62 1167.07 133.603 1174.95C133.452 1175.34 133.287 1175.72 133.107 1176.1L153.422 1189.36C156.369 1184.66 162.195 1182.54 167.557 1184.7C173.621 1187.13 176.662 1193.8 174.248 1199.86ZM19.1289 1592.92C16.7164 1600.19 8.23757 1603.81 0.961421 1601.38C-6.31475 1598.94 -9.96494 1590.45 -7.55263 1583.18C-7.23917 1582.24 -6.82223 1581.35 -6.31988 1580.54L-54.1986 1553.53C-55.5658 1554.81 -57.2193 1555.76 -59.0362 1556.33L-53.4766 1594.83C-50.319 1594.55 -47.0552 1595.05 -43.892 1596.46C-32.9779 1600.11 -27.5036 1612.84 -31.7273 1624.35C-35.346 1635.25 -48.0639 1640.69 -59.5853 1636.43C-71.1064 1632.17 -76.5809 1619.43 -71.7504 1608.53C-68.5646 1601.34 -62.2121 1596.27 -55.1244 1595.04L-60.3206 1556.67C-62.4289 1557.1 -64.7069 1557.05 -66.9862 1556.42C-73.0504 1553.99 -76.0913 1547.32 -74.2839 1540.65C-71.8694 1534.6 -65.2076 1531.58 -59.1435 1534.01L-58.8955 1534.01L-43.1376 1490.15C-43.4472 1490.04 -43.7563 1489.92 -44.064 1489.79C-54.3733 1485.54 -59.8459 1474.01 -55.6204 1463.72C-51.3947 1453.42 -39.889 1447.99 -29.5797 1452.24C-27.2166 1453.22 -25.1081 1454.58 -23.3118 1456.22L-1.82806 1433.53C-8.79671 1430.1 -11.8792 1422.13 -9.03423 1414.7C-6.01664 1406.83 2.46234 1403.21 10.3455 1406.25C18.2285 1409.29 21.8784 1417.78 18.8612 1425.66C15.8924 1433.4 7.63727 1437.03 -0.135939 1434.25L-22.0786 1457.44C-16.9445 1462.95 -14.9977 1470.95 -18.0234 1478.32C-21.9033 1487.77 -31.9203 1493.13 -41.5137 1490.65L-57.6293 1534.14C-51.7681 1536.67 -48.868 1543.22 -51.2416 1549.17C-51.788 1550.54 -52.5533 1551.76 -53.4857 1552.8L-5.33365 1579.15C-1.67517 1574.67 4.84723 1572.8 10.6149 1574.73C17.8911 1577.16 21.5414 1585.65 19.1289 1592.92Z" fill="#53AABF" fill-opacity="0.1"/>
</svg>
