<svg width="650" height="188" viewBox="0 0 650 188" fill="none" xmlns="http://www.w3.org/2000/svg">
<path d="M-250.768 265.104C-245.166 264.442 -241.151 259.552 -241.826 253.939C-242.502 248.326 -247.397 244.291 -252.999 244.952C-253.329 244.991 -253.653 245.047 -253.971 245.114L-260.162 225.103C-254.076 223.33 -249.678 217.317 -249.8 210.516C-250.577 203.253 -257.215 197.663 -264.463 198.409L-266.803 168.951C-261.924 168.578 -258.627 164.105 -259.563 159.551C-259.574 159.381 -259.59 159.213 -259.611 159.047L-224.774 151.789C-223.366 155.318 -219.608 157.537 -215.556 157.299C-215.167 157.276 -214.787 157.225 -214.419 157.152L-209.46 175.594C-213.59 177.815 -216.168 182.519 -215.382 187.213C-214.975 193.84 -208.697 198.791 -202.454 197.759C-195.84 197.37 -190.913 191.096 -191.961 184.84C-192.821 179.7 -196.781 175.193 -201.628 174.32L-193.065 119.985C-191.244 120.435 -189.295 120.586 -187.282 120.392C-178.373 119.537 -172.536 111.879 -173.415 102.953C-173.575 101.333 -173.959 99.8144 -174.532 98.4178L-167.363 95.7941C-165.414 98.4618 -162.134 99.8536 -158.364 99.4084C-152.762 98.7467 -149.388 94.2262 -149.693 89.2568C-149.851 87.9451 -150.222 86.7559 -150.764 85.7102L-120.18 56.9076C-117.463 59.356 -113.805 60.723 -109.978 60.3229C-106.64 59.9739 -103.659 58.3789 -101.489 56.0507L-90.1047 66.6782C-91.5611 68.5229 -92.4012 70.8764 -92.2557 73.2489L-91.615 72.878C-91.4425 75.6925 -89.7973 78.2066 -87.5023 79.8055L-99.7281 101.619C-102 100.365 -104.694 99.7842 -107.539 100.082C-114.794 100.84 -119.721 107.114 -118.943 114.384C-118.172 121.592 -111.993 126.52 -104.816 125.864L-102.804 146.297C-106.765 147.594 -109.679 151.792 -109.418 156.052L-109.047 156.696C-108.742 161.665 -103.848 165.7 -99.2583 164.766C-93.6564 164.104 -90.2827 159.583 -90.5873 154.614C-90.892 149.644 -95.7864 145.609 -100.747 145.901C-100.95 145.913 -101.15 145.935 -101.35 145.962L-103.655 125.708C-96.939 124.513 -92.486 118.482 -93.228 111.544C-93.6538 107.563 -95.7286 104.277 -98.7106 102.243L-86.1772 80.5888C-84.7182 81.3117 -83.0904 81.6882 -81.4549 81.5922C-78.1655 81.3988 -75.2938 79.1821 -74.0067 76.3703L-43.5226 88.0938C-43.5396 88.6094 -43.518 89.1348 -43.454 89.6667C-43.1493 94.6364 -38.2549 98.6719 -33.6654 97.7374C-28.7045 97.446 -24.689 92.5542 -24.9937 87.5845C-25.6699 81.972 -30.193 78.5801 -35.1537 78.8713C-39.3179 79.1159 -42.814 82.6019 -43.4302 87.0348L-73.6616 75.4812C-73.2782 74.2991 -73.1712 73.0441 -73.4251 71.8095C-73.4867 70.8065 -73.7381 69.8428 -74.1364 68.9438L-48.9667 54.9021C-46.0897 57.8698 -41.8258 59.6465 -37.014 59.3639C-33.0478 58.9492 -29.586 56.7754 -27.4501 53.5974L-4.09982 64.264C-4.8128 66.0824 -5.19112 68.0687 -5.15434 70.1273L-4.88405 69.1136C-4.48028 72.8883 -2.39341 76.3851 0.535784 78.7684L-34.7348 117.894C-36.8877 114.248 -40.8294 112.124 -45.7107 112.411C-52.325 112.799 -56.6095 118.703 -55.5622 124.959C-55.5274 130.942 -49.6204 135.251 -43.0059 134.862C-36.763 133.83 -32.7483 128.94 -33.1543 122.314C-33.3766 120.986 -33.7739 119.76 -34.3222 118.653L1.56182 79.5338C4.08834 81.257 7.10822 82.1829 10.1698 81.8628C15.1832 81.3386 19.3902 78.0036 21.2553 73.5947L78.0468 89.6117C78.0508 90.2357 78.0822 90.8667 78.1412 91.5033C79.1219 102.086 88.5388 109.512 98.7304 107.916C109.293 106.963 116.041 97.9225 115.061 87.3401C114.662 80.8396 110.496 75.4138 104.706 72.704L116.646 39.5079C117.448 39.6301 118.27 39.6521 119.1 39.5541C122.371 39.1678 125.318 37.2114 126.997 34.4061L142.973 40.3618C142.842 40.9407 142.788 41.5425 142.826 42.1504C142.826 42.1504 146.168 47.9387 149.104 47.1013C152.411 46.9069 154.874 43.7705 154.671 40.4575C154.468 37.1445 151.329 34.6681 148.393 35.5054C146.257 35.6309 144.474 36.9851 143.533 38.8207L127.749 32.8831C128.404 31.2213 128.642 29.3477 128.312 27.3751C128.026 25.0047 126.919 22.8037 125.317 21.0985L134.285 4.17029C135.022 4.6102 135.795 4.82589 136.542 4.61296C139.849 4.4187 142.312 1.28115 142.109 -2.03198C141.906 -5.34495 138.766 -7.82067 135.459 -7.62643C132.152 -7.43195 129.689 -4.29448 130.533 -1.35164L130.264 -0.338215C130.282 -0.307336 131.666 2.07781 133.429 3.55339L124.474 20.285C122.361 18.4491 119.608 17.4102 116.768 17.7457C111.166 18.4072 106.51 23.668 107.186 29.2809L107.557 29.9244C108.089 34.339 111.46 38.1737 115.601 39.2886L103.69 72.2646C100.875 71.1371 97.7282 70.6324 94.4715 70.9261C85.0562 71.7755 78.6717 79.0515 78.0901 88.1169L21.6497 72.5387C22.1987 70.8543 22.4134 69.0423 22.2152 67.1896C21.681 62.1958 18.3751 57.9938 14.006 56.0974L19.802 32.2546C20.7573 32.5182 21.7515 32.6367 22.7489 32.5781C27.7098 32.2867 31.7252 27.395 31.4205 22.4253C31.1155 17.456 26.2215 13.4217 20.6199 14.0829C15.659 14.3743 11.6431 19.2654 12.589 23.8649C12.8108 27.4801 15.4622 30.5993 18.8003 31.9195L13.0055 55.7104C11.2852 55.1235 9.42932 54.8858 7.53195 55.0842C2.70181 55.5894 -1.37693 58.7048 -3.52582 62.9839L-26.7088 52.3493C-25.4507 49.9445 -24.8983 47.0903 -25.34 44.0481C-26.1176 36.7786 -32.7673 31.1838 -40.6642 32.3126C-47.9196 33.0714 -53.4871 39.7157 -52.7098 46.9849C-52.4403 49.5043 -51.4651 51.8228 -49.9622 53.7565L-74.8469 67.6389C-76.7094 64.7906 -80.13 62.8934 -83.585 63.0963C-85.7935 63.226 -87.8133 64.2687 -89.3492 65.8227L-100.746 55.1843C-98.6702 52.553 -97.5549 49.1755 -97.9319 45.6506C-98.7095 38.3813 -105.359 32.7867 -112.614 33.545C-119.87 34.3037 -125.437 40.948 -124.66 48.2173C-124.346 51.1474 -123.079 53.8061 -121.203 55.8856L-151.546 84.4607C-153.501 81.8371 -156.756 80.4721 -160.494 80.9135C-162.089 81.1019 -163.503 81.6042 -164.695 82.3548L-175.33 68.5298C-173.586 67.0166 -172.566 64.7715 -172.917 62.3579C-173.491 58.4017 -177.002 55.2827 -180.95 55.847C-184.898 56.4114 -188.003 59.9192 -187.429 63.8755C-187.429 63.8755 -183.343 70.9506 -179.395 70.3862C-178.339 70.2352 -177.344 69.8722 -176.463 69.3478L-165.652 83.0519C-168.019 85.0271 -169.223 88.1472 -168.794 91.7089L-169.166 91.0654C-168.991 92.5133 -168.559 93.8125 -167.92 94.9334L-174.987 97.4145C-177.821 91.7195 -183.969 88.3527 -190.865 89.0151C-199.133 89.5008 -205.611 97.5284 -204.732 106.454C-204.104 112.83 -200.016 117.646 -194.484 119.565L-202.946 174.174C-203.584 174.149 -204.233 174.186 -204.888 174.295C-205.981 174.359 -207.028 174.585 -208.009 174.944L-213.129 156.783C-209.536 155.423 -207.274 151.624 -207.526 147.517C-207.831 142.547 -212.353 139.156 -217.314 139.447C-222.275 139.739 -225.649 144.259 -225.344 149.229C-225.308 149.821 -225.211 150.389 -225.062 150.933L-259.733 158.314C-260.225 156 -261.662 154.131 -263.541 153.036L-252.277 131.054C-250.429 131.803 -248.404 132.203 -246.305 132.172C-239.05 131.413 -233.483 124.769 -233.99 116.486C-234.768 109.216 -241.418 103.622 -248.674 104.38C-255.929 105.139 -261.496 111.784 -261.36 119.424C-260.833 124.348 -257.61 128.501 -253.216 130.634L-264.459 152.576C-265.848 151.993 -267.41 151.805 -268.98 152.124C-272.866 152.353 -275.778 155.176 -276.403 158.6L-296.41 155.246C-296.117 153.804 -296.057 152.287 -296.283 150.735C-297.432 142.823 -304.081 137.228 -311.977 138.357C-317.374 139.128 -321.683 142.476 -323.622 146.839L-347.466 135.896C-347.156 134.708 -347.054 133.431 -347.213 132.113C-347.628 128.664 -349.498 126.057 -352.176 124.71L-346.364 114.075C-345.706 114.576 -344.995 114.937 -344.279 114.984C-341.984 114.517 -339.791 112.393 -339.622 109.723C-340.095 107.423 -342.222 105.221 -344.889 105.045C-347.554 104.869 -349.376 107.636 -349.544 110.306C-349.532 110.327 -348.537 112.043 -347.152 113.391L-353.114 124.302C-354.582 123.759 -356.243 123.561 -358.014 123.77C-360.502 124.064 -362.549 125.12 -363.998 126.694L-374.249 120.42C-373.218 119.461 -372.486 118.133 -372.392 116.634C-372.223 113.964 -374.991 112.131 -377.657 111.956C-379.952 112.423 -382.145 114.547 -382.313 117.217C-382.313 117.217 -379.714 121.719 -377.048 121.895C-376.373 121.758 -375.706 121.477 -375.098 121.081L-364.64 127.48C-366.013 129.373 -366.642 131.84 -366.314 134.566C-365.638 140.178 -361.114 143.57 -355.512 142.909C-352.067 142.706 -349.079 140.284 -347.801 136.944L-324.1 148.081C-324.651 149.761 -324.861 151.56 -324.664 153.399L-324.292 154.043C-323.459 159.778 -319.738 164.295 -314.745 165.917L-327.711 210.488C-328.798 210.238 -329.95 210.166 -331.133 210.306C-334.673 210.724 -337.578 212.831 -339.067 215.741L-358.269 208.136C-358.179 207.525 -358.173 206.893 -358.266 206.247C-358.841 202.291 -362.352 199.172 -366.3 199.737C-370.249 200.301 -373.353 203.808 -372.778 207.764C-372.204 211.72 -368.694 214.839 -364.745 214.275C-361.968 213.878 -359.61 212.025 -358.654 209.584L-339.518 216.764C-340.061 218.209 -340.275 219.808 -340.075 221.471C-339.399 227.084 -334.504 231.119 -328.902 230.458C-323.3 229.796 -319.285 224.905 -319.961 219.292C-320.445 215.275 -323.09 212.067 -326.609 210.81L-313.303 166.297C-311.813 166.6 -310.232 166.655 -308.598 166.421C-303.232 165.86 -298.44 161.877 -296.772 156.64L-276.524 159.756C-276.541 160.342 -276.492 160.939 -276.369 161.536C-275.481 165.855 -272.332 168.868 -267.845 168.979L-265.678 198.593C-272.34 199.915 -277.297 206.24 -277.168 213.453C-276.391 220.723 -269.742 226.318 -262.486 225.559C-262.124 225.521 -261.767 225.469 -261.414 225.402L-254.876 245.35C-259.467 246.759 -262.538 251.155 -261.94 256.117C-261.264 261.73 -256.37 265.766 -250.768 265.104ZM112.455 223.488C119.069 223.099 123.995 216.824 123.589 210.198C123.183 203.572 116.904 198.62 110.29 199.009C109.43 199.059 108.6 199.211 107.805 199.448L95.9544 153.387C97.3338 152.533 98.4983 151.364 99.381 149.974L130.305 163.238C129.369 165.816 129.051 168.653 129.521 171.612C130.13 181.551 139.547 188.977 150.11 188.025C160.032 187.442 167.421 178.031 166.441 167.448C165.46 156.866 156.042 149.439 145.85 151.035C139.129 152.088 133.466 156.261 130.853 161.91L99.9493 148.974C100.785 147.31 101.246 145.393 101.234 143.348C100.558 137.735 95.6644 133.7 89.6912 133.718C84.0892 134.38 80.0739 139.27 80.7499 144.883L80.6945 145.091L40.51 148.439C40.4874 148.155 40.4588 147.87 40.4215 147.584C39.1709 138.015 30.7654 130.861 21.215 132.087C11.6648 133.313 4.5456 141.711 5.7959 151.28C6.08258 153.474 6.74582 155.541 7.71212 157.409L-16.0535 170.284C-17.3652 163.69 -23.336 159.328 -30.1773 160.044C-37.4328 160.802 -42.3584 167.076 -41.581 174.346C-40.8035 181.615 -34.5257 186.567 -27.2701 185.809C-20.1317 185.062 -15.2486 178.977 -15.833 171.858L8.4544 158.711C11.9122 164.237 18.1639 167.655 25.0024 166.778C33.7709 165.652 40.4883 158.48 40.5617 149.907L80.5206 146.178C81.3238 151.643 86.1442 155.533 91.6519 154.883C92.92 154.733 94.1063 154.365 95.1832 153.818L106.426 199.961C101.862 202.015 98.8335 207.046 99.1555 212.299C99.5619 218.925 105.84 223.876 112.455 223.488Z" fill="#53AABF" fill-opacity="0.2"/>
<path d="M892.533 265.104C886.931 264.442 882.916 259.551 883.592 253.939C884.268 248.326 889.162 244.29 894.764 244.952C895.094 244.991 895.418 245.047 895.736 245.114L901.927 225.102C895.842 223.328 891.444 217.317 891.565 210.516C892.342 203.253 898.98 197.663 906.227 198.409L908.568 168.949C903.689 168.577 900.393 164.104 901.329 159.551C901.339 159.38 901.356 159.212 901.376 159.046L866.539 151.789C865.131 155.317 861.373 157.537 857.321 157.299C856.932 157.276 856.553 157.225 856.184 157.152L851.225 175.594C855.355 177.815 857.933 182.519 857.147 187.213C856.741 193.84 850.463 198.791 844.219 197.759C837.605 197.37 832.679 191.096 833.726 184.84C834.587 179.7 838.546 175.193 843.394 174.32L834.831 119.985C833.009 120.435 831.06 120.586 829.048 120.392C820.138 119.537 814.301 111.878 815.18 102.952C815.339 101.332 815.725 99.8135 816.298 98.4169L809.128 95.7931C807.179 98.4613 803.899 99.8537 800.129 99.4084C794.527 98.7467 791.154 94.2254 791.458 89.2559C791.616 87.9444 791.987 86.7557 792.53 85.7102L761.944 56.9074C759.227 59.3554 755.57 60.7229 751.743 60.3229C748.405 59.9739 745.425 58.3788 743.255 56.0507L731.87 66.6782C733.326 68.5228 734.167 70.8757 734.021 73.2479L733.38 72.878C733.208 75.6926 731.563 78.2066 729.268 79.8055L741.493 101.619C743.765 100.365 746.459 99.7832 749.304 100.081C756.56 100.839 761.486 107.114 760.709 114.384C759.938 121.592 753.759 126.52 746.581 125.864L744.568 146.296C748.531 147.592 751.445 151.792 751.184 156.052L750.812 156.695C750.508 161.665 745.613 165.7 741.024 164.766C735.422 164.104 732.048 159.583 732.353 154.614C732.657 149.644 737.552 145.608 742.513 145.9C742.715 145.912 742.916 145.935 743.115 145.962L745.42 125.708C738.704 124.513 734.251 118.481 734.992 111.543C735.418 107.563 737.494 104.277 740.476 102.243L727.943 80.5888C726.484 81.3117 724.856 81.6873 723.221 81.5912C719.931 81.398 717.059 79.1821 715.772 76.3703L685.288 88.0938C685.305 88.6093 685.283 89.1349 685.219 89.6667C684.915 94.6362 680.02 98.6708 675.431 97.7364C670.47 97.445 666.454 92.5542 666.759 87.5845C667.435 81.9718 671.958 78.58 676.919 78.8713C681.083 79.1159 684.579 82.6012 685.196 87.0338L715.426 75.4809C715.043 74.299 714.937 73.0441 715.191 71.8095C715.252 70.8065 715.503 69.8428 715.902 68.9438L690.731 54.9019C687.854 57.8692 683.591 59.6455 678.78 59.3629C674.814 58.9483 671.352 56.7752 669.216 53.5976L645.865 64.264C646.578 66.0823 646.956 68.0685 646.919 70.1271L646.649 69.1137C646.246 72.8883 644.159 76.3851 641.23 78.7684L676.5 117.894C678.653 114.248 682.595 112.124 687.476 112.411C694.09 112.799 698.375 118.703 697.328 124.959C697.293 130.942 691.386 135.25 684.772 134.861C678.528 133.83 674.514 128.939 674.92 122.313C675.142 120.986 675.539 119.759 676.088 118.653L640.204 79.5338C637.677 81.2569 634.657 82.1818 631.596 81.8618C626.583 81.3376 622.376 78.0035 620.511 73.595L563.719 89.6117C563.715 90.2356 563.683 90.8668 563.624 91.5033C562.643 102.086 553.226 109.512 543.035 107.916C532.472 106.963 525.724 97.9217 526.705 87.3391C527.103 80.8388 531.27 75.4138 537.059 72.704L525.119 39.5079C524.318 39.6301 523.495 39.6519 522.664 39.5538C519.393 39.1674 516.446 37.2112 514.768 34.4059L498.792 40.3608C498.924 40.94 498.977 41.5422 498.94 42.1504C498.934 42.1598 495.595 47.938 492.661 47.1013C489.354 46.9069 486.892 43.7697 487.095 40.4566C487.298 37.1436 490.436 34.668 493.372 35.5054C495.509 35.6309 497.292 36.985 498.233 38.8207L514.016 32.8831C513.361 31.2213 513.123 29.3478 513.454 27.3751C513.739 25.0045 514.846 22.8026 516.448 21.0973L507.481 4.17029C506.743 4.61014 505.97 4.82582 505.224 4.61296C501.916 4.4187 499.453 1.28115 499.656 -2.03198C499.859 -5.34495 502.998 -7.82068 506.305 -7.62668C509.613 -7.43242 512.076 -4.29462 511.232 -1.35164L511.502 -0.339158C511.502 -0.339158 510.111 2.06817 508.336 3.55339L517.293 20.2843C519.406 18.4489 522.158 17.4103 524.998 17.7457C530.6 18.4073 535.256 23.668 534.58 29.2809L534.208 29.9244C533.676 34.339 530.305 38.1748 526.164 39.2896L538.075 72.2644C540.889 71.1367 544.037 70.6323 547.294 70.9261C556.709 71.7755 563.094 79.0508 563.676 88.116L620.115 72.5375C619.566 70.8534 619.352 69.0418 619.55 67.1896C620.084 62.1958 623.39 57.9926 627.759 56.0962L621.963 32.2546C621.008 32.5182 620.014 32.6357 619.017 32.5772C614.056 32.2858 610.04 27.395 610.345 22.4253C610.65 17.4558 615.544 13.4206 621.146 14.082C626.107 14.3734 630.122 19.2645 629.177 23.864C628.955 27.4794 626.303 30.5993 622.965 31.9195L628.76 55.7094C630.48 55.1227 632.335 54.8857 634.232 55.084C639.063 55.589 643.142 58.7045 645.291 62.9839L668.474 52.3493C667.216 49.9443 666.664 47.0896 667.106 44.0472C667.883 36.7778 674.533 31.1838 682.43 32.3126C689.685 33.0715 695.252 39.7154 694.474 46.9847C694.205 49.5042 693.23 51.8225 691.727 53.7562L716.614 67.6382C718.476 64.7904 721.896 62.8934 725.35 63.0963C727.559 63.226 729.579 64.2686 731.115 65.8227L742.51 55.184C740.435 52.5529 739.32 49.1752 739.697 45.6506C740.475 38.3813 747.124 32.7866 754.38 33.545C761.635 34.3037 767.203 40.9479 766.425 48.2173C766.112 51.1473 764.844 53.8049 762.968 55.8844L793.311 84.4607C795.266 81.837 798.521 80.4711 802.259 80.9126C803.855 81.101 805.269 81.6042 806.461 82.3548L817.096 68.5298C815.351 67.0167 814.332 64.7715 814.682 62.3579C815.257 58.4016 818.767 55.2827 822.715 55.847C826.664 56.4114 829.768 59.9189 829.193 63.8753C829.161 63.93 825.093 70.9484 821.16 70.3862C820.104 70.2352 819.109 69.8721 818.228 69.3478L807.417 83.0519C809.784 85.027 810.988 88.1465 810.56 91.708L810.93 91.0651C810.756 92.5127 810.324 93.8117 809.685 94.9324L816.753 97.4135C819.587 91.719 825.735 88.3518 832.631 89.0142C840.899 89.5 847.377 97.5284 846.498 106.454C845.87 112.83 841.781 117.645 836.25 119.564L844.711 174.174C845.349 174.149 845.998 174.186 846.654 174.295C847.747 174.359 848.793 174.585 849.775 174.944L854.895 156.783C851.301 155.423 849.039 151.625 849.291 147.517C849.596 142.547 854.119 139.156 859.08 139.447C864.041 139.739 867.414 144.259 867.11 149.229C867.073 149.82 866.976 150.389 866.827 150.933L901.498 158.314C901.991 155.999 903.427 154.13 905.307 153.035L894.044 131.053C892.195 131.803 890.17 132.203 888.071 132.172C880.815 131.413 875.248 124.769 875.756 116.486C876.533 109.217 883.183 103.622 890.438 104.38C897.694 105.139 903.262 111.784 903.125 119.424C902.598 124.348 899.376 128.501 894.981 130.634L906.224 152.575C907.612 151.992 909.175 151.805 910.746 152.124C914.632 152.353 917.544 155.176 918.168 158.6L938.175 155.246C937.882 153.804 937.823 152.286 938.048 150.734C939.197 142.822 945.846 137.227 953.743 138.356C959.14 139.128 963.449 142.476 965.388 146.839L989.231 135.896C988.922 134.708 988.82 133.431 988.978 132.113C989.394 128.664 991.263 126.056 993.942 124.709L988.13 114.075C987.472 114.576 986.761 114.937 986.044 114.984C983.749 114.517 981.556 112.393 981.388 109.723C981.861 107.423 983.987 105.22 986.653 105.044C989.319 104.868 991.141 107.636 991.309 110.306C991.292 110.335 990.299 112.046 988.917 113.391L994.879 124.3C996.347 123.758 998.009 123.561 999.779 123.77C1002.27 124.064 1004.31 125.12 1005.76 126.694L1016.02 120.42C1014.98 119.462 1014.25 118.134 1014.16 116.634C1013.99 113.964 1016.76 112.131 1019.42 111.956C1021.72 112.423 1023.91 114.547 1024.08 117.217C1024.07 117.236 1021.47 121.72 1018.81 121.895C1018.14 121.758 1017.47 121.476 1016.86 121.079L1006.41 127.48C1007.78 129.373 1008.41 131.84 1008.08 134.565C1007.4 140.178 1002.88 143.57 997.278 142.909C993.832 142.706 990.845 140.284 989.567 136.943L965.866 148.08C966.417 149.76 966.626 151.56 966.429 153.399L966.058 154.043C965.225 159.777 961.503 164.293 956.511 165.916L969.477 210.489C970.564 210.239 971.715 210.166 972.899 210.306C976.438 210.724 979.342 212.831 980.832 215.741L1000.03 208.135C999.945 207.524 999.938 206.892 1000.03 206.247C1000.61 202.29 1004.12 199.171 1008.07 199.736C1012.01 200.3 1015.12 203.808 1014.54 207.764C1013.97 211.72 1010.46 214.839 1006.51 214.275C1003.73 213.878 1001.38 212.024 1000.42 209.584L981.283 216.764C981.826 218.209 982.04 219.808 981.84 221.471C981.164 227.084 976.27 231.118 970.668 230.457C965.066 229.795 961.05 224.904 961.726 219.291C962.21 215.274 964.856 212.067 968.375 210.81L955.067 166.296C953.578 166.6 951.997 166.655 950.363 166.421C944.997 165.86 940.205 161.877 938.536 156.64L918.289 159.756C918.306 160.342 918.258 160.938 918.135 161.535C917.247 165.854 914.098 168.867 909.61 168.978L907.444 198.593C914.106 199.914 919.063 206.24 918.934 213.453C918.156 220.723 911.507 226.318 904.251 225.559C903.89 225.521 903.532 225.469 903.179 225.402L896.641 245.35C901.233 246.759 904.303 251.154 903.706 256.117C903.03 261.73 898.135 265.766 892.533 265.104ZM529.311 223.487C522.696 223.098 517.77 216.824 518.176 210.198C518.583 203.572 524.861 198.62 531.476 199.009C532.335 199.059 533.166 199.211 533.96 199.448L545.811 153.387C544.432 152.533 543.267 151.364 542.384 149.974L511.459 163.239C512.395 165.816 512.714 168.653 512.244 171.612C511.635 181.551 502.218 188.977 491.655 188.025C481.733 187.442 474.344 178.03 475.325 167.447C476.306 156.865 485.723 149.439 495.914 151.034C502.636 152.087 508.3 156.26 510.912 161.91L541.817 148.974C540.981 147.309 540.518 145.392 540.53 143.347C541.206 137.735 546.101 133.7 552.074 133.718C557.676 134.38 561.691 139.27 561.015 144.883L561.071 145.09L601.255 148.438C601.277 148.154 601.307 147.87 601.344 147.584C602.594 138.015 610.999 130.861 620.549 132.086C630.1 133.312 637.22 141.711 635.969 151.28C635.683 153.474 635.02 155.54 634.054 157.408L657.819 170.284C659.13 163.689 665.101 159.328 671.943 160.044C679.198 160.802 684.124 167.076 683.346 174.346C682.569 181.615 676.291 186.566 669.036 185.808C661.897 185.061 657.014 178.977 657.598 171.858L633.311 158.711C629.853 164.237 623.601 167.655 616.763 166.778C607.995 165.652 601.277 158.48 601.204 149.907L561.245 146.178C560.441 151.643 555.621 155.533 550.114 154.883C548.845 154.733 547.659 154.365 546.582 153.818L535.338 199.961C539.903 202.015 542.932 207.046 542.61 212.299C542.203 218.925 535.925 223.875 529.311 223.487Z" fill="#53AABF" fill-opacity="0.8"/>
</svg>
