<svg preserveAspectRatio="none" width="100%" height="100%" overflow="visible" style="display: block;" viewBox="0 0 24.2637 28.6251" fill="none" xmlns="http://www.w3.org/2000/svg">
<g id="Group">
<path id="Vector" d="M0.5 28.125H23.7637M12.8588 10.6772C12.8588 10.9636 12.8024 11.2472 12.6928 11.5119C12.5832 11.7765 12.4226 12.0169 12.22 12.2194C12.0175 12.4219 11.7771 12.5826 11.5125 12.6922C11.2479 12.8018 10.9643 12.8582 10.6779 12.8582C10.3915 12.8582 10.1079 12.8018 9.84324 12.6922C9.57864 12.5826 9.33821 12.4219 9.13569 12.2194C8.93316 12.0169 8.77251 11.7765 8.66291 11.5119C8.55331 11.2472 8.49689 10.9636 8.49689 10.6772C8.49689 10.0988 8.72667 9.54406 9.13569 9.13505C9.5447 8.72604 10.0994 8.49626 10.6779 8.49626C11.2563 8.49626 11.811 8.72604 12.22 9.13505C12.6291 9.54406 12.8588 10.0988 12.8588 10.6772Z" stroke="var(--stroke-0, white)" stroke-linecap="round" stroke-linejoin="round"/>
<path id="Vector_2" d="M20.8557 23.7631H12.8588M8.49689 10.6772C7.63767 10.6772 6.78685 10.8465 5.99303 11.1753C5.19921 11.5041 4.47792 11.986 3.87036 12.5936C3.26279 13.2012 2.78084 13.9225 2.45203 14.7163C2.12322 15.5101 1.95398 16.3609 1.95398 17.2201C1.95398 18.0794 2.12322 18.9302 2.45203 19.724C2.78084 20.5178 3.26279 21.2391 3.87036 21.8467C4.47792 22.4542 5.19921 22.9362 5.99303 23.265C6.78685 23.5938 7.63767 23.7631 8.49689 23.7631H9.22388" stroke="var(--stroke-0, white)" stroke-linecap="round" stroke-linejoin="round"/>
<path id="Vector_3" d="M14.3125 28.125L12.463 22.5766C12.3665 22.287 12.1813 22.035 11.9337 21.8565C11.686 21.678 11.3884 21.582 11.0832 21.5821H10.9988C10.6935 21.582 10.396 21.678 10.1483 21.8565C9.90067 22.035 9.71548 22.287 9.61901 22.5766L7.76954 28.125M17.6595 19.4011L20.8554 17.5517M9.78476 8.68674L8.2639 6.04776C7.7745 5.19813 7.64202 4.1891 7.8955 3.24194C8.14899 2.29477 8.76775 1.48679 9.6161 0.995178C10.0357 0.752448 10.4991 0.594905 10.9797 0.531577C11.4603 0.468248 11.9486 0.50038 12.4168 0.62613C12.8849 0.751881 13.3237 0.968778 13.7078 1.26439C14.092 1.56001 14.4141 1.92853 14.6556 2.34883L19.0815 10.0375C19.7707 11.2356 20.1167 11.8346 20.1167 12.4293C20.1167 12.8175 20.015 13.1999 19.8201 13.5387C19.5221 14.0534 18.9259 14.398 17.7308 15.0901C16.5356 15.7807 15.9395 16.1268 15.3462 16.1268C14.9566 16.1268 14.5756 16.025 14.2383 15.8301C13.725 15.5321 13.3805 14.9345 12.6913 13.7364L11.9497 12.4496" stroke="var(--stroke-0, white)" stroke-linecap="round" stroke-linejoin="round"/>
</g>
</svg>
