<svg preserveAspectRatio="none" width="100%" height="100%" overflow="visible" style="display: block;" viewBox="0 0 28.7795 26.25" fill="none" xmlns="http://www.w3.org/2000/svg">
<g id="Group">
<path id="Vector" d="M12.1176 5.04412L15.1471 9.58823L12.1176 14.1324H7.57353L4.54412 9.58823L7.57353 5.04412H12.1176Z" stroke="var(--stroke-0, white)" stroke-linecap="round" stroke-linejoin="round"/>
<path id="Vector_2" d="M19.6912 9.58824L22.7206 5.04412L19.6912 0.5H15.1471L12.1176 5.04412L15.1471 9.58824M19.6912 9.58824H15.1471M19.6912 9.58824L22.7206 14.1324M15.1471 9.58824L12.1176 14.1324L15.1471 18.6765M19.6912 18.6765L22.7206 23.2206M19.6912 18.6765L22.7206 14.1324M19.6912 18.6765H15.1471M3.02941 0.5L7.57353 5.04412M7.57353 14.1324L4.54412 17.1618M15.1471 18.6765L12.1176 21.7059M4.54412 9.58824H1.51471M22.7206 14.1324H27.2647" stroke="var(--stroke-0, white)" stroke-linecap="round" stroke-linejoin="round"/>
<path id="Vector_3" d="M9.08818 23.7206C9.64857 23.7206 10.1028 24.1749 10.1028 24.7352C10.1028 25.2956 9.64858 25.7499 9.08818 25.7499C8.5278 25.7499 8.07353 25.2956 8.07353 24.7352C8.07356 24.1749 8.52782 23.7206 9.08818 23.7206Z" fill="var(--fill-0, #26668C)" stroke="var(--stroke-0, white)"/>
<path id="Vector_4" d="M1.51465 19.1765C2.07504 19.1765 2.52927 19.6307 2.5293 20.1911C2.5293 20.7515 2.07506 21.2058 1.51465 21.2058C0.954268 21.2057 0.5 20.7515 0.5 20.1911C0.500031 19.6308 0.954287 19.1765 1.51465 19.1765Z" fill="var(--fill-0, #26668C)" stroke="var(--stroke-0, white)"/>
<path id="Vector_5" d="M27.2646 4.02941C27.825 4.02941 28.2793 4.48368 28.2793 5.04406C28.2793 5.60447 27.8251 6.05871 27.2646 6.05871C26.7043 6.05868 26.25 5.60445 26.25 5.04406C26.25 4.4837 26.7043 4.02944 27.2646 4.02941Z" fill="var(--fill-0, #26668C)" stroke="var(--stroke-0, white)"/>
</g>
</svg>
