<svg xmlns="http://www.w3.org/2000/svg" style="display: none">
    <symbol id="icon-phone" viewBox="0 0 22 22">
        <path
            d="M6.5 2h3l1.5 5-2 1.2a12 12 0 005.3 5.3L15.5 12l5 1.5v3A2.5 2.5 0 0118 19C9.7 19 3 12.3 3 4a2.5 2.5 0 012.5-2z"
            stroke="currentColor" fill="none" stroke-width="1.5" stroke-linecap="round"
            stroke-linejoin="round" />
    </symbol>
    <symbol id="icon-email" viewBox="0 0 22 22">
        <path d="M3 5h16v12H3V5zm0 0 8 7 8-7" stroke="currentColor" fill="none" stroke-width="1.5"
            stroke-linecap="round" stroke-linejoin="round" />
    </symbol>
    <symbol id="icon-pin" viewBox="0 0 22 22">
        <path d="M11 19s6-5.2 6-10a6 6 0 10-12 0c0 4.8 6 10 6 10z" stroke="currentColor" fill="none"
            stroke-width="1.5" stroke-linecap="round" stroke-linejoin="round" />
        <circle cx="11" cy="9" r="2" fill="currentColor" />
    </symbol>
    <symbol id="icon-doc" viewBox="0 0 22 22">
        <path d="M7 3h7l5 5v11a1 1 0 01-1 1H7a1 1 0 01-1-1V4a1 1 0 011-1z" stroke="currentColor"
            fill="none" stroke-width="1.5" stroke-linejoin="round" />
        <path d="M14 3v5h5M9 12h4M9 15h4" stroke="currentColor" fill="none" stroke-width="1.5"
            stroke-linecap="round" />
    </symbol>
    <symbol id="icon-arrow-up-right" viewBox="0 0 28 28">
        <path d="M8 20L20 8M20 8H11M20 8V17" stroke="currentColor" fill="none" stroke-width="2"
            stroke-linecap="round" stroke-linejoin="round" />
    </symbol>
    <symbol id="icon-arrow-up-right" viewBox="0 0 28 28">
        <path d="M8.60599 7.89401H20.394V19.682M19.5754 8.71262L7.62366 20.6644"
            stroke="currentColor" stroke-width="2.5" stroke-linecap="round" stroke-linejoin="round" />
    </symbol>
    <symbol id="icon-arrow-chevron" viewBox="0 0 32 32">
        <path d="M12 25L21 15.5L12 6" stroke="currentColor" fill="none" stroke-width="2"
            stroke-linecap="round" stroke-linejoin="round" />
    </symbol>
    <symbol id="icon-hero-chemistry" viewBox="0 0 28.7795 26.25">
        <path
            d="M12.1176 5.04412L15.1471 9.58823L12.1176 14.1324H7.57353L4.54412 9.58823L7.57353 5.04412H12.1176Z"
            stroke="currentColor" fill="none" stroke-linecap="round" stroke-linejoin="round" />
        <path
            d="M19.6912 9.58824L22.7206 5.04412L19.6912 0.5H15.1471L12.1176 5.04412L15.1471 9.58824M19.6912 9.58824H15.1471M19.6912 9.58824L22.7206 14.1324M15.1471 9.58824L12.1176 14.1324L15.1471 18.6765M19.6912 18.6765L22.7206 23.2206M19.6912 18.6765L22.7206 14.1324M19.6912 18.6765H15.1471M3.02941 0.5L7.57353 5.04412M7.57353 14.1324L4.54412 17.1618M15.1471 18.6765L12.1176 21.7059M4.54412 9.58824H1.51471M22.7206 14.1324H27.2647"
            stroke="currentColor" fill="none" stroke-linecap="round" stroke-linejoin="round" />
        <path
            d="M9.08818 23.7206C9.64857 23.7206 10.1028 24.1749 10.1028 24.7352C10.1028 25.2956 9.64858 25.7499 9.08818 25.7499C8.5278 25.7499 8.07353 25.2956 8.07353 24.7352C8.07356 24.1749 8.52782 23.7206 9.08818 23.7206Z"
            fill="currentColor" />
        <path
            d="M1.51465 19.1765C2.07504 19.1765 2.52927 19.6307 2.5293 20.1911C2.5293 20.7515 2.07506 21.2058 1.51465 21.2058C0.954268 21.2057 0.5 20.7515 0.5 20.1911C0.500031 19.6308 0.954287 19.1765 1.51465 19.1765Z"
            fill="currentColor" />
        <path
            d="M27.2646 4.02941C27.825 4.02941 28.2793 4.48368 28.2793 5.04406C28.2793 5.60447 27.8251 6.05871 27.2646 6.05871C26.7043 6.05868 26.25 5.60445 26.25 5.04406C26.25 4.4837 26.7043 4.02944 27.2646 4.02941Z"
            fill="currentColor" />
    </symbol>
    <symbol id="icon-hero-panels" viewBox="0 0 24.8501 27.5">
        <path
            d="M15.0747 27H3.68894C3.14016 26.9997 2.60074 26.8579 2.12279 26.5882C1.64483 26.3186 1.24452 25.9302 0.96051 25.4606C0.676504 24.9911 0.518413 24.4562 0.501513 23.9077C0.484614 23.3591 0.609478 22.8155 0.864039 22.3294L7.78716 9.1125V0.5H14.4122V9.1125L17.0622 14.1714M5.79966 0.5H16.3997M5.79966 13.0875H16.3997"
            stroke="currentColor" fill="none" stroke-linecap="round" stroke-linejoin="round" />
        <path
            d="M19.7126 17.725L19.3708 18.6485C18.9229 19.8596 18.699 20.4651 18.2578 20.9063C17.8152 21.3489 17.2097 21.5728 15.9986 22.0206L15.0751 22.3625L15.9986 22.7043C17.2097 23.1522 17.8139 23.3761 18.2564 23.8173C18.699 24.2599 18.9229 24.8654 19.3708 26.0765L19.7126 27L20.0545 26.0765C20.5023 24.8654 20.7262 24.2599 21.1675 23.8187C21.61 23.3761 22.2142 23.1522 23.4266 22.7043L24.3501 22.3625L23.4266 22.0206C22.2155 21.5728 21.61 21.3489 21.1688 20.9076C20.7262 20.4651 20.5023 19.8596 20.0545 18.6485L19.7126 17.725Z"
            stroke="currentColor" fill="none" stroke-linejoin="round" />
    </symbol>
    <symbol id="icon-hero-microscope" viewBox="0 0 24.2637 28.6251">
        <path d="M0.5 28.125H23.7637" stroke="currentColor" fill="none" stroke-linecap="round"
            stroke-linejoin="round" />
        <path
            d="M12.8588 10.6772C12.8588 10.9636 12.8024 11.2472 12.6928 11.5119C12.5832 11.7765 12.4226 12.0169 12.22 12.2194C12.0175 12.4219 11.7771 12.5826 11.5125 12.6922C11.2479 12.8018 10.9643 12.8582 10.6779 12.8582C10.3915 12.8582 10.1079 12.8018 9.84324 12.6922C9.57864 12.5826 9.33821 12.4219 9.13569 12.2194C8.93316 12.0169 8.77251 11.7765 8.66291 11.5119C8.55331 11.2472 8.49689 10.9636 8.49689 10.6772C8.49689 10.0988 8.72667 9.54406 9.13569 9.13505C9.5447 8.72604 10.0994 8.49626 10.6779 8.49626C11.2563 8.49626 11.811 8.72604 12.22 9.13505C12.6291 9.54406 12.8588 10.0988 12.8588 10.6772Z"
            stroke="currentColor" fill="none" stroke-linecap="round" stroke-linejoin="round" />
        <path
            d="M20.8557 23.7631H12.8588M8.49689 10.6772C7.63767 10.6772 6.78685 10.8465 5.99303 11.1753C5.19921 11.5041 4.47792 11.986 3.87036 12.5936C3.26279 13.2012 2.78084 13.9225 2.45203 14.7163C2.12322 15.5101 1.95398 16.3609 1.95398 17.2201C1.95398 18.0794 2.12322 18.9302 2.45203 19.724C2.78084 20.5178 3.26279 21.2391 3.87036 21.8467C4.47792 22.4542 5.19921 22.9362 5.99303 23.265C6.78685 23.5938 7.63767 23.7631 8.49689 23.7631H9.22388"
            stroke="currentColor" fill="none" stroke-linecap="round" stroke-linejoin="round" />
        <path
            d="M14.3125 28.125L12.463 22.5766C12.3665 22.287 12.1813 22.035 11.9337 21.8565C11.686 21.678 11.3884 21.582 11.0832 21.5821H10.9988C10.6935 21.582 10.396 21.678 10.1483 21.8565C9.90067 22.035 9.71548 22.287 9.61901 22.5766L7.76954 28.125M17.6595 19.4011L20.8554 17.5517M9.78476 8.68674L8.2639 6.04776C7.7745 5.19813 7.64202 4.1891 7.8955 3.24194C8.14899 2.29477 8.76775 1.48679 9.6161 0.995178C10.0357 0.752448 10.4991 0.594905 10.9797 0.531577C11.4603 0.468248 11.9486 0.50038 12.4168 0.62613C12.8849 0.751881 13.3237 0.968778 13.7078 1.26439C14.092 1.56001 14.4141 1.92853 14.6556 2.34883L19.0815 10.0375C19.7707 11.2356 20.1167 11.8346 20.1167 12.4293C20.1167 12.8175 20.015 13.1999 19.8201 13.5387C19.5221 14.0534 18.9259 14.398 17.7308 15.0901C16.5356 15.7807 15.9395 16.1268 15.3462 16.1268C14.9566 16.1268 14.5756 16.025 14.2383 15.8301C13.725 15.5321 13.3805 14.9345 12.6913 13.7364L11.9497 12.4496"
            stroke="currentColor" fill="none" stroke-linecap="round" stroke-linejoin="round" />
    </symbol>
    <symbol id="icon-hero-doc" viewBox="0 0 21.0364 24.375">
        <path d="M0.5 3.8393V20.5278" stroke="currentColor" fill="none" stroke-linecap="round" />
        <path d="M20.5359 8.8482V20.5357" stroke="currentColor" fill="none" stroke-linecap="round"
            stroke-linejoin="round" />
        <path d="M3.83956 0.5H12.1878" stroke="currentColor" fill="none" stroke-linecap="round"
            stroke-linejoin="round" />
        <path d="M3.83956 23.875H17.1967" stroke="currentColor" fill="none" stroke-linecap="round" />
        <path d="M20.5363 20.5357C20.5455 22.2034 18.8667 23.875 17.1971 23.875"
            stroke="currentColor" fill="none" stroke-linecap="round" stroke-linejoin="round" />
        <path d="M0.500278 20.5357C0.500278 22.2053 2.16992 23.875 3.83956 23.875"
            stroke="currentColor" fill="none" stroke-linecap="round" stroke-linejoin="round" />
        <path d="M0.500278 3.83687C0.500278 2.16965 2.16992 0.537188 3.83956 0.500005"
            stroke="currentColor" fill="none" stroke-linecap="round" stroke-linejoin="round" />
        <path d="M20.5266 8.8557L12.1875 0.5" stroke="currentColor" fill="none"
            stroke-linecap="round" stroke-linejoin="round" />
        <path d="M12.1878 5.50896C12.1929 7.16951 13.8642 8.84824 15.5271 8.84824"
            stroke="currentColor" fill="none" stroke-linecap="round" stroke-linejoin="round" />
        <path d="M12.1875 5.50893V0.5" stroke="currentColor" fill="none" stroke-linecap="round"
            stroke-linejoin="round" />
        <path d="M15.5271 8.8482H20.536" stroke="currentColor" fill="none" stroke-linecap="round"
            stroke-linejoin="round" />
        <path d="M3.83956 20.5357H8.84849" stroke="currentColor" fill="none" stroke-linecap="round"
            stroke-linejoin="round" />
        <path d="M3.83956 17.1965H12.1878" stroke="currentColor" fill="none" stroke-linecap="round"
            stroke-linejoin="round" />
        <path d="M3.83956 13.8572H8.84849" stroke="currentColor" fill="none" stroke-linecap="round"
            stroke-linejoin="round" />
    </symbol>
    <symbol id="icon-close" viewBox="0 0 19 19">
        <path d="M0.5 18.5L18.5 0.5M18.5 18.5L0.5 0.5" stroke="currentColor" fill="none"
            stroke-linecap="round" stroke-linejoin="round" />
    </symbol>
    <symbol id="icon-check" viewBox="0 0 20 20">
        <path d="M4 10.5L8 14.5L16 6" stroke="currentColor" fill="none" stroke-width="2"
            stroke-linecap="round" stroke-linejoin="round" />
    </symbol>
    <symbol id="icon-tab-plus" viewBox="0 0 36 36">
        <circle cx="18" cy="18" r="17" stroke="currentColor" fill="none" stroke-width="1" />
        <path d="M18 11v14M11 18h14" stroke="currentColor" stroke-width="1.5" stroke-linecap="round" />
    </symbol>
    <symbol id="icon-star" viewBox="0 0 26 26">
        <path d="M13 2l3.1 6.3 7 1-5 4.9 1.2 7L13 18.2 6.7 21.2 7.9 14 3 9.3l7-1L13 2z"
            fill="currentColor" />
    </symbol>
    <symbol id="icon-play" viewBox="0 0 88 88">
        <circle cx="44" cy="44" r="42" fill="currentColor" opacity="0.9" />
        <path d="M36 28l32 16-32 16V28z" fill="#fff" />
    </symbol>
    <symbol id="icon-pick-play" viewBox="0 0 38 61">
        <g clip-path="url(#clip0_pick_play)">
            <path
                d="M37.3788 31.6779L1.51244 59.7208C1.09832 60.0501 0.742715 60.0881 0.445629 59.8348C0.148543 59.5815 0 59.1255 0 58.4668V2.53315C0 1.87451 0.148543 1.41853 0.445629 1.16521C0.742715 0.911888 1.09832 0.949886 1.51244 1.27921L37.3788 29.322C37.7929 29.6514 38 30.044 38 30.5C38 30.956 37.7929 31.3486 37.3788 31.6779Z"
                fill="#55ACBF" />
        </g>
        <defs>
            <clipPath id="clip0_pick_play">
                <rect width="38" height="61" fill="white" />
            </clipPath>
        </defs>
    </symbol>
    <symbol id="icon-check-circle" viewBox="0 0 28 28">
        <circle cx="14" cy="14" r="12" stroke="currentColor" fill="none" stroke-width="1.5" />
        <path d="M9 14l3 3 7-7" stroke="currentColor" fill="none" stroke-width="1.5"
            stroke-linecap="round" stroke-linejoin="round" />
    </symbol>
    <symbol id="icon-close-circle" viewBox="0 0 28 28">
        <circle cx="14" cy="14" r="12" stroke="currentColor" fill="none" stroke-width="1.5" />
        <path d="M11 11l6 6M17 11l-6 6" stroke="currentColor" fill="none" stroke-width="1.5"
            stroke-linecap="round" />
    </symbol>
    <symbol id="icon-eye-info" viewBox="0 0 36 36">
        <path d="M18 8c-6 0-10.5 4.5-12 10 1.5 5.5 6 10 12 10s10.5-4.5 12-10c-1.5-5.5-6-10-12-10z"
            stroke="currentColor" fill="none" stroke-width="1.5" />
        <circle cx="18" cy="18" r="4" stroke="currentColor" fill="none" stroke-width="1.5" />
        <path d="M18 22v4M16 26h4" stroke="currentColor" stroke-width="1.5" stroke-linecap="round" />
    </symbol>
</svg>