<svg xmlns="http://www.w3.org/2000/svg" width="320" height="640" viewBox="0 0 320 640" fill="none" aria-hidden="true">
    <g stroke="#a8d4e0" stroke-width="1.5" opacity="0.85">
        <line x1="48" y1="120" x2="120" y2="80"/>
        <line x1="120" y1="80" x2="200" y2="140"/>
        <line x1="200" y1="140" x2="260" y2="90"/>
        <line x1="48" y1="120" x2="30" y2="220"/>
        <line x1="30" y1="220" x2="110" y2="280"/>
        <line x1="110" y1="280" x2="200" y2="240"/>
        <line x1="200" y1="240" x2="280" y2="300"/>
        <line x1="110" y1="280" x2="80" y2="380"/>
        <line x1="80" y1="380" x2="170" y2="420"/>
        <line x1="170" y1="420" x2="250" y2="380"/>
        <line x1="250" y1="380" x2="300" y2="480"/>
        <line x1="80" y1="380" x2="40" y2="500"/>
        <line x1="170" y1="420" x2="140" y2="540"/>
    </g>
    <g fill="#b8dde8" opacity="0.9">
        <circle cx="48" cy="120" r="14"/>
        <circle cx="120" cy="80" r="18"/>
        <circle cx="200" cy="140" r="12"/>
        <circle cx="260" cy="90" r="10"/>
        <circle cx="30" cy="220" r="11"/>
        <circle cx="110" cy="280" r="16"/>
        <circle cx="200" cy="240" r="13"/>
        <circle cx="280" cy="300" r="11"/>
        <circle cx="80" cy="380" r="15"/>
        <circle cx="170" cy="420" r="20"/>
        <circle cx="250" cy="380" r="12"/>
        <circle cx="300" cy="480" r="10"/>
        <circle cx="40" cy="500" r="9"/>
        <circle cx="140" cy="540" r="14"/>
    </g>
</svg>
