<svg width="596" height="500" viewBox="0 0 596 500" fill="none" xmlns="http://www.w3.org/2000/svg">
<path d="M541.047 229.953C535.928 233.99 528.649 233.274 524.614 228.134C520.579 222.995 521.281 215.697 526.4 211.659C526.701 211.422 527.012 211.202 527.327 210.998L516.032 189.583C509.609 193.108 501.1 191.788 495.642 186.131C490.34 179.56 491.197 169.564 497.732 164.251L475.568 138.262C471.276 141.946 464.925 140.985 461.968 136.499C461.838 136.351 461.713 136.199 461.593 136.046L427.191 158.587C428.925 162.621 427.667 167.507 424.162 170.624C423.825 170.924 423.472 171.191 423.111 171.433L434.131 190.56C439.321 188.999 445.273 190.736 448.467 195.215C453.551 200.963 452.466 210.14 446.52 214.4C440.797 219.488 431.643 218.386 427.386 212.417C423.889 207.512 423.44 200.593 426.689 195.917L375.284 158.508C374.163 160.366 372.693 162.082 370.89 163.569C362.909 170.151 351.88 168.662 345.303 160.649C344.109 159.194 343.183 157.638 342.51 156.028L334.505 159.744C335.094 163.517 333.551 167.336 330.106 170.053C324.987 174.091 318.535 173.154 314.722 168.843C313.779 167.642 313.111 166.367 312.7 165.069L264.162 166.525C263.943 170.747 262.071 174.855 258.615 177.656C255.602 180.098 251.864 181.23 248.188 181.101L247.569 199.089C250.267 199.406 252.877 200.643 254.697 202.701L253.871 202.922C256.03 205.364 256.74 208.763 256.171 211.946L283.99 219.782C284.822 216.901 286.549 214.223 289.118 212.141C295.667 206.831 304.821 207.933 310.127 214.509C315.388 221.03 314.366 230.109 307.964 235.438L323.018 253.783C327.316 251.604 333.13 252.654 336.398 256.35L336.62 257.179C340.432 261.49 339.731 268.788 335.216 271.775C330.097 275.813 323.644 274.875 319.832 270.564C316.019 266.254 316.721 258.956 321.014 255.139C321.189 254.983 321.37 254.836 321.555 254.695L306.887 236.26C300.422 240.772 291.852 239.482 286.788 233.205C283.883 229.604 282.895 225.223 283.67 221.124L255.727 213.669C255.126 215.452 254.103 217.089 252.688 218.346C249.842 220.877 245.683 221.413 242.333 220.166L227 254.664C227.435 255.072 227.848 255.518 228.23 256.005C232.042 260.315 231.34 267.614 226.825 270.601C222.532 274.417 215.254 273.701 211.441 269.391C207.406 264.251 208.331 257.782 212.623 253.965C216.226 250.762 221.933 250.753 226.059 253.873L241.324 219.723C240.044 219.07 238.932 218.131 238.13 216.915C237.361 216.045 236.779 215.052 236.37 213.991L204.322 223.088C204.396 227.864 202.363 232.801 198.2 236.503C194.619 239.405 190.014 240.458 185.672 239.606L175.305 267.408C177.373 268.312 179.306 269.626 180.958 271.339L179.909 270.731C182.664 274.146 183.816 278.709 183.37 283.051L244.174 286.202C242.953 281.463 244.437 276.504 248.661 272.749C254.385 267.661 262.713 268.985 266.97 274.954C271.831 279.872 270.524 288.22 264.801 293.309C258.855 297.568 251.577 296.852 246.493 291.105C245.59 289.839 244.913 288.512 244.457 287.16L183.158 284.516C182.501 287.989 180.788 291.213 178.025 293.453C173.499 297.122 167.337 297.834 162.209 295.756L128.884 355.261C129.39 355.774 129.881 356.315 130.353 356.883C138.2 366.334 136.574 380.1 126.941 387.125C117.529 394.979 104.625 393.104 96.7771 383.654C91.7903 378.016 90.762 370.178 93.2788 363.232L56.3902 345.86C55.835 346.615 55.1784 347.304 54.4197 347.902C51.4301 350.26 47.422 351.071 43.7567 350.15L35.568 368.072C36.1486 368.439 36.684 368.888 37.1506 369.415C37.1632 369.462 39.1402 376.882 36.0664 378.592C33.2048 381.136 28.6281 380.586 26.0863 377.712C23.5446 374.839 24.0863 370.25 27.17 368.535C29.0186 366.891 31.5826 366.54 33.8517 367.272L41.8983 349.519C40.0052 348.696 38.2801 347.358 36.9379 345.476C35.2341 343.306 34.339 340.603 34.2548 337.9L13.0922 331.393C12.8491 332.356 12.3937 333.165 11.609 333.602C8.7473 336.146 4.171 335.594 1.62931 332.721C-0.912448 329.847 -0.370436 325.258 2.49128 322.714C5.35294 320.17 9.92939 320.721 11.6447 323.816L12.6936 324.424C12.6936 324.424 13.5235 327.526 13.2874 330.19L34.2803 336.545C34.5069 333.318 35.9066 330.219 38.502 328.172C43.6212 324.134 51.7265 324.629 55.7613 329.769L55.9838 330.598C59.1571 334.64 59.5375 340.53 57.0649 344.826L93.7485 362.041C95.1272 358.819 97.287 355.834 100.189 353.412C108.578 346.411 119.742 347.14 127.627 354.074L161.022 295.215C159.197 294.287 157.541 292.982 156.189 291.306C152.544 286.788 151.811 280.651 153.832 275.531L129.609 260.781C129.044 261.777 128.328 262.687 127.465 263.454C123.173 267.271 115.893 266.555 112.08 262.244C108.268 257.934 108.971 250.635 114.09 246.598C118.382 242.782 125.661 243.498 128.647 248.03C131.42 251.165 131.803 255.881 130.154 259.688L154.334 274.396C155.26 272.511 156.583 270.801 158.296 269.413C162.656 265.878 168.536 265.088 173.789 266.828L184.044 239.192C181.051 238.254 178.267 236.373 176.142 233.526C170.836 226.95 171.698 216.942 179.074 211.411C185.624 206.101 195.605 206.982 200.911 213.558C202.75 215.838 203.847 218.529 204.199 221.337L235.884 212.345C235.078 208.495 236.323 204.149 239.313 201.491C241.224 199.792 243.726 198.994 246.251 199.008L246.871 181.001C243.024 180.547 239.352 178.698 236.78 175.509C231.474 168.932 232.336 158.925 238.886 153.615C245.436 148.305 255.417 149.186 260.723 155.763C262.861 158.413 263.997 161.621 264.163 164.854L312.317 163.409C311.77 159.667 313.314 155.891 316.73 153.197C318.188 152.047 319.755 151.303 321.342 150.942L318.735 130.95C316.073 131.139 313.405 130.138 311.718 127.879C308.954 124.176 309.275 118.758 312.963 115.992C316.652 113.227 322.055 113.556 324.819 117.259C324.819 117.259 327.262 126.38 323.574 129.145C322.587 129.885 321.477 130.401 320.329 130.693L322.694 150.729C326.243 150.409 329.776 151.975 332.336 155.236L332.114 154.407C333.155 155.732 333.863 157.147 334.257 158.585L342.061 154.837C339.724 147.866 341.997 140.091 348.175 134.996C355.329 128.636 367.184 129.902 373.761 137.915C378.458 143.639 379.052 150.916 376.1 157.006L427.647 194.722C428.148 194.18 428.708 193.68 429.332 193.233C430.278 192.392 431.318 191.721 432.414 191.213L421.756 172.186C417.708 174.011 412.755 172.755 409.604 169.193C405.791 164.882 406.715 158.413 411.008 154.597C415.3 150.781 421.753 151.718 425.565 156.029C426.019 156.542 426.404 157.086 426.726 157.652L461.097 135.348C459.607 133.053 459.254 130.352 459.896 127.92L432.723 119.161C431.824 121.284 430.497 123.267 428.756 124.957C422.206 130.267 412.225 129.386 405.871 122.202C400.565 115.626 401.427 105.619 407.977 100.309C414.527 94.9989 424.508 95.8791 430.64 102.234C434.234 106.689 434.998 112.719 433.149 118.053L460.269 126.795C460.927 125.184 462.051 123.754 463.595 122.732C466.958 119.743 471.646 119.67 474.954 121.958L488.564 102.866C487.145 101.927 485.857 100.735 484.773 99.2822C479.245 91.8763 480.107 81.8697 487.483 76.3384C492.525 72.558 498.782 71.7739 503.933 73.755L514.476 45.3235C513.252 44.606 512.125 43.6464 511.177 42.4401C508.698 39.2814 508.095 35.6216 509.183 32.3319L495.743 28.3903C495.615 29.337 495.328 30.2127 494.781 30.8369C492.523 32.3304 488.995 32.3874 486.675 30.3429C485.182 28.0768 485.12 24.538 487.155 22.2152C489.19 19.8925 492.942 20.6654 495.261 22.71C495.269 22.7399 495.857 24.954 495.827 27.1868L509.616 31.2305C510.372 29.5883 511.569 28.0693 513.186 26.7938C515.46 25.0004 517.996 24.1907 520.467 24.2925L523.718 10.7863C522.092 10.846 520.409 10.3597 519.106 9.21159C516.786 7.16703 517.55 3.40714 519.585 1.08438C521.842 -0.409127 525.371 -0.465981 527.69 1.57835C527.69 1.57835 529.246 7.38329 527.21 9.70605C526.546 10.1455 525.771 10.4595 524.95 10.6332L521.633 24.4098C524.303 24.8353 526.833 26.3372 528.792 28.833C532.827 33.9727 531.902 40.4407 526.784 44.4785C523.802 47.1291 519.381 47.5916 515.606 45.9058L505.337 74.3772C507.161 75.3003 508.803 76.5999 510.146 78.2643L510.369 79.094C514.375 84.4619 515.024 91.1958 512.269 96.6019L559.295 122.433C559.98 121.34 560.861 120.339 561.942 119.486C565.177 116.935 569.273 116.283 572.868 117.444L582.346 95.5335C581.774 95.1079 581.251 94.5958 580.801 93.9921C578.037 90.2892 578.357 84.8714 582.045 82.1058C585.733 79.3401 591.137 79.6701 593.901 83.373C596.664 87.0759 596.345 92.4937 592.657 95.2594C590.062 97.2047 586.62 97.6166 583.844 96.4026L574.072 117.913C575.697 118.65 577.18 119.781 578.375 121.305C582.41 126.444 581.708 133.742 576.588 137.78C571.469 141.818 564.19 141.102 560.156 135.962C557.267 132.283 556.808 127.499 558.657 123.595L511.401 98.0916C510.432 99.5569 509.184 100.894 507.657 102.038C502.813 105.965 495.642 106.625 489.999 103.709L475.997 122.803C476.49 123.268 476.938 123.796 477.326 124.385C480.129 128.64 480.019 133.676 476.443 137.435L498.875 163.408C505.399 159.044 514.62 160.162 520.411 166.163C525.716 172.739 524.854 182.746 518.305 188.056C517.978 188.321 517.643 188.57 517.301 188.804L528.26 210.45C533.164 207.85 539.265 208.933 542.833 213.477C546.867 218.617 546.166 225.915 541.047 229.953ZM210.177 492.796C204.454 497.884 195.301 496.781 190.217 491.034C185.134 485.287 186.218 476.109 191.941 471.02C192.685 470.359 193.487 469.804 194.331 469.348L166.371 422.019C164.545 422.448 162.638 422.445 160.78 422.03L146.348 458.146C149.219 459.487 151.799 461.545 153.833 464.347C161.458 472.968 159.831 486.735 150.419 494.589C141.834 502.221 128.103 500.568 120.256 491.118C112.409 481.667 114.036 467.901 123.67 460.876C130.023 456.243 138.062 455.025 144.814 457.507L159.499 421.677C157.456 421 155.512 419.811 153.851 418.13C149.816 412.99 150.518 405.692 155.415 400.825C160.534 396.787 167.812 397.503 171.847 402.642L172.063 402.767L207.64 372.661C207.427 372.411 207.218 372.155 207.015 371.891C200.216 363.048 201.239 350.332 210.046 343.529C218.853 336.725 231.535 337.771 238.334 346.613C239.892 348.64 241.039 350.871 241.776 353.187L271.723 344.286C267.406 337.825 268.721 329.38 274.897 324.374C281.447 319.064 290.601 320.167 295.906 326.743C301.212 333.32 300.128 342.498 293.578 347.808C287.133 353.032 278.169 352.049 272.829 345.753L242.235 354.858C243.925 362.2 241.61 370.104 235.303 374.975C227.217 381.222 215.865 380.85 208.798 373.903L173.094 403.514C176.904 408.637 176.142 415.756 171.109 419.726C169.951 420.64 168.681 421.308 167.355 421.742L195.877 468.642C201.286 466.59 207.873 468.225 211.902 472.781C216.986 478.529 215.901 487.707 210.177 492.796Z" fill="#55ACBF" fill-opacity="0.05"/>
</svg>
